%TF.GenerationSoftware,KiCad,Pcbnew,(7.0.0)*%
%TF.CreationDate,2023-03-18T00:51:59-05:00*%
%TF.ProjectId,test,74657374-2e6b-4696-9361-645f70636258,rev?*%
%TF.SameCoordinates,Original*%
%TF.FileFunction,Legend,Top*%
%TF.FilePolarity,Positive*%
%FSLAX46Y46*%
G04 Gerber Fmt 4.6, Leading zero omitted, Abs format (unit mm)*
G04 Created by KiCad (PCBNEW (7.0.0)) date 2023-03-18 00:51:59*
%MOMM*%
%LPD*%
G01*
G04 APERTURE LIST*
%ADD10C,0.200000*%
%ADD11C,0.400000*%
%ADD12C,0.150000*%
%ADD13C,0.120000*%
G04 APERTURE END LIST*
D10*
X108237142Y-63588571D02*
X108237142Y-62088571D01*
X108237142Y-62088571D02*
X108594285Y-62088571D01*
X108594285Y-62088571D02*
X108808571Y-62160000D01*
X108808571Y-62160000D02*
X108951428Y-62302857D01*
X108951428Y-62302857D02*
X109022857Y-62445714D01*
X109022857Y-62445714D02*
X109094285Y-62731428D01*
X109094285Y-62731428D02*
X109094285Y-62945714D01*
X109094285Y-62945714D02*
X109022857Y-63231428D01*
X109022857Y-63231428D02*
X108951428Y-63374285D01*
X108951428Y-63374285D02*
X108808571Y-63517142D01*
X108808571Y-63517142D02*
X108594285Y-63588571D01*
X108594285Y-63588571D02*
X108237142Y-63588571D01*
X110308571Y-63517142D02*
X110165714Y-63588571D01*
X110165714Y-63588571D02*
X109880000Y-63588571D01*
X109880000Y-63588571D02*
X109737142Y-63517142D01*
X109737142Y-63517142D02*
X109665714Y-63374285D01*
X109665714Y-63374285D02*
X109665714Y-62802857D01*
X109665714Y-62802857D02*
X109737142Y-62660000D01*
X109737142Y-62660000D02*
X109880000Y-62588571D01*
X109880000Y-62588571D02*
X110165714Y-62588571D01*
X110165714Y-62588571D02*
X110308571Y-62660000D01*
X110308571Y-62660000D02*
X110380000Y-62802857D01*
X110380000Y-62802857D02*
X110380000Y-62945714D01*
X110380000Y-62945714D02*
X109665714Y-63088571D01*
X110951428Y-63517142D02*
X111094285Y-63588571D01*
X111094285Y-63588571D02*
X111379999Y-63588571D01*
X111379999Y-63588571D02*
X111522856Y-63517142D01*
X111522856Y-63517142D02*
X111594285Y-63374285D01*
X111594285Y-63374285D02*
X111594285Y-63302857D01*
X111594285Y-63302857D02*
X111522856Y-63160000D01*
X111522856Y-63160000D02*
X111379999Y-63088571D01*
X111379999Y-63088571D02*
X111165714Y-63088571D01*
X111165714Y-63088571D02*
X111022856Y-63017142D01*
X111022856Y-63017142D02*
X110951428Y-62874285D01*
X110951428Y-62874285D02*
X110951428Y-62802857D01*
X110951428Y-62802857D02*
X111022856Y-62660000D01*
X111022856Y-62660000D02*
X111165714Y-62588571D01*
X111165714Y-62588571D02*
X111379999Y-62588571D01*
X111379999Y-62588571D02*
X111522856Y-62660000D01*
X112237142Y-63588571D02*
X112237142Y-62588571D01*
X112237142Y-62088571D02*
X112165714Y-62160000D01*
X112165714Y-62160000D02*
X112237142Y-62231428D01*
X112237142Y-62231428D02*
X112308571Y-62160000D01*
X112308571Y-62160000D02*
X112237142Y-62088571D01*
X112237142Y-62088571D02*
X112237142Y-62231428D01*
X113594286Y-62588571D02*
X113594286Y-63802857D01*
X113594286Y-63802857D02*
X113522857Y-63945714D01*
X113522857Y-63945714D02*
X113451428Y-64017142D01*
X113451428Y-64017142D02*
X113308571Y-64088571D01*
X113308571Y-64088571D02*
X113094286Y-64088571D01*
X113094286Y-64088571D02*
X112951428Y-64017142D01*
X113594286Y-63517142D02*
X113451428Y-63588571D01*
X113451428Y-63588571D02*
X113165714Y-63588571D01*
X113165714Y-63588571D02*
X113022857Y-63517142D01*
X113022857Y-63517142D02*
X112951428Y-63445714D01*
X112951428Y-63445714D02*
X112880000Y-63302857D01*
X112880000Y-63302857D02*
X112880000Y-62874285D01*
X112880000Y-62874285D02*
X112951428Y-62731428D01*
X112951428Y-62731428D02*
X113022857Y-62660000D01*
X113022857Y-62660000D02*
X113165714Y-62588571D01*
X113165714Y-62588571D02*
X113451428Y-62588571D01*
X113451428Y-62588571D02*
X113594286Y-62660000D01*
X114308571Y-62588571D02*
X114308571Y-63588571D01*
X114308571Y-62731428D02*
X114380000Y-62660000D01*
X114380000Y-62660000D02*
X114522857Y-62588571D01*
X114522857Y-62588571D02*
X114737143Y-62588571D01*
X114737143Y-62588571D02*
X114880000Y-62660000D01*
X114880000Y-62660000D02*
X114951429Y-62802857D01*
X114951429Y-62802857D02*
X114951429Y-63588571D01*
X116237143Y-63517142D02*
X116094286Y-63588571D01*
X116094286Y-63588571D02*
X115808572Y-63588571D01*
X115808572Y-63588571D02*
X115665714Y-63517142D01*
X115665714Y-63517142D02*
X115594286Y-63374285D01*
X115594286Y-63374285D02*
X115594286Y-62802857D01*
X115594286Y-62802857D02*
X115665714Y-62660000D01*
X115665714Y-62660000D02*
X115808572Y-62588571D01*
X115808572Y-62588571D02*
X116094286Y-62588571D01*
X116094286Y-62588571D02*
X116237143Y-62660000D01*
X116237143Y-62660000D02*
X116308572Y-62802857D01*
X116308572Y-62802857D02*
X116308572Y-62945714D01*
X116308572Y-62945714D02*
X115594286Y-63088571D01*
X117594286Y-63588571D02*
X117594286Y-62088571D01*
X117594286Y-63517142D02*
X117451428Y-63588571D01*
X117451428Y-63588571D02*
X117165714Y-63588571D01*
X117165714Y-63588571D02*
X117022857Y-63517142D01*
X117022857Y-63517142D02*
X116951428Y-63445714D01*
X116951428Y-63445714D02*
X116880000Y-63302857D01*
X116880000Y-63302857D02*
X116880000Y-62874285D01*
X116880000Y-62874285D02*
X116951428Y-62731428D01*
X116951428Y-62731428D02*
X117022857Y-62660000D01*
X117022857Y-62660000D02*
X117165714Y-62588571D01*
X117165714Y-62588571D02*
X117451428Y-62588571D01*
X117451428Y-62588571D02*
X117594286Y-62660000D01*
X119208571Y-63588571D02*
X119208571Y-62088571D01*
X119208571Y-62660000D02*
X119351429Y-62588571D01*
X119351429Y-62588571D02*
X119637143Y-62588571D01*
X119637143Y-62588571D02*
X119780000Y-62660000D01*
X119780000Y-62660000D02*
X119851429Y-62731428D01*
X119851429Y-62731428D02*
X119922857Y-62874285D01*
X119922857Y-62874285D02*
X119922857Y-63302857D01*
X119922857Y-63302857D02*
X119851429Y-63445714D01*
X119851429Y-63445714D02*
X119780000Y-63517142D01*
X119780000Y-63517142D02*
X119637143Y-63588571D01*
X119637143Y-63588571D02*
X119351429Y-63588571D01*
X119351429Y-63588571D02*
X119208571Y-63517142D01*
X120422857Y-62588571D02*
X120780000Y-63588571D01*
X121137143Y-62588571D02*
X120780000Y-63588571D01*
X120780000Y-63588571D02*
X120637143Y-63945714D01*
X120637143Y-63945714D02*
X120565714Y-64017142D01*
X120565714Y-64017142D02*
X120422857Y-64088571D01*
X121708571Y-63445714D02*
X121780000Y-63517142D01*
X121780000Y-63517142D02*
X121708571Y-63588571D01*
X121708571Y-63588571D02*
X121637143Y-63517142D01*
X121637143Y-63517142D02*
X121708571Y-63445714D01*
X121708571Y-63445714D02*
X121708571Y-63588571D01*
X121708571Y-62660000D02*
X121780000Y-62731428D01*
X121780000Y-62731428D02*
X121708571Y-62802857D01*
X121708571Y-62802857D02*
X121637143Y-62731428D01*
X121637143Y-62731428D02*
X121708571Y-62660000D01*
X121708571Y-62660000D02*
X121708571Y-62802857D01*
X124180000Y-63445714D02*
X124108572Y-63517142D01*
X124108572Y-63517142D02*
X123894286Y-63588571D01*
X123894286Y-63588571D02*
X123751429Y-63588571D01*
X123751429Y-63588571D02*
X123537143Y-63517142D01*
X123537143Y-63517142D02*
X123394286Y-63374285D01*
X123394286Y-63374285D02*
X123322857Y-63231428D01*
X123322857Y-63231428D02*
X123251429Y-62945714D01*
X123251429Y-62945714D02*
X123251429Y-62731428D01*
X123251429Y-62731428D02*
X123322857Y-62445714D01*
X123322857Y-62445714D02*
X123394286Y-62302857D01*
X123394286Y-62302857D02*
X123537143Y-62160000D01*
X123537143Y-62160000D02*
X123751429Y-62088571D01*
X123751429Y-62088571D02*
X123894286Y-62088571D01*
X123894286Y-62088571D02*
X124108572Y-62160000D01*
X124108572Y-62160000D02*
X124180000Y-62231428D01*
X125465715Y-63588571D02*
X125465715Y-62802857D01*
X125465715Y-62802857D02*
X125394286Y-62660000D01*
X125394286Y-62660000D02*
X125251429Y-62588571D01*
X125251429Y-62588571D02*
X124965715Y-62588571D01*
X124965715Y-62588571D02*
X124822857Y-62660000D01*
X125465715Y-63517142D02*
X125322857Y-63588571D01*
X125322857Y-63588571D02*
X124965715Y-63588571D01*
X124965715Y-63588571D02*
X124822857Y-63517142D01*
X124822857Y-63517142D02*
X124751429Y-63374285D01*
X124751429Y-63374285D02*
X124751429Y-63231428D01*
X124751429Y-63231428D02*
X124822857Y-63088571D01*
X124822857Y-63088571D02*
X124965715Y-63017142D01*
X124965715Y-63017142D02*
X125322857Y-63017142D01*
X125322857Y-63017142D02*
X125465715Y-62945714D01*
X126394286Y-63588571D02*
X126251429Y-63517142D01*
X126251429Y-63517142D02*
X126180000Y-63374285D01*
X126180000Y-63374285D02*
X126180000Y-62088571D01*
X127537143Y-63517142D02*
X127394286Y-63588571D01*
X127394286Y-63588571D02*
X127108572Y-63588571D01*
X127108572Y-63588571D02*
X126965714Y-63517142D01*
X126965714Y-63517142D02*
X126894286Y-63374285D01*
X126894286Y-63374285D02*
X126894286Y-62802857D01*
X126894286Y-62802857D02*
X126965714Y-62660000D01*
X126965714Y-62660000D02*
X127108572Y-62588571D01*
X127108572Y-62588571D02*
X127394286Y-62588571D01*
X127394286Y-62588571D02*
X127537143Y-62660000D01*
X127537143Y-62660000D02*
X127608572Y-62802857D01*
X127608572Y-62802857D02*
X127608572Y-62945714D01*
X127608572Y-62945714D02*
X126894286Y-63088571D01*
X128251428Y-63588571D02*
X128251428Y-62088571D01*
X128251428Y-62660000D02*
X128394286Y-62588571D01*
X128394286Y-62588571D02*
X128680000Y-62588571D01*
X128680000Y-62588571D02*
X128822857Y-62660000D01*
X128822857Y-62660000D02*
X128894286Y-62731428D01*
X128894286Y-62731428D02*
X128965714Y-62874285D01*
X128965714Y-62874285D02*
X128965714Y-63302857D01*
X128965714Y-63302857D02*
X128894286Y-63445714D01*
X128894286Y-63445714D02*
X128822857Y-63517142D01*
X128822857Y-63517142D02*
X128680000Y-63588571D01*
X128680000Y-63588571D02*
X128394286Y-63588571D01*
X128394286Y-63588571D02*
X128251428Y-63517142D01*
X130508571Y-63588571D02*
X130508571Y-62088571D01*
X130508571Y-62088571D02*
X131080000Y-62088571D01*
X131080000Y-62088571D02*
X131222857Y-62160000D01*
X131222857Y-62160000D02*
X131294286Y-62231428D01*
X131294286Y-62231428D02*
X131365714Y-62374285D01*
X131365714Y-62374285D02*
X131365714Y-62588571D01*
X131365714Y-62588571D02*
X131294286Y-62731428D01*
X131294286Y-62731428D02*
X131222857Y-62802857D01*
X131222857Y-62802857D02*
X131080000Y-62874285D01*
X131080000Y-62874285D02*
X130508571Y-62874285D01*
X132008571Y-63588571D02*
X132008571Y-62588571D01*
X132008571Y-62874285D02*
X132080000Y-62731428D01*
X132080000Y-62731428D02*
X132151429Y-62660000D01*
X132151429Y-62660000D02*
X132294286Y-62588571D01*
X132294286Y-62588571D02*
X132437143Y-62588571D01*
X133151428Y-63588571D02*
X133008571Y-63517142D01*
X133008571Y-63517142D02*
X132937142Y-63445714D01*
X132937142Y-63445714D02*
X132865714Y-63302857D01*
X132865714Y-63302857D02*
X132865714Y-62874285D01*
X132865714Y-62874285D02*
X132937142Y-62731428D01*
X132937142Y-62731428D02*
X133008571Y-62660000D01*
X133008571Y-62660000D02*
X133151428Y-62588571D01*
X133151428Y-62588571D02*
X133365714Y-62588571D01*
X133365714Y-62588571D02*
X133508571Y-62660000D01*
X133508571Y-62660000D02*
X133580000Y-62731428D01*
X133580000Y-62731428D02*
X133651428Y-62874285D01*
X133651428Y-62874285D02*
X133651428Y-63302857D01*
X133651428Y-63302857D02*
X133580000Y-63445714D01*
X133580000Y-63445714D02*
X133508571Y-63517142D01*
X133508571Y-63517142D02*
X133365714Y-63588571D01*
X133365714Y-63588571D02*
X133151428Y-63588571D01*
X134294285Y-63588571D02*
X134294285Y-62088571D01*
X134294285Y-62660000D02*
X134437143Y-62588571D01*
X134437143Y-62588571D02*
X134722857Y-62588571D01*
X134722857Y-62588571D02*
X134865714Y-62660000D01*
X134865714Y-62660000D02*
X134937143Y-62731428D01*
X134937143Y-62731428D02*
X135008571Y-62874285D01*
X135008571Y-62874285D02*
X135008571Y-63302857D01*
X135008571Y-63302857D02*
X134937143Y-63445714D01*
X134937143Y-63445714D02*
X134865714Y-63517142D01*
X134865714Y-63517142D02*
X134722857Y-63588571D01*
X134722857Y-63588571D02*
X134437143Y-63588571D01*
X134437143Y-63588571D02*
X134294285Y-63517142D01*
X135580000Y-63517142D02*
X135722857Y-63588571D01*
X135722857Y-63588571D02*
X136008571Y-63588571D01*
X136008571Y-63588571D02*
X136151428Y-63517142D01*
X136151428Y-63517142D02*
X136222857Y-63374285D01*
X136222857Y-63374285D02*
X136222857Y-63302857D01*
X136222857Y-63302857D02*
X136151428Y-63160000D01*
X136151428Y-63160000D02*
X136008571Y-63088571D01*
X136008571Y-63088571D02*
X135794286Y-63088571D01*
X135794286Y-63088571D02*
X135651428Y-63017142D01*
X135651428Y-63017142D02*
X135580000Y-62874285D01*
X135580000Y-62874285D02*
X135580000Y-62802857D01*
X135580000Y-62802857D02*
X135651428Y-62660000D01*
X135651428Y-62660000D02*
X135794286Y-62588571D01*
X135794286Y-62588571D02*
X136008571Y-62588571D01*
X136008571Y-62588571D02*
X136151428Y-62660000D01*
X136651429Y-62588571D02*
X137222857Y-62588571D01*
X136865714Y-62088571D02*
X136865714Y-63374285D01*
X136865714Y-63374285D02*
X136937143Y-63517142D01*
X136937143Y-63517142D02*
X137080000Y-63588571D01*
X137080000Y-63588571D02*
X137222857Y-63588571D01*
X124251428Y-66018571D02*
X123537142Y-66018571D01*
X123537142Y-66018571D02*
X123537142Y-64518571D01*
X125322857Y-65947142D02*
X125180000Y-66018571D01*
X125180000Y-66018571D02*
X124894286Y-66018571D01*
X124894286Y-66018571D02*
X124751428Y-65947142D01*
X124751428Y-65947142D02*
X124680000Y-65804285D01*
X124680000Y-65804285D02*
X124680000Y-65232857D01*
X124680000Y-65232857D02*
X124751428Y-65090000D01*
X124751428Y-65090000D02*
X124894286Y-65018571D01*
X124894286Y-65018571D02*
X125180000Y-65018571D01*
X125180000Y-65018571D02*
X125322857Y-65090000D01*
X125322857Y-65090000D02*
X125394286Y-65232857D01*
X125394286Y-65232857D02*
X125394286Y-65375714D01*
X125394286Y-65375714D02*
X124680000Y-65518571D01*
X126251428Y-66018571D02*
X126108571Y-65947142D01*
X126108571Y-65947142D02*
X126037142Y-65875714D01*
X126037142Y-65875714D02*
X125965714Y-65732857D01*
X125965714Y-65732857D02*
X125965714Y-65304285D01*
X125965714Y-65304285D02*
X126037142Y-65161428D01*
X126037142Y-65161428D02*
X126108571Y-65090000D01*
X126108571Y-65090000D02*
X126251428Y-65018571D01*
X126251428Y-65018571D02*
X126465714Y-65018571D01*
X126465714Y-65018571D02*
X126608571Y-65090000D01*
X126608571Y-65090000D02*
X126680000Y-65161428D01*
X126680000Y-65161428D02*
X126751428Y-65304285D01*
X126751428Y-65304285D02*
X126751428Y-65732857D01*
X126751428Y-65732857D02*
X126680000Y-65875714D01*
X126680000Y-65875714D02*
X126608571Y-65947142D01*
X126608571Y-65947142D02*
X126465714Y-66018571D01*
X126465714Y-66018571D02*
X126251428Y-66018571D01*
X127394285Y-65018571D02*
X127394285Y-66518571D01*
X127394285Y-65090000D02*
X127537143Y-65018571D01*
X127537143Y-65018571D02*
X127822857Y-65018571D01*
X127822857Y-65018571D02*
X127965714Y-65090000D01*
X127965714Y-65090000D02*
X128037143Y-65161428D01*
X128037143Y-65161428D02*
X128108571Y-65304285D01*
X128108571Y-65304285D02*
X128108571Y-65732857D01*
X128108571Y-65732857D02*
X128037143Y-65875714D01*
X128037143Y-65875714D02*
X127965714Y-65947142D01*
X127965714Y-65947142D02*
X127822857Y-66018571D01*
X127822857Y-66018571D02*
X127537143Y-66018571D01*
X127537143Y-66018571D02*
X127394285Y-65947142D01*
X128965714Y-66018571D02*
X128822857Y-65947142D01*
X128822857Y-65947142D02*
X128751428Y-65875714D01*
X128751428Y-65875714D02*
X128680000Y-65732857D01*
X128680000Y-65732857D02*
X128680000Y-65304285D01*
X128680000Y-65304285D02*
X128751428Y-65161428D01*
X128751428Y-65161428D02*
X128822857Y-65090000D01*
X128822857Y-65090000D02*
X128965714Y-65018571D01*
X128965714Y-65018571D02*
X129180000Y-65018571D01*
X129180000Y-65018571D02*
X129322857Y-65090000D01*
X129322857Y-65090000D02*
X129394286Y-65161428D01*
X129394286Y-65161428D02*
X129465714Y-65304285D01*
X129465714Y-65304285D02*
X129465714Y-65732857D01*
X129465714Y-65732857D02*
X129394286Y-65875714D01*
X129394286Y-65875714D02*
X129322857Y-65947142D01*
X129322857Y-65947142D02*
X129180000Y-66018571D01*
X129180000Y-66018571D02*
X128965714Y-66018571D01*
X130322857Y-66018571D02*
X130180000Y-65947142D01*
X130180000Y-65947142D02*
X130108571Y-65804285D01*
X130108571Y-65804285D02*
X130108571Y-64518571D01*
X131537143Y-66018571D02*
X131537143Y-64518571D01*
X131537143Y-65947142D02*
X131394285Y-66018571D01*
X131394285Y-66018571D02*
X131108571Y-66018571D01*
X131108571Y-66018571D02*
X130965714Y-65947142D01*
X130965714Y-65947142D02*
X130894285Y-65875714D01*
X130894285Y-65875714D02*
X130822857Y-65732857D01*
X130822857Y-65732857D02*
X130822857Y-65304285D01*
X130822857Y-65304285D02*
X130894285Y-65161428D01*
X130894285Y-65161428D02*
X130965714Y-65090000D01*
X130965714Y-65090000D02*
X131108571Y-65018571D01*
X131108571Y-65018571D02*
X131394285Y-65018571D01*
X131394285Y-65018571D02*
X131537143Y-65090000D01*
X132937143Y-64518571D02*
X133794286Y-64518571D01*
X133365714Y-66018571D02*
X133365714Y-64518571D01*
X134865714Y-65947142D02*
X134722857Y-66018571D01*
X134722857Y-66018571D02*
X134437143Y-66018571D01*
X134437143Y-66018571D02*
X134294285Y-65947142D01*
X134294285Y-65947142D02*
X134222857Y-65804285D01*
X134222857Y-65804285D02*
X134222857Y-65232857D01*
X134222857Y-65232857D02*
X134294285Y-65090000D01*
X134294285Y-65090000D02*
X134437143Y-65018571D01*
X134437143Y-65018571D02*
X134722857Y-65018571D01*
X134722857Y-65018571D02*
X134865714Y-65090000D01*
X134865714Y-65090000D02*
X134937143Y-65232857D01*
X134937143Y-65232857D02*
X134937143Y-65375714D01*
X134937143Y-65375714D02*
X134222857Y-65518571D01*
X135579999Y-65018571D02*
X135579999Y-66304285D01*
X135579999Y-66304285D02*
X135508571Y-66447142D01*
X135508571Y-66447142D02*
X135365714Y-66518571D01*
X135365714Y-66518571D02*
X135294285Y-66518571D01*
X135579999Y-64518571D02*
X135508571Y-64590000D01*
X135508571Y-64590000D02*
X135579999Y-64661428D01*
X135579999Y-64661428D02*
X135651428Y-64590000D01*
X135651428Y-64590000D02*
X135579999Y-64518571D01*
X135579999Y-64518571D02*
X135579999Y-64661428D01*
X136294285Y-66018571D02*
X136294285Y-64518571D01*
X136437143Y-65447142D02*
X136865714Y-66018571D01*
X136865714Y-65018571D02*
X136294285Y-65590000D01*
X137722857Y-66018571D02*
X137580000Y-65947142D01*
X137580000Y-65947142D02*
X137508571Y-65875714D01*
X137508571Y-65875714D02*
X137437143Y-65732857D01*
X137437143Y-65732857D02*
X137437143Y-65304285D01*
X137437143Y-65304285D02*
X137508571Y-65161428D01*
X137508571Y-65161428D02*
X137580000Y-65090000D01*
X137580000Y-65090000D02*
X137722857Y-65018571D01*
X137722857Y-65018571D02*
X137937143Y-65018571D01*
X137937143Y-65018571D02*
X138080000Y-65090000D01*
X138080000Y-65090000D02*
X138151429Y-65161428D01*
X138151429Y-65161428D02*
X138222857Y-65304285D01*
X138222857Y-65304285D02*
X138222857Y-65732857D01*
X138222857Y-65732857D02*
X138151429Y-65875714D01*
X138151429Y-65875714D02*
X138080000Y-65947142D01*
X138080000Y-65947142D02*
X137937143Y-66018571D01*
X137937143Y-66018571D02*
X137722857Y-66018571D01*
X138722857Y-65018571D02*
X139008572Y-66018571D01*
X139008572Y-66018571D02*
X139294286Y-65304285D01*
X139294286Y-65304285D02*
X139580000Y-66018571D01*
X139580000Y-66018571D02*
X139865714Y-65018571D01*
X140365715Y-65947142D02*
X140508572Y-66018571D01*
X140508572Y-66018571D02*
X140794286Y-66018571D01*
X140794286Y-66018571D02*
X140937143Y-65947142D01*
X140937143Y-65947142D02*
X141008572Y-65804285D01*
X141008572Y-65804285D02*
X141008572Y-65732857D01*
X141008572Y-65732857D02*
X140937143Y-65590000D01*
X140937143Y-65590000D02*
X140794286Y-65518571D01*
X140794286Y-65518571D02*
X140580001Y-65518571D01*
X140580001Y-65518571D02*
X140437143Y-65447142D01*
X140437143Y-65447142D02*
X140365715Y-65304285D01*
X140365715Y-65304285D02*
X140365715Y-65232857D01*
X140365715Y-65232857D02*
X140437143Y-65090000D01*
X140437143Y-65090000D02*
X140580001Y-65018571D01*
X140580001Y-65018571D02*
X140794286Y-65018571D01*
X140794286Y-65018571D02*
X140937143Y-65090000D01*
X141651429Y-66018571D02*
X141651429Y-64518571D01*
X141794287Y-65447142D02*
X142222858Y-66018571D01*
X142222858Y-65018571D02*
X141651429Y-65590000D01*
X142865715Y-66018571D02*
X142865715Y-65018571D01*
X142865715Y-64518571D02*
X142794287Y-64590000D01*
X142794287Y-64590000D02*
X142865715Y-64661428D01*
X142865715Y-64661428D02*
X142937144Y-64590000D01*
X142937144Y-64590000D02*
X142865715Y-64518571D01*
X142865715Y-64518571D02*
X142865715Y-64661428D01*
X108022857Y-66948571D02*
X108522857Y-68448571D01*
X108522857Y-68448571D02*
X109022857Y-66948571D01*
X110094285Y-68377142D02*
X109951428Y-68448571D01*
X109951428Y-68448571D02*
X109665714Y-68448571D01*
X109665714Y-68448571D02*
X109522856Y-68377142D01*
X109522856Y-68377142D02*
X109451428Y-68234285D01*
X109451428Y-68234285D02*
X109451428Y-67662857D01*
X109451428Y-67662857D02*
X109522856Y-67520000D01*
X109522856Y-67520000D02*
X109665714Y-67448571D01*
X109665714Y-67448571D02*
X109951428Y-67448571D01*
X109951428Y-67448571D02*
X110094285Y-67520000D01*
X110094285Y-67520000D02*
X110165714Y-67662857D01*
X110165714Y-67662857D02*
X110165714Y-67805714D01*
X110165714Y-67805714D02*
X109451428Y-67948571D01*
X110808570Y-68448571D02*
X110808570Y-67448571D01*
X110808570Y-67734285D02*
X110879999Y-67591428D01*
X110879999Y-67591428D02*
X110951428Y-67520000D01*
X110951428Y-67520000D02*
X111094285Y-67448571D01*
X111094285Y-67448571D02*
X111237142Y-67448571D01*
X111665713Y-68377142D02*
X111808570Y-68448571D01*
X111808570Y-68448571D02*
X112094284Y-68448571D01*
X112094284Y-68448571D02*
X112237141Y-68377142D01*
X112237141Y-68377142D02*
X112308570Y-68234285D01*
X112308570Y-68234285D02*
X112308570Y-68162857D01*
X112308570Y-68162857D02*
X112237141Y-68020000D01*
X112237141Y-68020000D02*
X112094284Y-67948571D01*
X112094284Y-67948571D02*
X111879999Y-67948571D01*
X111879999Y-67948571D02*
X111737141Y-67877142D01*
X111737141Y-67877142D02*
X111665713Y-67734285D01*
X111665713Y-67734285D02*
X111665713Y-67662857D01*
X111665713Y-67662857D02*
X111737141Y-67520000D01*
X111737141Y-67520000D02*
X111879999Y-67448571D01*
X111879999Y-67448571D02*
X112094284Y-67448571D01*
X112094284Y-67448571D02*
X112237141Y-67520000D01*
X112951427Y-68448571D02*
X112951427Y-67448571D01*
X112951427Y-66948571D02*
X112879999Y-67020000D01*
X112879999Y-67020000D02*
X112951427Y-67091428D01*
X112951427Y-67091428D02*
X113022856Y-67020000D01*
X113022856Y-67020000D02*
X112951427Y-66948571D01*
X112951427Y-66948571D02*
X112951427Y-67091428D01*
X113879999Y-68448571D02*
X113737142Y-68377142D01*
X113737142Y-68377142D02*
X113665713Y-68305714D01*
X113665713Y-68305714D02*
X113594285Y-68162857D01*
X113594285Y-68162857D02*
X113594285Y-67734285D01*
X113594285Y-67734285D02*
X113665713Y-67591428D01*
X113665713Y-67591428D02*
X113737142Y-67520000D01*
X113737142Y-67520000D02*
X113879999Y-67448571D01*
X113879999Y-67448571D02*
X114094285Y-67448571D01*
X114094285Y-67448571D02*
X114237142Y-67520000D01*
X114237142Y-67520000D02*
X114308571Y-67591428D01*
X114308571Y-67591428D02*
X114379999Y-67734285D01*
X114379999Y-67734285D02*
X114379999Y-68162857D01*
X114379999Y-68162857D02*
X114308571Y-68305714D01*
X114308571Y-68305714D02*
X114237142Y-68377142D01*
X114237142Y-68377142D02*
X114094285Y-68448571D01*
X114094285Y-68448571D02*
X113879999Y-68448571D01*
X115022856Y-67448571D02*
X115022856Y-68448571D01*
X115022856Y-67591428D02*
X115094285Y-67520000D01*
X115094285Y-67520000D02*
X115237142Y-67448571D01*
X115237142Y-67448571D02*
X115451428Y-67448571D01*
X115451428Y-67448571D02*
X115594285Y-67520000D01*
X115594285Y-67520000D02*
X115665714Y-67662857D01*
X115665714Y-67662857D02*
X115665714Y-68448571D01*
X116379999Y-68305714D02*
X116451428Y-68377142D01*
X116451428Y-68377142D02*
X116379999Y-68448571D01*
X116379999Y-68448571D02*
X116308571Y-68377142D01*
X116308571Y-68377142D02*
X116379999Y-68305714D01*
X116379999Y-68305714D02*
X116379999Y-68448571D01*
X116379999Y-67520000D02*
X116451428Y-67591428D01*
X116451428Y-67591428D02*
X116379999Y-67662857D01*
X116379999Y-67662857D02*
X116308571Y-67591428D01*
X116308571Y-67591428D02*
X116379999Y-67520000D01*
X116379999Y-67520000D02*
X116379999Y-67662857D01*
X118780000Y-68448571D02*
X117922857Y-68448571D01*
X118351428Y-68448571D02*
X118351428Y-66948571D01*
X118351428Y-66948571D02*
X118208571Y-67162857D01*
X118208571Y-67162857D02*
X118065714Y-67305714D01*
X118065714Y-67305714D02*
X117922857Y-67377142D01*
X119422856Y-68305714D02*
X119494285Y-68377142D01*
X119494285Y-68377142D02*
X119422856Y-68448571D01*
X119422856Y-68448571D02*
X119351428Y-68377142D01*
X119351428Y-68377142D02*
X119422856Y-68305714D01*
X119422856Y-68305714D02*
X119422856Y-68448571D01*
X120422857Y-66948571D02*
X120565714Y-66948571D01*
X120565714Y-66948571D02*
X120708571Y-67020000D01*
X120708571Y-67020000D02*
X120780000Y-67091428D01*
X120780000Y-67091428D02*
X120851428Y-67234285D01*
X120851428Y-67234285D02*
X120922857Y-67520000D01*
X120922857Y-67520000D02*
X120922857Y-67877142D01*
X120922857Y-67877142D02*
X120851428Y-68162857D01*
X120851428Y-68162857D02*
X120780000Y-68305714D01*
X120780000Y-68305714D02*
X120708571Y-68377142D01*
X120708571Y-68377142D02*
X120565714Y-68448571D01*
X120565714Y-68448571D02*
X120422857Y-68448571D01*
X120422857Y-68448571D02*
X120280000Y-68377142D01*
X120280000Y-68377142D02*
X120208571Y-68305714D01*
X120208571Y-68305714D02*
X120137142Y-68162857D01*
X120137142Y-68162857D02*
X120065714Y-67877142D01*
X120065714Y-67877142D02*
X120065714Y-67520000D01*
X120065714Y-67520000D02*
X120137142Y-67234285D01*
X120137142Y-67234285D02*
X120208571Y-67091428D01*
X120208571Y-67091428D02*
X120280000Y-67020000D01*
X120280000Y-67020000D02*
X120422857Y-66948571D01*
X121565713Y-68305714D02*
X121637142Y-68377142D01*
X121637142Y-68377142D02*
X121565713Y-68448571D01*
X121565713Y-68448571D02*
X121494285Y-68377142D01*
X121494285Y-68377142D02*
X121565713Y-68305714D01*
X121565713Y-68305714D02*
X121565713Y-68448571D01*
X122565714Y-66948571D02*
X122708571Y-66948571D01*
X122708571Y-66948571D02*
X122851428Y-67020000D01*
X122851428Y-67020000D02*
X122922857Y-67091428D01*
X122922857Y-67091428D02*
X122994285Y-67234285D01*
X122994285Y-67234285D02*
X123065714Y-67520000D01*
X123065714Y-67520000D02*
X123065714Y-67877142D01*
X123065714Y-67877142D02*
X122994285Y-68162857D01*
X122994285Y-68162857D02*
X122922857Y-68305714D01*
X122922857Y-68305714D02*
X122851428Y-68377142D01*
X122851428Y-68377142D02*
X122708571Y-68448571D01*
X122708571Y-68448571D02*
X122565714Y-68448571D01*
X122565714Y-68448571D02*
X122422857Y-68377142D01*
X122422857Y-68377142D02*
X122351428Y-68305714D01*
X122351428Y-68305714D02*
X122279999Y-68162857D01*
X122279999Y-68162857D02*
X122208571Y-67877142D01*
X122208571Y-67877142D02*
X122208571Y-67520000D01*
X122208571Y-67520000D02*
X122279999Y-67234285D01*
X122279999Y-67234285D02*
X122351428Y-67091428D01*
X122351428Y-67091428D02*
X122422857Y-67020000D01*
X122422857Y-67020000D02*
X122565714Y-66948571D01*
D11*
X110832380Y-57809523D02*
X110832380Y-53809523D01*
X110832380Y-53809523D02*
X113118095Y-57809523D01*
X113118095Y-57809523D02*
X113118095Y-53809523D01*
X116737142Y-57809523D02*
X116737142Y-55714285D01*
X116737142Y-55714285D02*
X116546666Y-55333333D01*
X116546666Y-55333333D02*
X116165714Y-55142857D01*
X116165714Y-55142857D02*
X115403809Y-55142857D01*
X115403809Y-55142857D02*
X115022856Y-55333333D01*
X116737142Y-57619047D02*
X116356190Y-57809523D01*
X116356190Y-57809523D02*
X115403809Y-57809523D01*
X115403809Y-57809523D02*
X115022856Y-57619047D01*
X115022856Y-57619047D02*
X114832380Y-57238095D01*
X114832380Y-57238095D02*
X114832380Y-56857142D01*
X114832380Y-56857142D02*
X115022856Y-56476190D01*
X115022856Y-56476190D02*
X115403809Y-56285714D01*
X115403809Y-56285714D02*
X116356190Y-56285714D01*
X116356190Y-56285714D02*
X116737142Y-56095238D01*
X120356190Y-57619047D02*
X119975238Y-57809523D01*
X119975238Y-57809523D02*
X119213333Y-57809523D01*
X119213333Y-57809523D02*
X118832381Y-57619047D01*
X118832381Y-57619047D02*
X118641904Y-57428571D01*
X118641904Y-57428571D02*
X118451428Y-57047619D01*
X118451428Y-57047619D02*
X118451428Y-55904761D01*
X118451428Y-55904761D02*
X118641904Y-55523809D01*
X118641904Y-55523809D02*
X118832381Y-55333333D01*
X118832381Y-55333333D02*
X119213333Y-55142857D01*
X119213333Y-55142857D02*
X119975238Y-55142857D01*
X119975238Y-55142857D02*
X120356190Y-55333333D01*
X122070475Y-57809523D02*
X122070475Y-53809523D01*
X123784761Y-57809523D02*
X123784761Y-55714285D01*
X123784761Y-55714285D02*
X123594285Y-55333333D01*
X123594285Y-55333333D02*
X123213333Y-55142857D01*
X123213333Y-55142857D02*
X122641904Y-55142857D01*
X122641904Y-55142857D02*
X122260952Y-55333333D01*
X122260952Y-55333333D02*
X122070475Y-55523809D01*
X126260952Y-57809523D02*
X125880000Y-57619047D01*
X125880000Y-57619047D02*
X125689523Y-57428571D01*
X125689523Y-57428571D02*
X125499047Y-57047619D01*
X125499047Y-57047619D02*
X125499047Y-55904761D01*
X125499047Y-55904761D02*
X125689523Y-55523809D01*
X125689523Y-55523809D02*
X125880000Y-55333333D01*
X125880000Y-55333333D02*
X126260952Y-55142857D01*
X126260952Y-55142857D02*
X126832381Y-55142857D01*
X126832381Y-55142857D02*
X127213333Y-55333333D01*
X127213333Y-55333333D02*
X127403809Y-55523809D01*
X127403809Y-55523809D02*
X127594285Y-55904761D01*
X127594285Y-55904761D02*
X127594285Y-57047619D01*
X127594285Y-57047619D02*
X127403809Y-57428571D01*
X127403809Y-57428571D02*
X127213333Y-57619047D01*
X127213333Y-57619047D02*
X126832381Y-57809523D01*
X126832381Y-57809523D02*
X126260952Y-57809523D01*
X133041905Y-55714285D02*
X131708571Y-55714285D01*
X131708571Y-57809523D02*
X131708571Y-53809523D01*
X131708571Y-53809523D02*
X133613333Y-53809523D01*
X136660952Y-57619047D02*
X136280000Y-57809523D01*
X136280000Y-57809523D02*
X135518095Y-57809523D01*
X135518095Y-57809523D02*
X135137142Y-57619047D01*
X135137142Y-57619047D02*
X134946666Y-57238095D01*
X134946666Y-57238095D02*
X134946666Y-55714285D01*
X134946666Y-55714285D02*
X135137142Y-55333333D01*
X135137142Y-55333333D02*
X135518095Y-55142857D01*
X135518095Y-55142857D02*
X136280000Y-55142857D01*
X136280000Y-55142857D02*
X136660952Y-55333333D01*
X136660952Y-55333333D02*
X136851428Y-55714285D01*
X136851428Y-55714285D02*
X136851428Y-56095238D01*
X136851428Y-56095238D02*
X134946666Y-56476190D01*
X140089523Y-57619047D02*
X139708571Y-57809523D01*
X139708571Y-57809523D02*
X138946666Y-57809523D01*
X138946666Y-57809523D02*
X138565713Y-57619047D01*
X138565713Y-57619047D02*
X138375237Y-57238095D01*
X138375237Y-57238095D02*
X138375237Y-55714285D01*
X138375237Y-55714285D02*
X138565713Y-55333333D01*
X138565713Y-55333333D02*
X138946666Y-55142857D01*
X138946666Y-55142857D02*
X139708571Y-55142857D01*
X139708571Y-55142857D02*
X140089523Y-55333333D01*
X140089523Y-55333333D02*
X140279999Y-55714285D01*
X140279999Y-55714285D02*
X140279999Y-56095238D01*
X140279999Y-56095238D02*
X138375237Y-56476190D01*
X143708570Y-57809523D02*
X143708570Y-53809523D01*
X143708570Y-57619047D02*
X143327618Y-57809523D01*
X143327618Y-57809523D02*
X142565713Y-57809523D01*
X142565713Y-57809523D02*
X142184761Y-57619047D01*
X142184761Y-57619047D02*
X141994284Y-57428571D01*
X141994284Y-57428571D02*
X141803808Y-57047619D01*
X141803808Y-57047619D02*
X141803808Y-55904761D01*
X141803808Y-55904761D02*
X141994284Y-55523809D01*
X141994284Y-55523809D02*
X142184761Y-55333333D01*
X142184761Y-55333333D02*
X142565713Y-55142857D01*
X142565713Y-55142857D02*
X143327618Y-55142857D01*
X143327618Y-55142857D02*
X143708570Y-55333333D01*
X147137142Y-57619047D02*
X146756190Y-57809523D01*
X146756190Y-57809523D02*
X145994285Y-57809523D01*
X145994285Y-57809523D02*
X145613332Y-57619047D01*
X145613332Y-57619047D02*
X145422856Y-57238095D01*
X145422856Y-57238095D02*
X145422856Y-55714285D01*
X145422856Y-55714285D02*
X145613332Y-55333333D01*
X145613332Y-55333333D02*
X145994285Y-55142857D01*
X145994285Y-55142857D02*
X146756190Y-55142857D01*
X146756190Y-55142857D02*
X147137142Y-55333333D01*
X147137142Y-55333333D02*
X147327618Y-55714285D01*
X147327618Y-55714285D02*
X147327618Y-56095238D01*
X147327618Y-56095238D02*
X145422856Y-56476190D01*
X149041903Y-57809523D02*
X149041903Y-55142857D01*
X149041903Y-55904761D02*
X149232380Y-55523809D01*
X149232380Y-55523809D02*
X149422856Y-55333333D01*
X149422856Y-55333333D02*
X149803808Y-55142857D01*
X149803808Y-55142857D02*
X150184761Y-55142857D01*
D12*
%TO.C,J14*%
X116417380Y-46529523D02*
X117131666Y-46529523D01*
X117131666Y-46529523D02*
X117274523Y-46577142D01*
X117274523Y-46577142D02*
X117369761Y-46672380D01*
X117369761Y-46672380D02*
X117417380Y-46815237D01*
X117417380Y-46815237D02*
X117417380Y-46910475D01*
X117417380Y-45529523D02*
X117417380Y-46100951D01*
X117417380Y-45815237D02*
X116417380Y-45815237D01*
X116417380Y-45815237D02*
X116560238Y-45910475D01*
X116560238Y-45910475D02*
X116655476Y-46005713D01*
X116655476Y-46005713D02*
X116703095Y-46100951D01*
X116750714Y-44672380D02*
X117417380Y-44672380D01*
X116369761Y-44910475D02*
X117084047Y-45148570D01*
X117084047Y-45148570D02*
X117084047Y-44529523D01*
%TO.C,J11*%
X126577380Y-46529523D02*
X127291666Y-46529523D01*
X127291666Y-46529523D02*
X127434523Y-46577142D01*
X127434523Y-46577142D02*
X127529761Y-46672380D01*
X127529761Y-46672380D02*
X127577380Y-46815237D01*
X127577380Y-46815237D02*
X127577380Y-46910475D01*
X127577380Y-45529523D02*
X127577380Y-46100951D01*
X127577380Y-45815237D02*
X126577380Y-45815237D01*
X126577380Y-45815237D02*
X126720238Y-45910475D01*
X126720238Y-45910475D02*
X126815476Y-46005713D01*
X126815476Y-46005713D02*
X126863095Y-46100951D01*
X127577380Y-44577142D02*
X127577380Y-45148570D01*
X127577380Y-44862856D02*
X126577380Y-44862856D01*
X126577380Y-44862856D02*
X126720238Y-44958094D01*
X126720238Y-44958094D02*
X126815476Y-45053332D01*
X126815476Y-45053332D02*
X126863095Y-45148570D01*
%TO.C,J4*%
X159686666Y-93557380D02*
X159686666Y-94271666D01*
X159686666Y-94271666D02*
X159639047Y-94414523D01*
X159639047Y-94414523D02*
X159543809Y-94509761D01*
X159543809Y-94509761D02*
X159400952Y-94557380D01*
X159400952Y-94557380D02*
X159305714Y-94557380D01*
X160591428Y-93890714D02*
X160591428Y-94557380D01*
X160353333Y-93509761D02*
X160115238Y-94224047D01*
X160115238Y-94224047D02*
X160734285Y-94224047D01*
%TO.C,J3*%
X154606666Y-93557380D02*
X154606666Y-94271666D01*
X154606666Y-94271666D02*
X154559047Y-94414523D01*
X154559047Y-94414523D02*
X154463809Y-94509761D01*
X154463809Y-94509761D02*
X154320952Y-94557380D01*
X154320952Y-94557380D02*
X154225714Y-94557380D01*
X154987619Y-93557380D02*
X155606666Y-93557380D01*
X155606666Y-93557380D02*
X155273333Y-93938333D01*
X155273333Y-93938333D02*
X155416190Y-93938333D01*
X155416190Y-93938333D02*
X155511428Y-93985952D01*
X155511428Y-93985952D02*
X155559047Y-94033571D01*
X155559047Y-94033571D02*
X155606666Y-94128809D01*
X155606666Y-94128809D02*
X155606666Y-94366904D01*
X155606666Y-94366904D02*
X155559047Y-94462142D01*
X155559047Y-94462142D02*
X155511428Y-94509761D01*
X155511428Y-94509761D02*
X155416190Y-94557380D01*
X155416190Y-94557380D02*
X155130476Y-94557380D01*
X155130476Y-94557380D02*
X155035238Y-94509761D01*
X155035238Y-94509761D02*
X154987619Y-94462142D01*
%TO.C,J2*%
X146897380Y-46053333D02*
X147611666Y-46053333D01*
X147611666Y-46053333D02*
X147754523Y-46100952D01*
X147754523Y-46100952D02*
X147849761Y-46196190D01*
X147849761Y-46196190D02*
X147897380Y-46339047D01*
X147897380Y-46339047D02*
X147897380Y-46434285D01*
X146992619Y-45624761D02*
X146945000Y-45577142D01*
X146945000Y-45577142D02*
X146897380Y-45481904D01*
X146897380Y-45481904D02*
X146897380Y-45243809D01*
X146897380Y-45243809D02*
X146945000Y-45148571D01*
X146945000Y-45148571D02*
X146992619Y-45100952D01*
X146992619Y-45100952D02*
X147087857Y-45053333D01*
X147087857Y-45053333D02*
X147183095Y-45053333D01*
X147183095Y-45053333D02*
X147325952Y-45100952D01*
X147325952Y-45100952D02*
X147897380Y-45672380D01*
X147897380Y-45672380D02*
X147897380Y-45053333D01*
%TO.C,J12*%
X72850476Y-50377380D02*
X72850476Y-51091666D01*
X72850476Y-51091666D02*
X72802857Y-51234523D01*
X72802857Y-51234523D02*
X72707619Y-51329761D01*
X72707619Y-51329761D02*
X72564762Y-51377380D01*
X72564762Y-51377380D02*
X72469524Y-51377380D01*
X73850476Y-51377380D02*
X73279048Y-51377380D01*
X73564762Y-51377380D02*
X73564762Y-50377380D01*
X73564762Y-50377380D02*
X73469524Y-50520238D01*
X73469524Y-50520238D02*
X73374286Y-50615476D01*
X73374286Y-50615476D02*
X73279048Y-50663095D01*
X74231429Y-50472619D02*
X74279048Y-50425000D01*
X74279048Y-50425000D02*
X74374286Y-50377380D01*
X74374286Y-50377380D02*
X74612381Y-50377380D01*
X74612381Y-50377380D02*
X74707619Y-50425000D01*
X74707619Y-50425000D02*
X74755238Y-50472619D01*
X74755238Y-50472619D02*
X74802857Y-50567857D01*
X74802857Y-50567857D02*
X74802857Y-50663095D01*
X74802857Y-50663095D02*
X74755238Y-50805952D01*
X74755238Y-50805952D02*
X74183810Y-51377380D01*
X74183810Y-51377380D02*
X74802857Y-51377380D01*
%TO.C,J5*%
X73326666Y-60537380D02*
X73326666Y-61251666D01*
X73326666Y-61251666D02*
X73279047Y-61394523D01*
X73279047Y-61394523D02*
X73183809Y-61489761D01*
X73183809Y-61489761D02*
X73040952Y-61537380D01*
X73040952Y-61537380D02*
X72945714Y-61537380D01*
X74279047Y-60537380D02*
X73802857Y-60537380D01*
X73802857Y-60537380D02*
X73755238Y-61013571D01*
X73755238Y-61013571D02*
X73802857Y-60965952D01*
X73802857Y-60965952D02*
X73898095Y-60918333D01*
X73898095Y-60918333D02*
X74136190Y-60918333D01*
X74136190Y-60918333D02*
X74231428Y-60965952D01*
X74231428Y-60965952D02*
X74279047Y-61013571D01*
X74279047Y-61013571D02*
X74326666Y-61108809D01*
X74326666Y-61108809D02*
X74326666Y-61346904D01*
X74326666Y-61346904D02*
X74279047Y-61442142D01*
X74279047Y-61442142D02*
X74231428Y-61489761D01*
X74231428Y-61489761D02*
X74136190Y-61537380D01*
X74136190Y-61537380D02*
X73898095Y-61537380D01*
X73898095Y-61537380D02*
X73802857Y-61489761D01*
X73802857Y-61489761D02*
X73755238Y-61442142D01*
%TO.C,Q2*%
X134524761Y-79412619D02*
X134429523Y-79365000D01*
X134429523Y-79365000D02*
X134334285Y-79269761D01*
X134334285Y-79269761D02*
X134191428Y-79126904D01*
X134191428Y-79126904D02*
X134096190Y-79079285D01*
X134096190Y-79079285D02*
X134000952Y-79079285D01*
X134048571Y-79317380D02*
X133953333Y-79269761D01*
X133953333Y-79269761D02*
X133858095Y-79174523D01*
X133858095Y-79174523D02*
X133810476Y-78984047D01*
X133810476Y-78984047D02*
X133810476Y-78650714D01*
X133810476Y-78650714D02*
X133858095Y-78460238D01*
X133858095Y-78460238D02*
X133953333Y-78365000D01*
X133953333Y-78365000D02*
X134048571Y-78317380D01*
X134048571Y-78317380D02*
X134239047Y-78317380D01*
X134239047Y-78317380D02*
X134334285Y-78365000D01*
X134334285Y-78365000D02*
X134429523Y-78460238D01*
X134429523Y-78460238D02*
X134477142Y-78650714D01*
X134477142Y-78650714D02*
X134477142Y-78984047D01*
X134477142Y-78984047D02*
X134429523Y-79174523D01*
X134429523Y-79174523D02*
X134334285Y-79269761D01*
X134334285Y-79269761D02*
X134239047Y-79317380D01*
X134239047Y-79317380D02*
X134048571Y-79317380D01*
X134858095Y-78412619D02*
X134905714Y-78365000D01*
X134905714Y-78365000D02*
X135000952Y-78317380D01*
X135000952Y-78317380D02*
X135239047Y-78317380D01*
X135239047Y-78317380D02*
X135334285Y-78365000D01*
X135334285Y-78365000D02*
X135381904Y-78412619D01*
X135381904Y-78412619D02*
X135429523Y-78507857D01*
X135429523Y-78507857D02*
X135429523Y-78603095D01*
X135429523Y-78603095D02*
X135381904Y-78745952D01*
X135381904Y-78745952D02*
X134810476Y-79317380D01*
X134810476Y-79317380D02*
X135429523Y-79317380D01*
%TO.C,Q1*%
X134524761Y-92112619D02*
X134429523Y-92065000D01*
X134429523Y-92065000D02*
X134334285Y-91969761D01*
X134334285Y-91969761D02*
X134191428Y-91826904D01*
X134191428Y-91826904D02*
X134096190Y-91779285D01*
X134096190Y-91779285D02*
X134000952Y-91779285D01*
X134048571Y-92017380D02*
X133953333Y-91969761D01*
X133953333Y-91969761D02*
X133858095Y-91874523D01*
X133858095Y-91874523D02*
X133810476Y-91684047D01*
X133810476Y-91684047D02*
X133810476Y-91350714D01*
X133810476Y-91350714D02*
X133858095Y-91160238D01*
X133858095Y-91160238D02*
X133953333Y-91065000D01*
X133953333Y-91065000D02*
X134048571Y-91017380D01*
X134048571Y-91017380D02*
X134239047Y-91017380D01*
X134239047Y-91017380D02*
X134334285Y-91065000D01*
X134334285Y-91065000D02*
X134429523Y-91160238D01*
X134429523Y-91160238D02*
X134477142Y-91350714D01*
X134477142Y-91350714D02*
X134477142Y-91684047D01*
X134477142Y-91684047D02*
X134429523Y-91874523D01*
X134429523Y-91874523D02*
X134334285Y-91969761D01*
X134334285Y-91969761D02*
X134239047Y-92017380D01*
X134239047Y-92017380D02*
X134048571Y-92017380D01*
X135429523Y-92017380D02*
X134858095Y-92017380D01*
X135143809Y-92017380D02*
X135143809Y-91017380D01*
X135143809Y-91017380D02*
X135048571Y-91160238D01*
X135048571Y-91160238D02*
X134953333Y-91255476D01*
X134953333Y-91255476D02*
X134858095Y-91303095D01*
%TO.C,U1*%
X88148095Y-51662380D02*
X88148095Y-52471904D01*
X88148095Y-52471904D02*
X88195714Y-52567142D01*
X88195714Y-52567142D02*
X88243333Y-52614761D01*
X88243333Y-52614761D02*
X88338571Y-52662380D01*
X88338571Y-52662380D02*
X88529047Y-52662380D01*
X88529047Y-52662380D02*
X88624285Y-52614761D01*
X88624285Y-52614761D02*
X88671904Y-52567142D01*
X88671904Y-52567142D02*
X88719523Y-52471904D01*
X88719523Y-52471904D02*
X88719523Y-51662380D01*
X89719523Y-52662380D02*
X89148095Y-52662380D01*
X89433809Y-52662380D02*
X89433809Y-51662380D01*
X89433809Y-51662380D02*
X89338571Y-51805238D01*
X89338571Y-51805238D02*
X89243333Y-51900476D01*
X89243333Y-51900476D02*
X89148095Y-51948095D01*
%TO.C,R8*%
X121907380Y-91606666D02*
X121431190Y-91939999D01*
X121907380Y-92178094D02*
X120907380Y-92178094D01*
X120907380Y-92178094D02*
X120907380Y-91797142D01*
X120907380Y-91797142D02*
X120955000Y-91701904D01*
X120955000Y-91701904D02*
X121002619Y-91654285D01*
X121002619Y-91654285D02*
X121097857Y-91606666D01*
X121097857Y-91606666D02*
X121240714Y-91606666D01*
X121240714Y-91606666D02*
X121335952Y-91654285D01*
X121335952Y-91654285D02*
X121383571Y-91701904D01*
X121383571Y-91701904D02*
X121431190Y-91797142D01*
X121431190Y-91797142D02*
X121431190Y-92178094D01*
X121335952Y-91035237D02*
X121288333Y-91130475D01*
X121288333Y-91130475D02*
X121240714Y-91178094D01*
X121240714Y-91178094D02*
X121145476Y-91225713D01*
X121145476Y-91225713D02*
X121097857Y-91225713D01*
X121097857Y-91225713D02*
X121002619Y-91178094D01*
X121002619Y-91178094D02*
X120955000Y-91130475D01*
X120955000Y-91130475D02*
X120907380Y-91035237D01*
X120907380Y-91035237D02*
X120907380Y-90844761D01*
X120907380Y-90844761D02*
X120955000Y-90749523D01*
X120955000Y-90749523D02*
X121002619Y-90701904D01*
X121002619Y-90701904D02*
X121097857Y-90654285D01*
X121097857Y-90654285D02*
X121145476Y-90654285D01*
X121145476Y-90654285D02*
X121240714Y-90701904D01*
X121240714Y-90701904D02*
X121288333Y-90749523D01*
X121288333Y-90749523D02*
X121335952Y-90844761D01*
X121335952Y-90844761D02*
X121335952Y-91035237D01*
X121335952Y-91035237D02*
X121383571Y-91130475D01*
X121383571Y-91130475D02*
X121431190Y-91178094D01*
X121431190Y-91178094D02*
X121526428Y-91225713D01*
X121526428Y-91225713D02*
X121716904Y-91225713D01*
X121716904Y-91225713D02*
X121812142Y-91178094D01*
X121812142Y-91178094D02*
X121859761Y-91130475D01*
X121859761Y-91130475D02*
X121907380Y-91035237D01*
X121907380Y-91035237D02*
X121907380Y-90844761D01*
X121907380Y-90844761D02*
X121859761Y-90749523D01*
X121859761Y-90749523D02*
X121812142Y-90701904D01*
X121812142Y-90701904D02*
X121716904Y-90654285D01*
X121716904Y-90654285D02*
X121526428Y-90654285D01*
X121526428Y-90654285D02*
X121431190Y-90701904D01*
X121431190Y-90701904D02*
X121383571Y-90749523D01*
X121383571Y-90749523D02*
X121335952Y-90844761D01*
%TO.C,R7*%
X111747380Y-91606666D02*
X111271190Y-91939999D01*
X111747380Y-92178094D02*
X110747380Y-92178094D01*
X110747380Y-92178094D02*
X110747380Y-91797142D01*
X110747380Y-91797142D02*
X110795000Y-91701904D01*
X110795000Y-91701904D02*
X110842619Y-91654285D01*
X110842619Y-91654285D02*
X110937857Y-91606666D01*
X110937857Y-91606666D02*
X111080714Y-91606666D01*
X111080714Y-91606666D02*
X111175952Y-91654285D01*
X111175952Y-91654285D02*
X111223571Y-91701904D01*
X111223571Y-91701904D02*
X111271190Y-91797142D01*
X111271190Y-91797142D02*
X111271190Y-92178094D01*
X110747380Y-91273332D02*
X110747380Y-90606666D01*
X110747380Y-90606666D02*
X111747380Y-91035237D01*
%TO.C,R6*%
X122667380Y-91606666D02*
X122191190Y-91939999D01*
X122667380Y-92178094D02*
X121667380Y-92178094D01*
X121667380Y-92178094D02*
X121667380Y-91797142D01*
X121667380Y-91797142D02*
X121715000Y-91701904D01*
X121715000Y-91701904D02*
X121762619Y-91654285D01*
X121762619Y-91654285D02*
X121857857Y-91606666D01*
X121857857Y-91606666D02*
X122000714Y-91606666D01*
X122000714Y-91606666D02*
X122095952Y-91654285D01*
X122095952Y-91654285D02*
X122143571Y-91701904D01*
X122143571Y-91701904D02*
X122191190Y-91797142D01*
X122191190Y-91797142D02*
X122191190Y-92178094D01*
X121667380Y-90749523D02*
X121667380Y-90939999D01*
X121667380Y-90939999D02*
X121715000Y-91035237D01*
X121715000Y-91035237D02*
X121762619Y-91082856D01*
X121762619Y-91082856D02*
X121905476Y-91178094D01*
X121905476Y-91178094D02*
X122095952Y-91225713D01*
X122095952Y-91225713D02*
X122476904Y-91225713D01*
X122476904Y-91225713D02*
X122572142Y-91178094D01*
X122572142Y-91178094D02*
X122619761Y-91130475D01*
X122619761Y-91130475D02*
X122667380Y-91035237D01*
X122667380Y-91035237D02*
X122667380Y-90844761D01*
X122667380Y-90844761D02*
X122619761Y-90749523D01*
X122619761Y-90749523D02*
X122572142Y-90701904D01*
X122572142Y-90701904D02*
X122476904Y-90654285D01*
X122476904Y-90654285D02*
X122238809Y-90654285D01*
X122238809Y-90654285D02*
X122143571Y-90701904D01*
X122143571Y-90701904D02*
X122095952Y-90749523D01*
X122095952Y-90749523D02*
X122048333Y-90844761D01*
X122048333Y-90844761D02*
X122048333Y-91035237D01*
X122048333Y-91035237D02*
X122095952Y-91130475D01*
X122095952Y-91130475D02*
X122143571Y-91178094D01*
X122143571Y-91178094D02*
X122238809Y-91225713D01*
%TO.C,R5*%
X112507380Y-91606666D02*
X112031190Y-91939999D01*
X112507380Y-92178094D02*
X111507380Y-92178094D01*
X111507380Y-92178094D02*
X111507380Y-91797142D01*
X111507380Y-91797142D02*
X111555000Y-91701904D01*
X111555000Y-91701904D02*
X111602619Y-91654285D01*
X111602619Y-91654285D02*
X111697857Y-91606666D01*
X111697857Y-91606666D02*
X111840714Y-91606666D01*
X111840714Y-91606666D02*
X111935952Y-91654285D01*
X111935952Y-91654285D02*
X111983571Y-91701904D01*
X111983571Y-91701904D02*
X112031190Y-91797142D01*
X112031190Y-91797142D02*
X112031190Y-92178094D01*
X111507380Y-90701904D02*
X111507380Y-91178094D01*
X111507380Y-91178094D02*
X111983571Y-91225713D01*
X111983571Y-91225713D02*
X111935952Y-91178094D01*
X111935952Y-91178094D02*
X111888333Y-91082856D01*
X111888333Y-91082856D02*
X111888333Y-90844761D01*
X111888333Y-90844761D02*
X111935952Y-90749523D01*
X111935952Y-90749523D02*
X111983571Y-90701904D01*
X111983571Y-90701904D02*
X112078809Y-90654285D01*
X112078809Y-90654285D02*
X112316904Y-90654285D01*
X112316904Y-90654285D02*
X112412142Y-90701904D01*
X112412142Y-90701904D02*
X112459761Y-90749523D01*
X112459761Y-90749523D02*
X112507380Y-90844761D01*
X112507380Y-90844761D02*
X112507380Y-91082856D01*
X112507380Y-91082856D02*
X112459761Y-91178094D01*
X112459761Y-91178094D02*
X112412142Y-91225713D01*
%TO.C,R4*%
X87107380Y-91606666D02*
X86631190Y-91939999D01*
X87107380Y-92178094D02*
X86107380Y-92178094D01*
X86107380Y-92178094D02*
X86107380Y-91797142D01*
X86107380Y-91797142D02*
X86155000Y-91701904D01*
X86155000Y-91701904D02*
X86202619Y-91654285D01*
X86202619Y-91654285D02*
X86297857Y-91606666D01*
X86297857Y-91606666D02*
X86440714Y-91606666D01*
X86440714Y-91606666D02*
X86535952Y-91654285D01*
X86535952Y-91654285D02*
X86583571Y-91701904D01*
X86583571Y-91701904D02*
X86631190Y-91797142D01*
X86631190Y-91797142D02*
X86631190Y-92178094D01*
X86440714Y-90749523D02*
X87107380Y-90749523D01*
X86059761Y-90987618D02*
X86774047Y-91225713D01*
X86774047Y-91225713D02*
X86774047Y-90606666D01*
%TO.C,R3*%
X92187380Y-91606666D02*
X91711190Y-91939999D01*
X92187380Y-92178094D02*
X91187380Y-92178094D01*
X91187380Y-92178094D02*
X91187380Y-91797142D01*
X91187380Y-91797142D02*
X91235000Y-91701904D01*
X91235000Y-91701904D02*
X91282619Y-91654285D01*
X91282619Y-91654285D02*
X91377857Y-91606666D01*
X91377857Y-91606666D02*
X91520714Y-91606666D01*
X91520714Y-91606666D02*
X91615952Y-91654285D01*
X91615952Y-91654285D02*
X91663571Y-91701904D01*
X91663571Y-91701904D02*
X91711190Y-91797142D01*
X91711190Y-91797142D02*
X91711190Y-92178094D01*
X91187380Y-91273332D02*
X91187380Y-90654285D01*
X91187380Y-90654285D02*
X91568333Y-90987618D01*
X91568333Y-90987618D02*
X91568333Y-90844761D01*
X91568333Y-90844761D02*
X91615952Y-90749523D01*
X91615952Y-90749523D02*
X91663571Y-90701904D01*
X91663571Y-90701904D02*
X91758809Y-90654285D01*
X91758809Y-90654285D02*
X91996904Y-90654285D01*
X91996904Y-90654285D02*
X92092142Y-90701904D01*
X92092142Y-90701904D02*
X92139761Y-90749523D01*
X92139761Y-90749523D02*
X92187380Y-90844761D01*
X92187380Y-90844761D02*
X92187380Y-91130475D01*
X92187380Y-91130475D02*
X92139761Y-91225713D01*
X92139761Y-91225713D02*
X92092142Y-91273332D01*
%TO.C,R2*%
X97267380Y-91606666D02*
X96791190Y-91939999D01*
X97267380Y-92178094D02*
X96267380Y-92178094D01*
X96267380Y-92178094D02*
X96267380Y-91797142D01*
X96267380Y-91797142D02*
X96315000Y-91701904D01*
X96315000Y-91701904D02*
X96362619Y-91654285D01*
X96362619Y-91654285D02*
X96457857Y-91606666D01*
X96457857Y-91606666D02*
X96600714Y-91606666D01*
X96600714Y-91606666D02*
X96695952Y-91654285D01*
X96695952Y-91654285D02*
X96743571Y-91701904D01*
X96743571Y-91701904D02*
X96791190Y-91797142D01*
X96791190Y-91797142D02*
X96791190Y-92178094D01*
X96362619Y-91225713D02*
X96315000Y-91178094D01*
X96315000Y-91178094D02*
X96267380Y-91082856D01*
X96267380Y-91082856D02*
X96267380Y-90844761D01*
X96267380Y-90844761D02*
X96315000Y-90749523D01*
X96315000Y-90749523D02*
X96362619Y-90701904D01*
X96362619Y-90701904D02*
X96457857Y-90654285D01*
X96457857Y-90654285D02*
X96553095Y-90654285D01*
X96553095Y-90654285D02*
X96695952Y-90701904D01*
X96695952Y-90701904D02*
X97267380Y-91273332D01*
X97267380Y-91273332D02*
X97267380Y-90654285D01*
%TO.C,R1*%
X102347380Y-91606666D02*
X101871190Y-91939999D01*
X102347380Y-92178094D02*
X101347380Y-92178094D01*
X101347380Y-92178094D02*
X101347380Y-91797142D01*
X101347380Y-91797142D02*
X101395000Y-91701904D01*
X101395000Y-91701904D02*
X101442619Y-91654285D01*
X101442619Y-91654285D02*
X101537857Y-91606666D01*
X101537857Y-91606666D02*
X101680714Y-91606666D01*
X101680714Y-91606666D02*
X101775952Y-91654285D01*
X101775952Y-91654285D02*
X101823571Y-91701904D01*
X101823571Y-91701904D02*
X101871190Y-91797142D01*
X101871190Y-91797142D02*
X101871190Y-92178094D01*
X102347380Y-90654285D02*
X102347380Y-91225713D01*
X102347380Y-90939999D02*
X101347380Y-90939999D01*
X101347380Y-90939999D02*
X101490238Y-91035237D01*
X101490238Y-91035237D02*
X101585476Y-91130475D01*
X101585476Y-91130475D02*
X101633095Y-91225713D01*
%TO.C,M1*%
X86497380Y-46529523D02*
X85497380Y-46529523D01*
X85497380Y-46529523D02*
X86211666Y-46196190D01*
X86211666Y-46196190D02*
X85497380Y-45862857D01*
X85497380Y-45862857D02*
X86497380Y-45862857D01*
X86497380Y-44862857D02*
X86497380Y-45434285D01*
X86497380Y-45148571D02*
X85497380Y-45148571D01*
X85497380Y-45148571D02*
X85640238Y-45243809D01*
X85640238Y-45243809D02*
X85735476Y-45339047D01*
X85735476Y-45339047D02*
X85783095Y-45434285D01*
%TO.C,J43*%
X159235476Y-61377380D02*
X159235476Y-62091666D01*
X159235476Y-62091666D02*
X159187857Y-62234523D01*
X159187857Y-62234523D02*
X159092619Y-62329761D01*
X159092619Y-62329761D02*
X158949762Y-62377380D01*
X158949762Y-62377380D02*
X158854524Y-62377380D01*
X160140238Y-61710714D02*
X160140238Y-62377380D01*
X159902143Y-61329761D02*
X159664048Y-62044047D01*
X159664048Y-62044047D02*
X160283095Y-62044047D01*
X160568810Y-61377380D02*
X161187857Y-61377380D01*
X161187857Y-61377380D02*
X160854524Y-61758333D01*
X160854524Y-61758333D02*
X160997381Y-61758333D01*
X160997381Y-61758333D02*
X161092619Y-61805952D01*
X161092619Y-61805952D02*
X161140238Y-61853571D01*
X161140238Y-61853571D02*
X161187857Y-61948809D01*
X161187857Y-61948809D02*
X161187857Y-62186904D01*
X161187857Y-62186904D02*
X161140238Y-62282142D01*
X161140238Y-62282142D02*
X161092619Y-62329761D01*
X161092619Y-62329761D02*
X160997381Y-62377380D01*
X160997381Y-62377380D02*
X160711667Y-62377380D01*
X160711667Y-62377380D02*
X160616429Y-62329761D01*
X160616429Y-62329761D02*
X160568810Y-62282142D01*
%TO.C,J42*%
X136350476Y-42757380D02*
X136350476Y-43471666D01*
X136350476Y-43471666D02*
X136302857Y-43614523D01*
X136302857Y-43614523D02*
X136207619Y-43709761D01*
X136207619Y-43709761D02*
X136064762Y-43757380D01*
X136064762Y-43757380D02*
X135969524Y-43757380D01*
X137255238Y-43090714D02*
X137255238Y-43757380D01*
X137017143Y-42709761D02*
X136779048Y-43424047D01*
X136779048Y-43424047D02*
X137398095Y-43424047D01*
X137731429Y-42852619D02*
X137779048Y-42805000D01*
X137779048Y-42805000D02*
X137874286Y-42757380D01*
X137874286Y-42757380D02*
X138112381Y-42757380D01*
X138112381Y-42757380D02*
X138207619Y-42805000D01*
X138207619Y-42805000D02*
X138255238Y-42852619D01*
X138255238Y-42852619D02*
X138302857Y-42947857D01*
X138302857Y-42947857D02*
X138302857Y-43043095D01*
X138302857Y-43043095D02*
X138255238Y-43185952D01*
X138255238Y-43185952D02*
X137683810Y-43757380D01*
X137683810Y-43757380D02*
X138302857Y-43757380D01*
%TO.C,J35*%
X110950476Y-42757380D02*
X110950476Y-43471666D01*
X110950476Y-43471666D02*
X110902857Y-43614523D01*
X110902857Y-43614523D02*
X110807619Y-43709761D01*
X110807619Y-43709761D02*
X110664762Y-43757380D01*
X110664762Y-43757380D02*
X110569524Y-43757380D01*
X111331429Y-42757380D02*
X111950476Y-42757380D01*
X111950476Y-42757380D02*
X111617143Y-43138333D01*
X111617143Y-43138333D02*
X111760000Y-43138333D01*
X111760000Y-43138333D02*
X111855238Y-43185952D01*
X111855238Y-43185952D02*
X111902857Y-43233571D01*
X111902857Y-43233571D02*
X111950476Y-43328809D01*
X111950476Y-43328809D02*
X111950476Y-43566904D01*
X111950476Y-43566904D02*
X111902857Y-43662142D01*
X111902857Y-43662142D02*
X111855238Y-43709761D01*
X111855238Y-43709761D02*
X111760000Y-43757380D01*
X111760000Y-43757380D02*
X111474286Y-43757380D01*
X111474286Y-43757380D02*
X111379048Y-43709761D01*
X111379048Y-43709761D02*
X111331429Y-43662142D01*
X112855238Y-42757380D02*
X112379048Y-42757380D01*
X112379048Y-42757380D02*
X112331429Y-43233571D01*
X112331429Y-43233571D02*
X112379048Y-43185952D01*
X112379048Y-43185952D02*
X112474286Y-43138333D01*
X112474286Y-43138333D02*
X112712381Y-43138333D01*
X112712381Y-43138333D02*
X112807619Y-43185952D01*
X112807619Y-43185952D02*
X112855238Y-43233571D01*
X112855238Y-43233571D02*
X112902857Y-43328809D01*
X112902857Y-43328809D02*
X112902857Y-43566904D01*
X112902857Y-43566904D02*
X112855238Y-43662142D01*
X112855238Y-43662142D02*
X112807619Y-43709761D01*
X112807619Y-43709761D02*
X112712381Y-43757380D01*
X112712381Y-43757380D02*
X112474286Y-43757380D01*
X112474286Y-43757380D02*
X112379048Y-43709761D01*
X112379048Y-43709761D02*
X112331429Y-43662142D01*
%TO.C,J15*%
X72850476Y-70697380D02*
X72850476Y-71411666D01*
X72850476Y-71411666D02*
X72802857Y-71554523D01*
X72802857Y-71554523D02*
X72707619Y-71649761D01*
X72707619Y-71649761D02*
X72564762Y-71697380D01*
X72564762Y-71697380D02*
X72469524Y-71697380D01*
X73850476Y-71697380D02*
X73279048Y-71697380D01*
X73564762Y-71697380D02*
X73564762Y-70697380D01*
X73564762Y-70697380D02*
X73469524Y-70840238D01*
X73469524Y-70840238D02*
X73374286Y-70935476D01*
X73374286Y-70935476D02*
X73279048Y-70983095D01*
X74755238Y-70697380D02*
X74279048Y-70697380D01*
X74279048Y-70697380D02*
X74231429Y-71173571D01*
X74231429Y-71173571D02*
X74279048Y-71125952D01*
X74279048Y-71125952D02*
X74374286Y-71078333D01*
X74374286Y-71078333D02*
X74612381Y-71078333D01*
X74612381Y-71078333D02*
X74707619Y-71125952D01*
X74707619Y-71125952D02*
X74755238Y-71173571D01*
X74755238Y-71173571D02*
X74802857Y-71268809D01*
X74802857Y-71268809D02*
X74802857Y-71506904D01*
X74802857Y-71506904D02*
X74755238Y-71602142D01*
X74755238Y-71602142D02*
X74707619Y-71649761D01*
X74707619Y-71649761D02*
X74612381Y-71697380D01*
X74612381Y-71697380D02*
X74374286Y-71697380D01*
X74374286Y-71697380D02*
X74279048Y-71649761D01*
X74279048Y-71649761D02*
X74231429Y-71602142D01*
%TO.C,J13*%
X159210476Y-42757380D02*
X159210476Y-43471666D01*
X159210476Y-43471666D02*
X159162857Y-43614523D01*
X159162857Y-43614523D02*
X159067619Y-43709761D01*
X159067619Y-43709761D02*
X158924762Y-43757380D01*
X158924762Y-43757380D02*
X158829524Y-43757380D01*
X160210476Y-43757380D02*
X159639048Y-43757380D01*
X159924762Y-43757380D02*
X159924762Y-42757380D01*
X159924762Y-42757380D02*
X159829524Y-42900238D01*
X159829524Y-42900238D02*
X159734286Y-42995476D01*
X159734286Y-42995476D02*
X159639048Y-43043095D01*
X160543810Y-42757380D02*
X161162857Y-42757380D01*
X161162857Y-42757380D02*
X160829524Y-43138333D01*
X160829524Y-43138333D02*
X160972381Y-43138333D01*
X160972381Y-43138333D02*
X161067619Y-43185952D01*
X161067619Y-43185952D02*
X161115238Y-43233571D01*
X161115238Y-43233571D02*
X161162857Y-43328809D01*
X161162857Y-43328809D02*
X161162857Y-43566904D01*
X161162857Y-43566904D02*
X161115238Y-43662142D01*
X161115238Y-43662142D02*
X161067619Y-43709761D01*
X161067619Y-43709761D02*
X160972381Y-43757380D01*
X160972381Y-43757380D02*
X160686667Y-43757380D01*
X160686667Y-43757380D02*
X160591429Y-43709761D01*
X160591429Y-43709761D02*
X160543810Y-43662142D01*
%TO.C,J10*%
X154155476Y-77877380D02*
X154155476Y-78591666D01*
X154155476Y-78591666D02*
X154107857Y-78734523D01*
X154107857Y-78734523D02*
X154012619Y-78829761D01*
X154012619Y-78829761D02*
X153869762Y-78877380D01*
X153869762Y-78877380D02*
X153774524Y-78877380D01*
X155155476Y-78877380D02*
X154584048Y-78877380D01*
X154869762Y-78877380D02*
X154869762Y-77877380D01*
X154869762Y-77877380D02*
X154774524Y-78020238D01*
X154774524Y-78020238D02*
X154679286Y-78115476D01*
X154679286Y-78115476D02*
X154584048Y-78163095D01*
X155774524Y-77877380D02*
X155869762Y-77877380D01*
X155869762Y-77877380D02*
X155965000Y-77925000D01*
X155965000Y-77925000D02*
X156012619Y-77972619D01*
X156012619Y-77972619D02*
X156060238Y-78067857D01*
X156060238Y-78067857D02*
X156107857Y-78258333D01*
X156107857Y-78258333D02*
X156107857Y-78496428D01*
X156107857Y-78496428D02*
X156060238Y-78686904D01*
X156060238Y-78686904D02*
X156012619Y-78782142D01*
X156012619Y-78782142D02*
X155965000Y-78829761D01*
X155965000Y-78829761D02*
X155869762Y-78877380D01*
X155869762Y-78877380D02*
X155774524Y-78877380D01*
X155774524Y-78877380D02*
X155679286Y-78829761D01*
X155679286Y-78829761D02*
X155631667Y-78782142D01*
X155631667Y-78782142D02*
X155584048Y-78686904D01*
X155584048Y-78686904D02*
X155536429Y-78496428D01*
X155536429Y-78496428D02*
X155536429Y-78258333D01*
X155536429Y-78258333D02*
X155584048Y-78067857D01*
X155584048Y-78067857D02*
X155631667Y-77972619D01*
X155631667Y-77972619D02*
X155679286Y-77925000D01*
X155679286Y-77925000D02*
X155774524Y-77877380D01*
%TO.C,J9*%
X159686666Y-77877380D02*
X159686666Y-78591666D01*
X159686666Y-78591666D02*
X159639047Y-78734523D01*
X159639047Y-78734523D02*
X159543809Y-78829761D01*
X159543809Y-78829761D02*
X159400952Y-78877380D01*
X159400952Y-78877380D02*
X159305714Y-78877380D01*
X160210476Y-78877380D02*
X160400952Y-78877380D01*
X160400952Y-78877380D02*
X160496190Y-78829761D01*
X160496190Y-78829761D02*
X160543809Y-78782142D01*
X160543809Y-78782142D02*
X160639047Y-78639285D01*
X160639047Y-78639285D02*
X160686666Y-78448809D01*
X160686666Y-78448809D02*
X160686666Y-78067857D01*
X160686666Y-78067857D02*
X160639047Y-77972619D01*
X160639047Y-77972619D02*
X160591428Y-77925000D01*
X160591428Y-77925000D02*
X160496190Y-77877380D01*
X160496190Y-77877380D02*
X160305714Y-77877380D01*
X160305714Y-77877380D02*
X160210476Y-77925000D01*
X160210476Y-77925000D02*
X160162857Y-77972619D01*
X160162857Y-77972619D02*
X160115238Y-78067857D01*
X160115238Y-78067857D02*
X160115238Y-78305952D01*
X160115238Y-78305952D02*
X160162857Y-78401190D01*
X160162857Y-78401190D02*
X160210476Y-78448809D01*
X160210476Y-78448809D02*
X160305714Y-78496428D01*
X160305714Y-78496428D02*
X160496190Y-78496428D01*
X160496190Y-78496428D02*
X160591428Y-78448809D01*
X160591428Y-78448809D02*
X160639047Y-78401190D01*
X160639047Y-78401190D02*
X160686666Y-78305952D01*
%TO.C,J1*%
X70257380Y-46053333D02*
X70971666Y-46053333D01*
X70971666Y-46053333D02*
X71114523Y-46100952D01*
X71114523Y-46100952D02*
X71209761Y-46196190D01*
X71209761Y-46196190D02*
X71257380Y-46339047D01*
X71257380Y-46339047D02*
X71257380Y-46434285D01*
X71257380Y-45053333D02*
X71257380Y-45624761D01*
X71257380Y-45339047D02*
X70257380Y-45339047D01*
X70257380Y-45339047D02*
X70400238Y-45434285D01*
X70400238Y-45434285D02*
X70495476Y-45529523D01*
X70495476Y-45529523D02*
X70543095Y-45624761D01*
%TO.C,C2*%
X144745656Y-90542142D02*
X144698037Y-90589761D01*
X144698037Y-90589761D02*
X144555180Y-90637380D01*
X144555180Y-90637380D02*
X144459942Y-90637380D01*
X144459942Y-90637380D02*
X144317085Y-90589761D01*
X144317085Y-90589761D02*
X144221847Y-90494523D01*
X144221847Y-90494523D02*
X144174228Y-90399285D01*
X144174228Y-90399285D02*
X144126609Y-90208809D01*
X144126609Y-90208809D02*
X144126609Y-90065952D01*
X144126609Y-90065952D02*
X144174228Y-89875476D01*
X144174228Y-89875476D02*
X144221847Y-89780238D01*
X144221847Y-89780238D02*
X144317085Y-89685000D01*
X144317085Y-89685000D02*
X144459942Y-89637380D01*
X144459942Y-89637380D02*
X144555180Y-89637380D01*
X144555180Y-89637380D02*
X144698037Y-89685000D01*
X144698037Y-89685000D02*
X144745656Y-89732619D01*
X145126609Y-89732619D02*
X145174228Y-89685000D01*
X145174228Y-89685000D02*
X145269466Y-89637380D01*
X145269466Y-89637380D02*
X145507561Y-89637380D01*
X145507561Y-89637380D02*
X145602799Y-89685000D01*
X145602799Y-89685000D02*
X145650418Y-89732619D01*
X145650418Y-89732619D02*
X145698037Y-89827857D01*
X145698037Y-89827857D02*
X145698037Y-89923095D01*
X145698037Y-89923095D02*
X145650418Y-90065952D01*
X145650418Y-90065952D02*
X145078990Y-90637380D01*
X145078990Y-90637380D02*
X145698037Y-90637380D01*
%TO.C,C1*%
X144745656Y-77842142D02*
X144698037Y-77889761D01*
X144698037Y-77889761D02*
X144555180Y-77937380D01*
X144555180Y-77937380D02*
X144459942Y-77937380D01*
X144459942Y-77937380D02*
X144317085Y-77889761D01*
X144317085Y-77889761D02*
X144221847Y-77794523D01*
X144221847Y-77794523D02*
X144174228Y-77699285D01*
X144174228Y-77699285D02*
X144126609Y-77508809D01*
X144126609Y-77508809D02*
X144126609Y-77365952D01*
X144126609Y-77365952D02*
X144174228Y-77175476D01*
X144174228Y-77175476D02*
X144221847Y-77080238D01*
X144221847Y-77080238D02*
X144317085Y-76985000D01*
X144317085Y-76985000D02*
X144459942Y-76937380D01*
X144459942Y-76937380D02*
X144555180Y-76937380D01*
X144555180Y-76937380D02*
X144698037Y-76985000D01*
X144698037Y-76985000D02*
X144745656Y-77032619D01*
X145698037Y-77937380D02*
X145126609Y-77937380D01*
X145412323Y-77937380D02*
X145412323Y-76937380D01*
X145412323Y-76937380D02*
X145317085Y-77080238D01*
X145317085Y-77080238D02*
X145221847Y-77175476D01*
X145221847Y-77175476D02*
X145126609Y-77223095D01*
D13*
%TO.C,J14*%
X120650000Y-44390000D02*
X123250000Y-44390000D01*
X118050000Y-47050000D02*
X118050000Y-45720000D01*
X120650000Y-47050000D02*
X120650000Y-44390000D01*
X120650000Y-47050000D02*
X123250000Y-47050000D01*
X123250000Y-47050000D02*
X123250000Y-44390000D01*
X119380000Y-47050000D02*
X118050000Y-47050000D01*
%TO.C,J11*%
X130810000Y-44390000D02*
X133410000Y-44390000D01*
X128210000Y-47050000D02*
X128210000Y-45720000D01*
X130810000Y-47050000D02*
X130810000Y-44390000D01*
X130810000Y-47050000D02*
X133410000Y-47050000D01*
X133410000Y-47050000D02*
X133410000Y-44390000D01*
X129540000Y-47050000D02*
X128210000Y-47050000D01*
%TO.C,J4*%
X161350000Y-97790000D02*
X161350000Y-100390000D01*
X158690000Y-95190000D02*
X160020000Y-95190000D01*
X158690000Y-97790000D02*
X161350000Y-97790000D01*
X158690000Y-97790000D02*
X158690000Y-100390000D01*
X158690000Y-100390000D02*
X161350000Y-100390000D01*
X158690000Y-96520000D02*
X158690000Y-95190000D01*
%TO.C,J3*%
X156270000Y-97790000D02*
X156270000Y-100390000D01*
X153610000Y-95190000D02*
X154940000Y-95190000D01*
X153610000Y-97790000D02*
X156270000Y-97790000D01*
X153610000Y-97790000D02*
X153610000Y-100390000D01*
X153610000Y-100390000D02*
X156270000Y-100390000D01*
X153610000Y-96520000D02*
X153610000Y-95190000D01*
%TO.C,J2*%
X149860000Y-47050000D02*
X148530000Y-47050000D01*
X153730000Y-47050000D02*
X153730000Y-44390000D01*
X151130000Y-47050000D02*
X153730000Y-47050000D01*
X151130000Y-47050000D02*
X151130000Y-44390000D01*
X148530000Y-47050000D02*
X148530000Y-45720000D01*
X151130000Y-44390000D02*
X153730000Y-44390000D01*
%TO.C,J12*%
X72330000Y-53340000D02*
X72330000Y-52010000D01*
X72330000Y-57210000D02*
X74990000Y-57210000D01*
X72330000Y-54610000D02*
X72330000Y-57210000D01*
X72330000Y-54610000D02*
X74990000Y-54610000D01*
X72330000Y-52010000D02*
X73660000Y-52010000D01*
X74990000Y-54610000D02*
X74990000Y-57210000D01*
%TO.C,J5*%
X72330000Y-63500000D02*
X72330000Y-62170000D01*
X72330000Y-67370000D02*
X74990000Y-67370000D01*
X72330000Y-64770000D02*
X72330000Y-67370000D01*
X72330000Y-64770000D02*
X74990000Y-64770000D01*
X72330000Y-62170000D02*
X73660000Y-62170000D01*
X74990000Y-64770000D02*
X74990000Y-67370000D01*
%TO.C,Q2*%
X133290000Y-82550000D02*
X135950000Y-82550000D01*
X133290000Y-79950000D02*
X134620000Y-79950000D01*
X135950000Y-82550000D02*
X135950000Y-87690000D01*
X133290000Y-81280000D02*
X133290000Y-79950000D01*
X133290000Y-82550000D02*
X133290000Y-87690000D01*
X133290000Y-87690000D02*
X135950000Y-87690000D01*
%TO.C,Q1*%
X133290000Y-95250000D02*
X135950000Y-95250000D01*
X133290000Y-92650000D02*
X134620000Y-92650000D01*
X135950000Y-95250000D02*
X135950000Y-100390000D01*
X133290000Y-93980000D02*
X133290000Y-92650000D01*
X133290000Y-95250000D02*
X133290000Y-100390000D01*
X133290000Y-100390000D02*
X135950000Y-100390000D01*
%TO.C,U1*%
X87910000Y-53295000D02*
G75*
G03*
X89910000Y-53295000I1000000J0D01*
G01*
X87910000Y-53295000D02*
X86260000Y-53295000D01*
X86260000Y-73735000D02*
X91560000Y-73735000D01*
X91560000Y-73735000D02*
X91560000Y-53295000D01*
X86260000Y-53295000D02*
X86260000Y-73735000D01*
X91560000Y-53295000D02*
X89910000Y-53295000D01*
%TO.C,R8*%
X123020000Y-96510000D02*
X122540000Y-96510000D01*
X126380000Y-86370000D02*
X125900000Y-86370000D01*
X122540000Y-96510000D02*
X122540000Y-86370000D01*
X125900000Y-96510000D02*
X126380000Y-96510000D01*
X126380000Y-96510000D02*
X126380000Y-86370000D01*
X122540000Y-86370000D02*
X123020000Y-86370000D01*
%TO.C,R7*%
X112860000Y-96510000D02*
X112380000Y-96510000D01*
X116220000Y-86370000D02*
X115740000Y-86370000D01*
X112380000Y-96510000D02*
X112380000Y-86370000D01*
X115740000Y-96510000D02*
X116220000Y-96510000D01*
X116220000Y-96510000D02*
X116220000Y-86370000D01*
X112380000Y-86370000D02*
X112860000Y-86370000D01*
%TO.C,R6*%
X120820000Y-86370000D02*
X121300000Y-86370000D01*
X117460000Y-96510000D02*
X117940000Y-96510000D01*
X121300000Y-86370000D02*
X121300000Y-96510000D01*
X117940000Y-86370000D02*
X117460000Y-86370000D01*
X117460000Y-86370000D02*
X117460000Y-96510000D01*
X121300000Y-96510000D02*
X120820000Y-96510000D01*
%TO.C,R5*%
X110660000Y-86370000D02*
X111140000Y-86370000D01*
X107300000Y-96510000D02*
X107780000Y-96510000D01*
X111140000Y-86370000D02*
X111140000Y-96510000D01*
X107780000Y-86370000D02*
X107300000Y-86370000D01*
X107300000Y-86370000D02*
X107300000Y-96510000D01*
X111140000Y-96510000D02*
X110660000Y-96510000D01*
%TO.C,R4*%
X85260000Y-86370000D02*
X85740000Y-86370000D01*
X81900000Y-96510000D02*
X82380000Y-96510000D01*
X85740000Y-86370000D02*
X85740000Y-96510000D01*
X82380000Y-86370000D02*
X81900000Y-86370000D01*
X81900000Y-86370000D02*
X81900000Y-96510000D01*
X85740000Y-96510000D02*
X85260000Y-96510000D01*
%TO.C,R3*%
X90340000Y-86370000D02*
X90820000Y-86370000D01*
X86980000Y-96510000D02*
X87460000Y-96510000D01*
X90820000Y-86370000D02*
X90820000Y-96510000D01*
X87460000Y-86370000D02*
X86980000Y-86370000D01*
X86980000Y-86370000D02*
X86980000Y-96510000D01*
X90820000Y-96510000D02*
X90340000Y-96510000D01*
%TO.C,R2*%
X95420000Y-86370000D02*
X95900000Y-86370000D01*
X92060000Y-96510000D02*
X92540000Y-96510000D01*
X95900000Y-86370000D02*
X95900000Y-96510000D01*
X92540000Y-86370000D02*
X92060000Y-86370000D01*
X92060000Y-86370000D02*
X92060000Y-96510000D01*
X95900000Y-96510000D02*
X95420000Y-96510000D01*
%TO.C,R1*%
X100500000Y-86370000D02*
X100980000Y-86370000D01*
X97140000Y-96510000D02*
X97620000Y-96510000D01*
X100980000Y-86370000D02*
X100980000Y-96510000D01*
X97620000Y-86370000D02*
X97140000Y-86370000D01*
X97140000Y-86370000D02*
X97140000Y-96510000D01*
X100980000Y-96510000D02*
X100500000Y-96510000D01*
%TO.C,M1*%
X97850000Y-47050000D02*
X97850000Y-44390000D01*
X90170000Y-44390000D02*
X97850000Y-44390000D01*
X90170000Y-47050000D02*
X90170000Y-44390000D01*
X90170000Y-47050000D02*
X97850000Y-47050000D01*
X87570000Y-44390000D02*
X88900000Y-44390000D01*
X87570000Y-45720000D02*
X87570000Y-44390000D01*
%TO.C,J43*%
X158715000Y-73730000D02*
X161375000Y-73730000D01*
X161375000Y-66050000D02*
X161375000Y-73730000D01*
X158715000Y-66050000D02*
X161375000Y-66050000D01*
X158715000Y-66050000D02*
X158715000Y-73730000D01*
X161375000Y-63450000D02*
X161375000Y-64780000D01*
X160045000Y-63450000D02*
X161375000Y-63450000D01*
%TO.C,J42*%
X135830000Y-45720000D02*
X135830000Y-44390000D01*
X135830000Y-46990000D02*
X135830000Y-47050000D01*
X138490000Y-46990000D02*
X138490000Y-47050000D01*
X135830000Y-47050000D02*
X138490000Y-47050000D01*
X135830000Y-46990000D02*
X138490000Y-46990000D01*
X135830000Y-44390000D02*
X137160000Y-44390000D01*
%TO.C,J35*%
X110430000Y-44390000D02*
X111760000Y-44390000D01*
X110430000Y-46990000D02*
X113090000Y-46990000D01*
X110430000Y-47050000D02*
X113090000Y-47050000D01*
X113090000Y-46990000D02*
X113090000Y-47050000D01*
X110430000Y-46990000D02*
X110430000Y-47050000D01*
X110430000Y-45720000D02*
X110430000Y-44390000D01*
%TO.C,J15*%
X72330000Y-74930000D02*
X72330000Y-82610000D01*
X72330000Y-72330000D02*
X73660000Y-72330000D01*
X72330000Y-74930000D02*
X74990000Y-74930000D01*
X72330000Y-82610000D02*
X74990000Y-82610000D01*
X72330000Y-73660000D02*
X72330000Y-72330000D01*
X74990000Y-74930000D02*
X74990000Y-82610000D01*
%TO.C,J13*%
X161350000Y-46990000D02*
X161350000Y-59750000D01*
X158690000Y-59750000D02*
X161350000Y-59750000D01*
X158690000Y-46990000D02*
X161350000Y-46990000D01*
X158690000Y-44390000D02*
X160020000Y-44390000D01*
X158690000Y-45720000D02*
X158690000Y-44390000D01*
X158690000Y-46990000D02*
X158690000Y-59750000D01*
%TO.C,J10*%
X154965000Y-79950000D02*
X156295000Y-79950000D01*
X156295000Y-79950000D02*
X156295000Y-81280000D01*
X153635000Y-82550000D02*
X153635000Y-90230000D01*
X153635000Y-82550000D02*
X156295000Y-82550000D01*
X156295000Y-82550000D02*
X156295000Y-90230000D01*
X153635000Y-90230000D02*
X156295000Y-90230000D01*
%TO.C,J9*%
X160020000Y-79950000D02*
X161350000Y-79950000D01*
X161350000Y-79950000D02*
X161350000Y-81280000D01*
X158690000Y-82550000D02*
X158690000Y-90230000D01*
X158690000Y-82550000D02*
X161350000Y-82550000D01*
X161350000Y-82550000D02*
X161350000Y-90230000D01*
X158690000Y-90230000D02*
X161350000Y-90230000D01*
%TO.C,J1*%
X82610000Y-47050000D02*
X82610000Y-44390000D01*
X74930000Y-44390000D02*
X82610000Y-44390000D01*
X74930000Y-47050000D02*
X74930000Y-44390000D01*
X74930000Y-47050000D02*
X82610000Y-47050000D01*
X72330000Y-44390000D02*
X73660000Y-44390000D01*
X72330000Y-45720000D02*
X72330000Y-44390000D01*
%TO.C,C2*%
X139949783Y-97780000D02*
G75*
G03*
X139949783Y-95260000I4962540J1260000D01*
G01*
X149953323Y-95658000D02*
X149953323Y-97382000D01*
X146153323Y-91592000D02*
X146153323Y-101448000D01*
X148673323Y-93084000D02*
X148673323Y-95279000D01*
X148953323Y-93414000D02*
X148953323Y-95279000D01*
X139932677Y-93145000D02*
X139932677Y-94145000D01*
X147433323Y-92103000D02*
X147433323Y-95279000D01*
X148713323Y-97761000D02*
X148713323Y-99912000D01*
X149793323Y-97761000D02*
X149793323Y-98030000D01*
X149473323Y-97761000D02*
X149473323Y-98809000D01*
X148793323Y-97761000D02*
X148793323Y-99821000D01*
X147913323Y-92410000D02*
X147913323Y-95279000D01*
X146913323Y-91846000D02*
X146913323Y-101194000D01*
X148313323Y-92731000D02*
X148313323Y-95279000D01*
X146833323Y-91813000D02*
X146833323Y-101227000D01*
X147753323Y-97761000D02*
X147753323Y-100741000D01*
X147913323Y-97761000D02*
X147913323Y-100630000D01*
X149633323Y-94576000D02*
X149633323Y-95279000D01*
X148993323Y-93466000D02*
X148993323Y-95279000D01*
X146873323Y-91830000D02*
X146873323Y-101210000D01*
X139432677Y-93645000D02*
X140432677Y-93645000D01*
X149433323Y-94155000D02*
X149433323Y-95279000D01*
X148513323Y-92919000D02*
X148513323Y-95279000D01*
X149033323Y-97761000D02*
X149033323Y-99520000D01*
X145192323Y-91447000D02*
X145192323Y-101593000D01*
X149193323Y-97761000D02*
X149193323Y-99290000D01*
X145232323Y-91450000D02*
X145232323Y-101590000D01*
X146993323Y-91881000D02*
X146993323Y-101159000D01*
X148633323Y-97761000D02*
X148633323Y-99998000D01*
X147393323Y-92080000D02*
X147393323Y-100960000D01*
X147033323Y-91899000D02*
X147033323Y-101141000D01*
X147153323Y-91956000D02*
X147153323Y-101084000D01*
X149313323Y-93941000D02*
X149313323Y-95279000D01*
X147633323Y-92222000D02*
X147633323Y-95279000D01*
X149713323Y-94778000D02*
X149713323Y-95279000D01*
X148153323Y-97761000D02*
X148153323Y-100445000D01*
X147553323Y-97761000D02*
X147553323Y-100867000D01*
X149233323Y-93811000D02*
X149233323Y-95279000D01*
X148833323Y-97761000D02*
X148833323Y-99774000D01*
X148913323Y-97761000D02*
X148913323Y-99676000D01*
X148753323Y-97761000D02*
X148753323Y-99867000D01*
X148273323Y-97761000D02*
X148273323Y-100344000D01*
X145072323Y-91442000D02*
X145072323Y-101598000D01*
X145793323Y-91516000D02*
X145793323Y-101524000D01*
X148873323Y-97761000D02*
X148873323Y-99726000D01*
X149913323Y-95458000D02*
X149913323Y-97582000D01*
X145392323Y-91462000D02*
X145392323Y-101578000D01*
X146073323Y-91573000D02*
X146073323Y-101467000D01*
X145432323Y-91466000D02*
X145432323Y-101574000D01*
X149753323Y-94890000D02*
X149753323Y-95279000D01*
X147233323Y-91995000D02*
X147233323Y-101045000D01*
X148953323Y-97761000D02*
X148953323Y-99626000D01*
X149153323Y-93690000D02*
X149153323Y-95279000D01*
X146633323Y-91737000D02*
X146633323Y-101303000D01*
X149993323Y-95921000D02*
X149993323Y-97119000D01*
X147273323Y-92016000D02*
X147273323Y-101024000D01*
X146673323Y-91752000D02*
X146673323Y-101288000D01*
X149833323Y-97761000D02*
X149833323Y-97898000D01*
X145272323Y-91452000D02*
X145272323Y-101588000D01*
X148033323Y-92500000D02*
X148033323Y-95279000D01*
X149673323Y-94674000D02*
X149673323Y-95279000D01*
X147953323Y-97761000D02*
X147953323Y-100600000D01*
X149233323Y-97761000D02*
X149233323Y-99229000D01*
X148913323Y-93364000D02*
X148913323Y-95279000D01*
X148513323Y-97761000D02*
X148513323Y-100121000D01*
X146433323Y-91670000D02*
X146433323Y-101370000D01*
X148353323Y-97761000D02*
X148353323Y-100273000D01*
X148193323Y-92628000D02*
X148193323Y-95279000D01*
X145753323Y-91509000D02*
X145753323Y-101531000D01*
X145913323Y-91538000D02*
X145913323Y-101502000D01*
X147553323Y-92173000D02*
X147553323Y-95279000D01*
X147993323Y-97761000D02*
X147993323Y-100570000D01*
X144952323Y-91440000D02*
X144952323Y-101600000D01*
X147113323Y-91936000D02*
X147113323Y-101104000D01*
X147833323Y-92354000D02*
X147833323Y-95279000D01*
X149273323Y-97761000D02*
X149273323Y-99165000D01*
X148393323Y-92804000D02*
X148393323Y-95279000D01*
X148313323Y-97761000D02*
X148313323Y-100309000D01*
X149193323Y-93750000D02*
X149193323Y-95279000D01*
X147753323Y-92299000D02*
X147753323Y-95279000D01*
X149713323Y-97761000D02*
X149713323Y-98262000D01*
X147793323Y-97761000D02*
X147793323Y-100714000D01*
X145472323Y-91470000D02*
X145472323Y-101570000D01*
X146793323Y-91797000D02*
X146793323Y-101243000D01*
X145152323Y-91445000D02*
X145152323Y-101595000D01*
X145032323Y-91441000D02*
X145032323Y-101599000D01*
X148473323Y-97761000D02*
X148473323Y-100160000D01*
X148753323Y-93173000D02*
X148753323Y-95279000D01*
X147713323Y-92273000D02*
X147713323Y-95279000D01*
X146233323Y-91613000D02*
X146233323Y-101427000D01*
X147593323Y-92197000D02*
X147593323Y-95279000D01*
X149393323Y-97761000D02*
X149393323Y-98959000D01*
X144912323Y-91440000D02*
X144912323Y-101600000D01*
X146593323Y-91723000D02*
X146593323Y-101317000D01*
X147513323Y-92149000D02*
X147513323Y-95279000D01*
X149753323Y-97761000D02*
X149753323Y-98150000D01*
X149593323Y-97761000D02*
X149593323Y-98557000D01*
X145112323Y-91443000D02*
X145112323Y-101597000D01*
X147633323Y-97761000D02*
X147633323Y-100818000D01*
X146473323Y-91683000D02*
X146473323Y-101357000D01*
X148473323Y-92880000D02*
X148473323Y-95279000D01*
X146353323Y-91646000D02*
X146353323Y-101394000D01*
X149313323Y-97761000D02*
X149313323Y-99099000D01*
X147873323Y-97761000D02*
X147873323Y-100658000D01*
X149433323Y-97761000D02*
X149433323Y-98885000D01*
X148633323Y-93042000D02*
X148633323Y-95279000D01*
X145673323Y-91496000D02*
X145673323Y-101544000D01*
X148553323Y-92959000D02*
X148553323Y-95279000D01*
X146393323Y-91658000D02*
X146393323Y-101382000D01*
X147513323Y-97761000D02*
X147513323Y-100891000D01*
X146313323Y-91635000D02*
X146313323Y-101405000D01*
X144992323Y-91440000D02*
X144992323Y-101600000D01*
X145833323Y-91523000D02*
X145833323Y-101517000D01*
X149833323Y-95142000D02*
X149833323Y-95279000D01*
X148993323Y-97761000D02*
X148993323Y-99574000D01*
X148873323Y-93314000D02*
X148873323Y-95279000D01*
X147793323Y-92326000D02*
X147793323Y-95279000D01*
X146553323Y-91709000D02*
X146553323Y-101331000D01*
X149113323Y-97761000D02*
X149113323Y-99409000D01*
X145592323Y-91485000D02*
X145592323Y-101555000D01*
X148393323Y-97761000D02*
X148393323Y-100236000D01*
X148233323Y-92662000D02*
X148233323Y-95279000D01*
X147433323Y-97761000D02*
X147433323Y-100937000D01*
X147993323Y-92470000D02*
X147993323Y-95279000D01*
X148073323Y-92531000D02*
X148073323Y-95279000D01*
X145352323Y-91458000D02*
X145352323Y-101582000D01*
X149593323Y-94483000D02*
X149593323Y-95279000D01*
X147353323Y-92058000D02*
X147353323Y-100982000D01*
X147673323Y-92247000D02*
X147673323Y-95279000D01*
X147313323Y-92037000D02*
X147313323Y-101003000D01*
X147713323Y-97761000D02*
X147713323Y-100767000D01*
X148673323Y-97761000D02*
X148673323Y-99956000D01*
X146513323Y-91696000D02*
X146513323Y-101344000D01*
X148273323Y-92696000D02*
X148273323Y-95279000D01*
X148433323Y-92841000D02*
X148433323Y-95279000D01*
X149793323Y-95010000D02*
X149793323Y-95279000D01*
X149353323Y-94010000D02*
X149353323Y-95279000D01*
X147953323Y-92440000D02*
X147953323Y-95279000D01*
X148233323Y-97761000D02*
X148233323Y-100378000D01*
X145993323Y-91555000D02*
X145993323Y-101485000D01*
X149033323Y-93520000D02*
X149033323Y-95279000D01*
X146713323Y-91766000D02*
X146713323Y-101274000D01*
X147473323Y-92125000D02*
X147473323Y-95279000D01*
X146273323Y-91623000D02*
X146273323Y-101417000D01*
X148113323Y-97761000D02*
X148113323Y-100477000D01*
X149393323Y-94081000D02*
X149393323Y-95279000D01*
X149473323Y-94231000D02*
X149473323Y-95279000D01*
X147473323Y-97761000D02*
X147473323Y-100915000D01*
X145552323Y-91480000D02*
X145552323Y-101560000D01*
X148593323Y-97761000D02*
X148593323Y-100040000D01*
X149553323Y-97761000D02*
X149553323Y-98645000D01*
X149513323Y-97761000D02*
X149513323Y-98729000D01*
X145713323Y-91502000D02*
X145713323Y-101538000D01*
X148833323Y-93266000D02*
X148833323Y-95279000D01*
X148153323Y-92595000D02*
X148153323Y-95279000D01*
X145633323Y-91490000D02*
X145633323Y-101550000D01*
X146753323Y-91782000D02*
X146753323Y-101258000D01*
X149673323Y-97761000D02*
X149673323Y-98366000D01*
X148793323Y-93219000D02*
X148793323Y-95279000D01*
X148593323Y-93000000D02*
X148593323Y-95279000D01*
X146113323Y-91582000D02*
X146113323Y-101458000D01*
X145873323Y-91530000D02*
X145873323Y-101510000D01*
X148713323Y-93128000D02*
X148713323Y-95279000D01*
X145312323Y-91455000D02*
X145312323Y-101585000D01*
X148073323Y-97761000D02*
X148073323Y-100509000D01*
X147593323Y-97761000D02*
X147593323Y-100843000D01*
X147833323Y-97761000D02*
X147833323Y-100686000D01*
X145512323Y-91475000D02*
X145512323Y-101565000D01*
X149353323Y-97761000D02*
X149353323Y-99030000D01*
X145953323Y-91546000D02*
X145953323Y-101494000D01*
X146193323Y-91602000D02*
X146193323Y-101438000D01*
X148433323Y-97761000D02*
X148433323Y-100199000D01*
X148553323Y-97761000D02*
X148553323Y-100081000D01*
X149073323Y-93575000D02*
X149073323Y-95279000D01*
X148033323Y-97761000D02*
X148033323Y-100540000D01*
X148353323Y-92767000D02*
X148353323Y-95279000D01*
X147193323Y-91975000D02*
X147193323Y-101065000D01*
X149153323Y-97761000D02*
X149153323Y-99350000D01*
X149073323Y-97761000D02*
X149073323Y-99465000D01*
X147873323Y-92382000D02*
X147873323Y-95279000D01*
X146033323Y-91564000D02*
X146033323Y-101476000D01*
X147673323Y-97761000D02*
X147673323Y-100793000D01*
X149273323Y-93875000D02*
X149273323Y-95279000D01*
X149113323Y-93631000D02*
X149113323Y-95279000D01*
X146953323Y-91863000D02*
X146953323Y-101177000D01*
X149553323Y-94395000D02*
X149553323Y-95279000D01*
X147073323Y-91917000D02*
X147073323Y-101123000D01*
X148193323Y-97761000D02*
X148193323Y-100412000D01*
X149513323Y-94311000D02*
X149513323Y-95279000D01*
X149633323Y-97761000D02*
X149633323Y-98464000D01*
X148113323Y-92563000D02*
X148113323Y-95279000D01*
%TO.C,C1*%
X139949783Y-85080000D02*
G75*
G03*
X139949783Y-82560000I4962540J1260000D01*
G01*
X149953323Y-82958000D02*
X149953323Y-84682000D01*
X146153323Y-78892000D02*
X146153323Y-88748000D01*
X148673323Y-80384000D02*
X148673323Y-82579000D01*
X148953323Y-80714000D02*
X148953323Y-82579000D01*
X139932677Y-80445000D02*
X139932677Y-81445000D01*
X147433323Y-79403000D02*
X147433323Y-82579000D01*
X148713323Y-85061000D02*
X148713323Y-87212000D01*
X149793323Y-85061000D02*
X149793323Y-85330000D01*
X149473323Y-85061000D02*
X149473323Y-86109000D01*
X148793323Y-85061000D02*
X148793323Y-87121000D01*
X147913323Y-79710000D02*
X147913323Y-82579000D01*
X146913323Y-79146000D02*
X146913323Y-88494000D01*
X148313323Y-80031000D02*
X148313323Y-82579000D01*
X146833323Y-79113000D02*
X146833323Y-88527000D01*
X147753323Y-85061000D02*
X147753323Y-88041000D01*
X147913323Y-85061000D02*
X147913323Y-87930000D01*
X149633323Y-81876000D02*
X149633323Y-82579000D01*
X148993323Y-80766000D02*
X148993323Y-82579000D01*
X146873323Y-79130000D02*
X146873323Y-88510000D01*
X139432677Y-80945000D02*
X140432677Y-80945000D01*
X149433323Y-81455000D02*
X149433323Y-82579000D01*
X148513323Y-80219000D02*
X148513323Y-82579000D01*
X149033323Y-85061000D02*
X149033323Y-86820000D01*
X145192323Y-78747000D02*
X145192323Y-88893000D01*
X149193323Y-85061000D02*
X149193323Y-86590000D01*
X145232323Y-78750000D02*
X145232323Y-88890000D01*
X146993323Y-79181000D02*
X146993323Y-88459000D01*
X148633323Y-85061000D02*
X148633323Y-87298000D01*
X147393323Y-79380000D02*
X147393323Y-88260000D01*
X147033323Y-79199000D02*
X147033323Y-88441000D01*
X147153323Y-79256000D02*
X147153323Y-88384000D01*
X149313323Y-81241000D02*
X149313323Y-82579000D01*
X147633323Y-79522000D02*
X147633323Y-82579000D01*
X149713323Y-82078000D02*
X149713323Y-82579000D01*
X148153323Y-85061000D02*
X148153323Y-87745000D01*
X147553323Y-85061000D02*
X147553323Y-88167000D01*
X149233323Y-81111000D02*
X149233323Y-82579000D01*
X148833323Y-85061000D02*
X148833323Y-87074000D01*
X148913323Y-85061000D02*
X148913323Y-86976000D01*
X148753323Y-85061000D02*
X148753323Y-87167000D01*
X148273323Y-85061000D02*
X148273323Y-87644000D01*
X145072323Y-78742000D02*
X145072323Y-88898000D01*
X145793323Y-78816000D02*
X145793323Y-88824000D01*
X148873323Y-85061000D02*
X148873323Y-87026000D01*
X149913323Y-82758000D02*
X149913323Y-84882000D01*
X145392323Y-78762000D02*
X145392323Y-88878000D01*
X146073323Y-78873000D02*
X146073323Y-88767000D01*
X145432323Y-78766000D02*
X145432323Y-88874000D01*
X149753323Y-82190000D02*
X149753323Y-82579000D01*
X147233323Y-79295000D02*
X147233323Y-88345000D01*
X148953323Y-85061000D02*
X148953323Y-86926000D01*
X149153323Y-80990000D02*
X149153323Y-82579000D01*
X146633323Y-79037000D02*
X146633323Y-88603000D01*
X149993323Y-83221000D02*
X149993323Y-84419000D01*
X147273323Y-79316000D02*
X147273323Y-88324000D01*
X146673323Y-79052000D02*
X146673323Y-88588000D01*
X149833323Y-85061000D02*
X149833323Y-85198000D01*
X145272323Y-78752000D02*
X145272323Y-88888000D01*
X148033323Y-79800000D02*
X148033323Y-82579000D01*
X149673323Y-81974000D02*
X149673323Y-82579000D01*
X147953323Y-85061000D02*
X147953323Y-87900000D01*
X149233323Y-85061000D02*
X149233323Y-86529000D01*
X148913323Y-80664000D02*
X148913323Y-82579000D01*
X148513323Y-85061000D02*
X148513323Y-87421000D01*
X146433323Y-78970000D02*
X146433323Y-88670000D01*
X148353323Y-85061000D02*
X148353323Y-87573000D01*
X148193323Y-79928000D02*
X148193323Y-82579000D01*
X145753323Y-78809000D02*
X145753323Y-88831000D01*
X145913323Y-78838000D02*
X145913323Y-88802000D01*
X147553323Y-79473000D02*
X147553323Y-82579000D01*
X147993323Y-85061000D02*
X147993323Y-87870000D01*
X144952323Y-78740000D02*
X144952323Y-88900000D01*
X147113323Y-79236000D02*
X147113323Y-88404000D01*
X147833323Y-79654000D02*
X147833323Y-82579000D01*
X149273323Y-85061000D02*
X149273323Y-86465000D01*
X148393323Y-80104000D02*
X148393323Y-82579000D01*
X148313323Y-85061000D02*
X148313323Y-87609000D01*
X149193323Y-81050000D02*
X149193323Y-82579000D01*
X147753323Y-79599000D02*
X147753323Y-82579000D01*
X149713323Y-85061000D02*
X149713323Y-85562000D01*
X147793323Y-85061000D02*
X147793323Y-88014000D01*
X145472323Y-78770000D02*
X145472323Y-88870000D01*
X146793323Y-79097000D02*
X146793323Y-88543000D01*
X145152323Y-78745000D02*
X145152323Y-88895000D01*
X145032323Y-78741000D02*
X145032323Y-88899000D01*
X148473323Y-85061000D02*
X148473323Y-87460000D01*
X148753323Y-80473000D02*
X148753323Y-82579000D01*
X147713323Y-79573000D02*
X147713323Y-82579000D01*
X146233323Y-78913000D02*
X146233323Y-88727000D01*
X147593323Y-79497000D02*
X147593323Y-82579000D01*
X149393323Y-85061000D02*
X149393323Y-86259000D01*
X144912323Y-78740000D02*
X144912323Y-88900000D01*
X146593323Y-79023000D02*
X146593323Y-88617000D01*
X147513323Y-79449000D02*
X147513323Y-82579000D01*
X149753323Y-85061000D02*
X149753323Y-85450000D01*
X149593323Y-85061000D02*
X149593323Y-85857000D01*
X145112323Y-78743000D02*
X145112323Y-88897000D01*
X147633323Y-85061000D02*
X147633323Y-88118000D01*
X146473323Y-78983000D02*
X146473323Y-88657000D01*
X148473323Y-80180000D02*
X148473323Y-82579000D01*
X146353323Y-78946000D02*
X146353323Y-88694000D01*
X149313323Y-85061000D02*
X149313323Y-86399000D01*
X147873323Y-85061000D02*
X147873323Y-87958000D01*
X149433323Y-85061000D02*
X149433323Y-86185000D01*
X148633323Y-80342000D02*
X148633323Y-82579000D01*
X145673323Y-78796000D02*
X145673323Y-88844000D01*
X148553323Y-80259000D02*
X148553323Y-82579000D01*
X146393323Y-78958000D02*
X146393323Y-88682000D01*
X147513323Y-85061000D02*
X147513323Y-88191000D01*
X146313323Y-78935000D02*
X146313323Y-88705000D01*
X144992323Y-78740000D02*
X144992323Y-88900000D01*
X145833323Y-78823000D02*
X145833323Y-88817000D01*
X149833323Y-82442000D02*
X149833323Y-82579000D01*
X148993323Y-85061000D02*
X148993323Y-86874000D01*
X148873323Y-80614000D02*
X148873323Y-82579000D01*
X147793323Y-79626000D02*
X147793323Y-82579000D01*
X146553323Y-79009000D02*
X146553323Y-88631000D01*
X149113323Y-85061000D02*
X149113323Y-86709000D01*
X145592323Y-78785000D02*
X145592323Y-88855000D01*
X148393323Y-85061000D02*
X148393323Y-87536000D01*
X148233323Y-79962000D02*
X148233323Y-82579000D01*
X147433323Y-85061000D02*
X147433323Y-88237000D01*
X147993323Y-79770000D02*
X147993323Y-82579000D01*
X148073323Y-79831000D02*
X148073323Y-82579000D01*
X145352323Y-78758000D02*
X145352323Y-88882000D01*
X149593323Y-81783000D02*
X149593323Y-82579000D01*
X147353323Y-79358000D02*
X147353323Y-88282000D01*
X147673323Y-79547000D02*
X147673323Y-82579000D01*
X147313323Y-79337000D02*
X147313323Y-88303000D01*
X147713323Y-85061000D02*
X147713323Y-88067000D01*
X148673323Y-85061000D02*
X148673323Y-87256000D01*
X146513323Y-78996000D02*
X146513323Y-88644000D01*
X148273323Y-79996000D02*
X148273323Y-82579000D01*
X148433323Y-80141000D02*
X148433323Y-82579000D01*
X149793323Y-82310000D02*
X149793323Y-82579000D01*
X149353323Y-81310000D02*
X149353323Y-82579000D01*
X147953323Y-79740000D02*
X147953323Y-82579000D01*
X148233323Y-85061000D02*
X148233323Y-87678000D01*
X145993323Y-78855000D02*
X145993323Y-88785000D01*
X149033323Y-80820000D02*
X149033323Y-82579000D01*
X146713323Y-79066000D02*
X146713323Y-88574000D01*
X147473323Y-79425000D02*
X147473323Y-82579000D01*
X146273323Y-78923000D02*
X146273323Y-88717000D01*
X148113323Y-85061000D02*
X148113323Y-87777000D01*
X149393323Y-81381000D02*
X149393323Y-82579000D01*
X149473323Y-81531000D02*
X149473323Y-82579000D01*
X147473323Y-85061000D02*
X147473323Y-88215000D01*
X145552323Y-78780000D02*
X145552323Y-88860000D01*
X148593323Y-85061000D02*
X148593323Y-87340000D01*
X149553323Y-85061000D02*
X149553323Y-85945000D01*
X149513323Y-85061000D02*
X149513323Y-86029000D01*
X145713323Y-78802000D02*
X145713323Y-88838000D01*
X148833323Y-80566000D02*
X148833323Y-82579000D01*
X148153323Y-79895000D02*
X148153323Y-82579000D01*
X145633323Y-78790000D02*
X145633323Y-88850000D01*
X146753323Y-79082000D02*
X146753323Y-88558000D01*
X149673323Y-85061000D02*
X149673323Y-85666000D01*
X148793323Y-80519000D02*
X148793323Y-82579000D01*
X148593323Y-80300000D02*
X148593323Y-82579000D01*
X146113323Y-78882000D02*
X146113323Y-88758000D01*
X145873323Y-78830000D02*
X145873323Y-88810000D01*
X148713323Y-80428000D02*
X148713323Y-82579000D01*
X145312323Y-78755000D02*
X145312323Y-88885000D01*
X148073323Y-85061000D02*
X148073323Y-87809000D01*
X147593323Y-85061000D02*
X147593323Y-88143000D01*
X147833323Y-85061000D02*
X147833323Y-87986000D01*
X145512323Y-78775000D02*
X145512323Y-88865000D01*
X149353323Y-85061000D02*
X149353323Y-86330000D01*
X145953323Y-78846000D02*
X145953323Y-88794000D01*
X146193323Y-78902000D02*
X146193323Y-88738000D01*
X148433323Y-85061000D02*
X148433323Y-87499000D01*
X148553323Y-85061000D02*
X148553323Y-87381000D01*
X149073323Y-80875000D02*
X149073323Y-82579000D01*
X148033323Y-85061000D02*
X148033323Y-87840000D01*
X148353323Y-80067000D02*
X148353323Y-82579000D01*
X147193323Y-79275000D02*
X147193323Y-88365000D01*
X149153323Y-85061000D02*
X149153323Y-86650000D01*
X149073323Y-85061000D02*
X149073323Y-86765000D01*
X147873323Y-79682000D02*
X147873323Y-82579000D01*
X146033323Y-78864000D02*
X146033323Y-88776000D01*
X147673323Y-85061000D02*
X147673323Y-88093000D01*
X149273323Y-81175000D02*
X149273323Y-82579000D01*
X149113323Y-80931000D02*
X149113323Y-82579000D01*
X146953323Y-79163000D02*
X146953323Y-88477000D01*
X149553323Y-81695000D02*
X149553323Y-82579000D01*
X147073323Y-79217000D02*
X147073323Y-88423000D01*
X148193323Y-85061000D02*
X148193323Y-87712000D01*
X149513323Y-81611000D02*
X149513323Y-82579000D01*
X149633323Y-85061000D02*
X149633323Y-85764000D01*
X148113323Y-79863000D02*
X148113323Y-82579000D01*
%TD*%
M02*
