M48
; DRILL file {KiCad (7.0.0)} date Sun Mar 19 00:16:22 2023
; FORMAT={-:-/ absolute / inch / decimal}
; #@! TF.CreationDate,2023-03-19T00:16:22-05:00
; #@! TF.GenerationSoftware,Kicad,Pcbnew,(7.0.0)
; #@! TF.FileFunction,Plated,1,4,PTH
FMAT,2
INCH
; #@! TA.AperFunction,Plated,PTH,ComponentDrill
T1C0.0315
; #@! TA.AperFunction,Plated,PTH,ComponentDrill
T2C0.0394
; #@! TA.AperFunction,Plated,PTH,ComponentDrill
T3C0.0472
%
G90
G05
T1
X3.3504Y-2.1506
X3.3504Y-2.2506
X3.3504Y-2.3506
X3.3504Y-2.4506
X3.3504Y-2.5506
X3.3504Y-2.6506
X3.3504Y-2.7506
X3.3504Y-2.8506
X3.6504Y-2.1506
X3.6504Y-2.2506
X3.6504Y-2.3506
X3.6504Y-2.4506
X3.6504Y-2.5506
X3.6504Y-2.6506
X3.6504Y-2.7506
X3.6504Y-2.8506
T2
X2.9Y-1.8
X2.9Y-2.1
X2.9Y-2.2
X2.9Y-2.5
X2.9Y-2.6
X2.9Y-2.9
X2.9Y-3.0
X2.9Y-3.1
X2.9Y-3.2
X3.0Y-1.8
X3.1Y-1.8
X3.2Y-1.8
X3.5Y-1.8
X3.6Y-1.8
X3.7Y-1.8
X3.8Y-1.8
X4.4Y-1.8
X4.6Y-2.8031
X4.6Y-3.0
X4.7Y-1.8
X4.8Y-1.8
X4.9Y-2.8031
X4.9Y-3.0
X5.1Y-1.8
X5.2Y-1.8
X5.3Y-3.2
X5.3Y-3.3
X5.3Y-3.4
X5.3Y-3.7
X5.3Y-3.8
X5.3Y-3.9
X5.4Y-1.8
X5.5576Y-3.3
X5.5576Y-3.8
X5.6Y-1.8
X5.7Y-1.8
X5.8528Y-3.3
X5.8528Y-3.8
X5.9Y-1.8
X6.0Y-1.8
X6.1Y-2.5
X6.1Y-2.6
X6.1Y-2.7
X6.1Y-3.8
X6.1Y-3.9
X6.101Y-3.2
X6.101Y-3.3
X6.101Y-3.4
X6.101Y-3.5
X6.3Y-1.8
X6.3Y-1.9
X6.3Y-2.0
X6.3Y-2.1
X6.3Y-2.2
X6.3Y-2.3
X6.3Y-3.2
X6.3Y-3.3
X6.3Y-3.4
X6.3Y-3.5
X6.3Y-3.8
X6.3Y-3.9
X6.301Y-2.5504
X6.301Y-2.6504
X6.301Y-2.7504
X6.301Y-2.8504
T3
X3.3Y-3.35
X3.3Y-3.85
X3.5Y-3.35
X3.5Y-3.85
X3.7Y-3.35
X3.7Y-3.85
X3.9Y-3.35
X3.9Y-3.85
X4.3Y-3.35
X4.3Y-3.85
X4.5Y-3.35
X4.5Y-3.85
X4.7Y-3.35
X4.7Y-3.85
X4.9Y-3.35
X4.9Y-3.85
X5.25Y-2.8
X5.75Y-2.8
X5.9Y-2.5
X5.9Y-3.0
T0
M30
