%TF.GenerationSoftware,KiCad,Pcbnew,(7.0.0)*%
%TF.CreationDate,2023-03-20T21:12:40-05:00*%
%TF.ProjectId,test,74657374-2e6b-4696-9361-645f70636258,rev?*%
%TF.SameCoordinates,Original*%
%TF.FileFunction,Copper,L3,Inr*%
%TF.FilePolarity,Positive*%
%FSLAX46Y46*%
G04 Gerber Fmt 4.6, Leading zero omitted, Abs format (unit mm)*
G04 Created by KiCad (PCBNEW (7.0.0)) date 2023-03-20 21:12:40*
%MOMM*%
%LPD*%
G01*
G04 APERTURE LIST*
%TA.AperFunction,ComponentPad*%
%ADD10R,1.700000X1.700000*%
%TD*%
%TA.AperFunction,ComponentPad*%
%ADD11O,1.700000X1.700000*%
%TD*%
%TA.AperFunction,ComponentPad*%
%ADD12C,2.000000*%
%TD*%
%TA.AperFunction,ComponentPad*%
%ADD13R,2.000000X2.000000*%
%TD*%
%TA.AperFunction,ComponentPad*%
%ADD14C,2.400000*%
%TD*%
%TA.AperFunction,ComponentPad*%
%ADD15O,2.400000X2.400000*%
%TD*%
%TA.AperFunction,ComponentPad*%
%ADD16R,1.600000X1.600000*%
%TD*%
%TA.AperFunction,ComponentPad*%
%ADD17O,1.600000X1.600000*%
%TD*%
%TA.AperFunction,ViaPad*%
%ADD18C,2.000000*%
%TD*%
%TA.AperFunction,Conductor*%
%ADD19C,1.000000*%
%TD*%
G04 APERTURE END LIST*
D10*
%TO.N,Net-(J11-Pin_2)*%
%TO.C,J43*%
X160044999Y-64779999D03*
D11*
%TO.N,Net-(J11-Pin_1)*%
X160044999Y-67319999D03*
%TO.N,GND*%
X160044999Y-69859999D03*
%TO.N,+5V*%
X160044999Y-72399999D03*
%TD*%
D12*
%TO.N,GND*%
%TO.C,C5*%
X81026000Y-68660000D03*
%TO.N,VCC*%
X81026000Y-73660000D03*
%TD*%
D10*
%TO.N,Net-(J9-Pin_1)*%
%TO.C,J9*%
X160019999Y-81279999D03*
D11*
%TO.N,Net-(J9-Pin_2)*%
X160019999Y-83819999D03*
%TO.N,Net-(J9-Pin_3)*%
X160019999Y-86359999D03*
%TO.N,Net-(J9-Pin_4)*%
X160019999Y-88899999D03*
%TD*%
D13*
%TO.N,Net-(Q2-C)*%
%TO.C,C1*%
X141162322Y-83819999D03*
D12*
%TO.N,Net-(J3-Pin_2)*%
X148662323Y-83820000D03*
%TD*%
D10*
%TO.N,Net-(J6-Pin_3)*%
%TO.C,J7*%
X142239999Y-45719999D03*
D11*
%TO.N,Net-(J6-Pin_1)*%
X144779999Y-45719999D03*
%TD*%
D10*
%TO.N,Net-(U1-2Y)*%
%TO.C,M1*%
X88899999Y-45719999D03*
D11*
%TO.N,Net-(M1--)*%
X91439999Y-45719999D03*
%TO.N,Net-(U1-4Y)*%
X93979999Y-45719999D03*
%TO.N,Net-(U1-1Y)*%
X96519999Y-45719999D03*
%TD*%
D10*
%TO.N,Net-(J6-Pin_1)*%
%TO.C,J6*%
X154939999Y-63499999D03*
D11*
%TO.N,+5V*%
X154939999Y-66039999D03*
%TO.N,Net-(J6-Pin_3)*%
X154939999Y-68579999D03*
%TD*%
D14*
%TO.N,Net-(J15-Pin_2)*%
%TO.C,R2*%
X93980000Y-85090000D03*
D15*
%TO.N,Net-(J9-Pin_3)*%
X93979999Y-97789999D03*
%TD*%
D14*
%TO.N,Net-(J15-Pin_3)*%
%TO.C,R3*%
X88900000Y-85090000D03*
D15*
%TO.N,Net-(J9-Pin_2)*%
X88899999Y-97789999D03*
%TD*%
D10*
%TO.N,GND*%
%TO.C,J3*%
X154939999Y-96519999D03*
D11*
%TO.N,Net-(J3-Pin_2)*%
X154939999Y-99059999D03*
%TD*%
D10*
%TO.N,Net-(J1-Pin_1)*%
%TO.C,J1*%
X73659999Y-45719999D03*
D11*
%TO.N,Net-(J1-Pin_2)*%
X76199999Y-45719999D03*
%TO.N,Net-(J1-Pin_3)*%
X78739999Y-45719999D03*
%TO.N,Net-(J1-Pin_4)*%
X81279999Y-45719999D03*
%TD*%
D14*
%TO.N,Net-(J15-Pin_1)*%
%TO.C,R1*%
X99060000Y-85090000D03*
D15*
%TO.N,Net-(J9-Pin_4)*%
X99059999Y-97789999D03*
%TD*%
D10*
%TO.N,+5V*%
%TO.C,J5*%
X73659999Y-63499999D03*
D11*
%TO.N,GND*%
X73659999Y-66039999D03*
%TD*%
D10*
%TO.N,Net-(J35-Pin_1)*%
%TO.C,J35*%
X111759999Y-45719999D03*
%TD*%
%TO.N,Net-(J13-Pin_2)*%
%TO.C,J14*%
X119379999Y-45719999D03*
D11*
%TO.N,Net-(J13-Pin_1)*%
X121919999Y-45719999D03*
%TD*%
D14*
%TO.N,GND*%
%TO.C,R10*%
X149860000Y-76200000D03*
D15*
%TO.N,Net-(J6-Pin_3)*%
X149859999Y-63499999D03*
%TD*%
D10*
%TO.N,GND*%
%TO.C,Q2*%
X134619999Y-81279999D03*
D11*
%TO.N,Net-(Q2-B)*%
X134619999Y-83819999D03*
%TO.N,Net-(Q2-C)*%
X134619999Y-86359999D03*
%TD*%
D14*
%TO.N,Net-(J35-Pin_1)*%
%TO.C,R6*%
X119380000Y-85090000D03*
D15*
%TO.N,Net-(Q1-B)*%
X119379999Y-97789999D03*
%TD*%
D10*
%TO.N,Net-(J11-Pin_1)*%
%TO.C,J11*%
X129539999Y-45719999D03*
D11*
%TO.N,Net-(J11-Pin_2)*%
X132079999Y-45719999D03*
%TD*%
D14*
%TO.N,Net-(J35-Pin_1)*%
%TO.C,R5*%
X109220000Y-85090000D03*
D15*
%TO.N,Net-(Q2-B)*%
X109219999Y-97789999D03*
%TD*%
D10*
%TO.N,+5V*%
%TO.C,J2*%
X149859999Y-45719999D03*
D11*
%TO.N,Net-(J2-Pin_2)*%
X152399999Y-45719999D03*
%TD*%
D10*
%TO.N,Net-(J15-Pin_1)*%
%TO.C,J15*%
X73659999Y-73659999D03*
D11*
%TO.N,Net-(J15-Pin_2)*%
X73659999Y-76199999D03*
%TO.N,Net-(J15-Pin_3)*%
X73659999Y-78739999D03*
%TO.N,Net-(J15-Pin_4)*%
X73659999Y-81279999D03*
%TD*%
D12*
%TO.N,GND*%
%TO.C,C3*%
X116840000Y-71200000D03*
%TO.N,Net-(J6-Pin_1)*%
X116840000Y-76200000D03*
%TD*%
D14*
%TO.N,Net-(J6-Pin_1)*%
%TO.C,R9*%
X133350000Y-71120000D03*
D15*
%TO.N,GND*%
X146049999Y-71119999D03*
%TD*%
D10*
%TO.N,Net-(J13-Pin_1)*%
%TO.C,J13*%
X160019999Y-45719999D03*
D11*
%TO.N,Net-(J13-Pin_2)*%
X160019999Y-48259999D03*
%TO.N,Net-(J11-Pin_2)*%
X160019999Y-50799999D03*
%TO.N,Net-(J11-Pin_1)*%
X160019999Y-53339999D03*
%TO.N,GND*%
X160019999Y-55879999D03*
%TO.N,+5V*%
X160019999Y-58419999D03*
%TD*%
D10*
%TO.N,GND*%
%TO.C,Q1*%
X134619999Y-93979999D03*
D11*
%TO.N,Net-(Q1-B)*%
X134619999Y-96519999D03*
%TO.N,Net-(Q1-C)*%
X134619999Y-99059999D03*
%TD*%
D12*
%TO.N,Net-(J6-Pin_3)*%
%TO.C,C4*%
X124460000Y-76200000D03*
%TO.N,GND*%
X124460000Y-71200000D03*
%TD*%
D10*
%TO.N,GND*%
%TO.C,J4*%
X160019999Y-96519999D03*
D11*
%TO.N,Net-(J4-Pin_2)*%
X160019999Y-99059999D03*
%TD*%
D12*
%TO.N,GND*%
%TO.C,C6*%
X97282000Y-59610000D03*
%TO.N,+5V*%
X97282000Y-54610000D03*
%TD*%
D14*
%TO.N,Net-(Q2-C)*%
%TO.C,R8*%
X124460000Y-97790000D03*
D15*
%TO.N,+5V*%
X124459999Y-85089999D03*
%TD*%
D14*
%TO.N,Net-(J15-Pin_4)*%
%TO.C,R4*%
X83820000Y-85090000D03*
D15*
%TO.N,Net-(J9-Pin_1)*%
X83819999Y-97789999D03*
%TD*%
D10*
%TO.N,GND*%
%TO.C,J10*%
X154964999Y-81279999D03*
D11*
X154964999Y-83819999D03*
X154964999Y-86359999D03*
X154964999Y-88899999D03*
%TD*%
D10*
%TO.N,Net-(J2-Pin_2)*%
%TO.C,J42*%
X137159999Y-45719999D03*
%TD*%
D16*
%TO.N,+5V*%
%TO.C,U1*%
X85099999Y-54624999D03*
D17*
%TO.N,Net-(J1-Pin_1)*%
X85099999Y-57164999D03*
%TO.N,Net-(U1-1Y)*%
X85099999Y-59704999D03*
%TO.N,GND*%
X85099999Y-62244999D03*
X85099999Y-64784999D03*
%TO.N,Net-(U1-2Y)*%
X85099999Y-67324999D03*
%TO.N,Net-(J1-Pin_2)*%
X85099999Y-69864999D03*
%TO.N,VCC*%
X85099999Y-72404999D03*
%TO.N,+5V*%
X92719999Y-72404999D03*
%TO.N,Net-(J1-Pin_3)*%
X92719999Y-69864999D03*
%TO.N,Net-(M1--)*%
X92719999Y-67324999D03*
%TO.N,GND*%
X92719999Y-64784999D03*
X92719999Y-62244999D03*
%TO.N,Net-(U1-4Y)*%
X92719999Y-59704999D03*
%TO.N,Net-(J1-Pin_4)*%
X92719999Y-57164999D03*
%TO.N,+5V*%
X92719999Y-54624999D03*
%TD*%
D10*
%TO.N,VCC*%
%TO.C,J12*%
X73659999Y-53339999D03*
D11*
%TO.N,GND*%
X73659999Y-55879999D03*
%TD*%
D14*
%TO.N,Net-(Q1-C)*%
%TO.C,R7*%
X114300000Y-97790000D03*
D15*
%TO.N,+5V*%
X114299999Y-85089999D03*
%TD*%
D13*
%TO.N,Net-(Q1-C)*%
%TO.C,C2*%
X141162322Y-96519999D03*
D12*
%TO.N,Net-(J4-Pin_2)*%
X148662323Y-96520000D03*
%TD*%
D18*
%TO.N,Net-(U1-1Y)*%
X86360000Y-48768000D03*
%TD*%
D19*
%TO.N,Net-(U1-1Y)*%
X87122000Y-49530000D02*
X86360000Y-48768000D01*
X87122000Y-57683000D02*
X87122000Y-49530000D01*
%TO.N,Net-(U1-2Y)*%
X84582000Y-45720000D02*
X88900000Y-45720000D01*
X82665000Y-47637000D02*
X84582000Y-45720000D01*
X82665000Y-66040000D02*
X82665000Y-47637000D01*
X83950000Y-67325000D02*
X82665000Y-66040000D01*
X85100000Y-67325000D02*
X83950000Y-67325000D01*
%TO.N,Net-(U1-1Y)*%
X85100000Y-59705000D02*
X87122000Y-57683000D01*
%TO.N,Net-(U1-4Y)*%
X93980000Y-47498000D02*
X93980000Y-45720000D01*
X90170000Y-51308000D02*
X93980000Y-47498000D01*
X90170000Y-57150000D02*
X90170000Y-51308000D01*
X91267600Y-58252600D02*
X91267600Y-58247600D01*
X92720000Y-59705000D02*
X91267600Y-58252600D01*
X91267600Y-58247600D02*
X90170000Y-57150000D01*
%TO.N,Net-(M1--)*%
X91440000Y-47498000D02*
X91440000Y-45720000D01*
X88646000Y-50292000D02*
X91440000Y-47498000D01*
X88646000Y-65024000D02*
X88646000Y-50292000D01*
X92720000Y-67325000D02*
X90947000Y-67325000D01*
X90947000Y-67325000D02*
X88646000Y-65024000D01*
%TD*%
%TA.AperFunction,Conductor*%
%TO.N,+5V*%
G36*
X165027500Y-40667113D02*
G01*
X165072887Y-40712500D01*
X165089500Y-40774500D01*
X165089500Y-104005500D01*
X165072887Y-104067500D01*
X165027500Y-104112887D01*
X164965500Y-104129500D01*
X68714500Y-104129500D01*
X68652500Y-104112887D01*
X68607113Y-104067500D01*
X68590500Y-104005500D01*
X68590500Y-97790000D01*
X82114732Y-97790000D01*
X82115079Y-97794630D01*
X82132367Y-98025336D01*
X82133778Y-98044157D01*
X82134808Y-98048670D01*
X82134809Y-98048676D01*
X82165873Y-98184775D01*
X82190492Y-98292637D01*
X82283607Y-98529888D01*
X82411041Y-98750612D01*
X82569950Y-98949877D01*
X82756783Y-99123232D01*
X82967366Y-99266805D01*
X83196996Y-99377389D01*
X83201424Y-99378754D01*
X83201427Y-99378756D01*
X83301576Y-99409647D01*
X83440542Y-99452513D01*
X83692565Y-99490500D01*
X83942800Y-99490500D01*
X83947435Y-99490500D01*
X84199458Y-99452513D01*
X84443004Y-99377389D01*
X84672634Y-99266805D01*
X84883217Y-99123232D01*
X85070050Y-98949877D01*
X85228959Y-98750612D01*
X85356393Y-98529888D01*
X85449508Y-98292637D01*
X85506222Y-98044157D01*
X85525268Y-97790000D01*
X87194732Y-97790000D01*
X87195079Y-97794630D01*
X87212367Y-98025336D01*
X87213778Y-98044157D01*
X87214808Y-98048670D01*
X87214809Y-98048676D01*
X87245873Y-98184775D01*
X87270492Y-98292637D01*
X87363607Y-98529888D01*
X87491041Y-98750612D01*
X87649950Y-98949877D01*
X87836783Y-99123232D01*
X88047366Y-99266805D01*
X88276996Y-99377389D01*
X88281424Y-99378754D01*
X88281427Y-99378756D01*
X88381576Y-99409647D01*
X88520542Y-99452513D01*
X88772565Y-99490500D01*
X89022800Y-99490500D01*
X89027435Y-99490500D01*
X89279458Y-99452513D01*
X89523004Y-99377389D01*
X89752634Y-99266805D01*
X89963217Y-99123232D01*
X90150050Y-98949877D01*
X90308959Y-98750612D01*
X90436393Y-98529888D01*
X90529508Y-98292637D01*
X90586222Y-98044157D01*
X90605268Y-97790000D01*
X92274732Y-97790000D01*
X92275079Y-97794630D01*
X92292367Y-98025336D01*
X92293778Y-98044157D01*
X92294808Y-98048670D01*
X92294809Y-98048676D01*
X92325873Y-98184775D01*
X92350492Y-98292637D01*
X92443607Y-98529888D01*
X92571041Y-98750612D01*
X92729950Y-98949877D01*
X92916783Y-99123232D01*
X93127366Y-99266805D01*
X93356996Y-99377389D01*
X93361424Y-99378754D01*
X93361427Y-99378756D01*
X93461576Y-99409647D01*
X93600542Y-99452513D01*
X93852565Y-99490500D01*
X94102800Y-99490500D01*
X94107435Y-99490500D01*
X94359458Y-99452513D01*
X94603004Y-99377389D01*
X94832634Y-99266805D01*
X95043217Y-99123232D01*
X95230050Y-98949877D01*
X95388959Y-98750612D01*
X95516393Y-98529888D01*
X95609508Y-98292637D01*
X95666222Y-98044157D01*
X95685268Y-97790000D01*
X97354732Y-97790000D01*
X97355079Y-97794630D01*
X97372367Y-98025336D01*
X97373778Y-98044157D01*
X97374808Y-98048670D01*
X97374809Y-98048676D01*
X97405873Y-98184775D01*
X97430492Y-98292637D01*
X97523607Y-98529888D01*
X97651041Y-98750612D01*
X97809950Y-98949877D01*
X97996783Y-99123232D01*
X98207366Y-99266805D01*
X98436996Y-99377389D01*
X98441424Y-99378754D01*
X98441427Y-99378756D01*
X98541576Y-99409647D01*
X98680542Y-99452513D01*
X98932565Y-99490500D01*
X99182800Y-99490500D01*
X99187435Y-99490500D01*
X99439458Y-99452513D01*
X99683004Y-99377389D01*
X99912634Y-99266805D01*
X100123217Y-99123232D01*
X100310050Y-98949877D01*
X100468959Y-98750612D01*
X100596393Y-98529888D01*
X100689508Y-98292637D01*
X100746222Y-98044157D01*
X100765268Y-97790000D01*
X107514732Y-97790000D01*
X107515079Y-97794630D01*
X107532367Y-98025336D01*
X107533778Y-98044157D01*
X107534808Y-98048670D01*
X107534809Y-98048676D01*
X107565873Y-98184775D01*
X107590492Y-98292637D01*
X107683607Y-98529888D01*
X107811041Y-98750612D01*
X107969950Y-98949877D01*
X108156783Y-99123232D01*
X108367366Y-99266805D01*
X108596996Y-99377389D01*
X108601424Y-99378754D01*
X108601427Y-99378756D01*
X108701576Y-99409647D01*
X108840542Y-99452513D01*
X109092565Y-99490500D01*
X109342800Y-99490500D01*
X109347435Y-99490500D01*
X109599458Y-99452513D01*
X109843004Y-99377389D01*
X110072634Y-99266805D01*
X110283217Y-99123232D01*
X110470050Y-98949877D01*
X110628959Y-98750612D01*
X110756393Y-98529888D01*
X110849508Y-98292637D01*
X110906222Y-98044157D01*
X110925268Y-97790000D01*
X112594732Y-97790000D01*
X112595079Y-97794630D01*
X112612367Y-98025336D01*
X112613778Y-98044157D01*
X112614808Y-98048670D01*
X112614809Y-98048676D01*
X112645873Y-98184775D01*
X112670492Y-98292637D01*
X112763607Y-98529888D01*
X112891041Y-98750612D01*
X113049950Y-98949877D01*
X113236783Y-99123232D01*
X113447366Y-99266805D01*
X113676996Y-99377389D01*
X113681424Y-99378754D01*
X113681427Y-99378756D01*
X113781576Y-99409647D01*
X113920542Y-99452513D01*
X114172565Y-99490500D01*
X114422800Y-99490500D01*
X114427435Y-99490500D01*
X114679458Y-99452513D01*
X114923004Y-99377389D01*
X115152634Y-99266805D01*
X115363217Y-99123232D01*
X115550050Y-98949877D01*
X115708959Y-98750612D01*
X115836393Y-98529888D01*
X115929508Y-98292637D01*
X115986222Y-98044157D01*
X116005268Y-97790000D01*
X117674732Y-97790000D01*
X117675079Y-97794630D01*
X117692367Y-98025336D01*
X117693778Y-98044157D01*
X117694808Y-98048670D01*
X117694809Y-98048676D01*
X117725873Y-98184775D01*
X117750492Y-98292637D01*
X117843607Y-98529888D01*
X117971041Y-98750612D01*
X118129950Y-98949877D01*
X118316783Y-99123232D01*
X118527366Y-99266805D01*
X118756996Y-99377389D01*
X118761424Y-99378754D01*
X118761427Y-99378756D01*
X118861576Y-99409647D01*
X119000542Y-99452513D01*
X119252565Y-99490500D01*
X119502800Y-99490500D01*
X119507435Y-99490500D01*
X119759458Y-99452513D01*
X120003004Y-99377389D01*
X120232634Y-99266805D01*
X120443217Y-99123232D01*
X120630050Y-98949877D01*
X120788959Y-98750612D01*
X120916393Y-98529888D01*
X121009508Y-98292637D01*
X121066222Y-98044157D01*
X121085268Y-97790000D01*
X122754732Y-97790000D01*
X122755079Y-97794630D01*
X122772367Y-98025336D01*
X122773778Y-98044157D01*
X122774808Y-98048670D01*
X122774809Y-98048676D01*
X122805873Y-98184775D01*
X122830492Y-98292637D01*
X122923607Y-98529888D01*
X123051041Y-98750612D01*
X123209950Y-98949877D01*
X123396783Y-99123232D01*
X123607366Y-99266805D01*
X123836996Y-99377389D01*
X123841424Y-99378754D01*
X123841427Y-99378756D01*
X123941576Y-99409647D01*
X124080542Y-99452513D01*
X124332565Y-99490500D01*
X124582800Y-99490500D01*
X124587435Y-99490500D01*
X124839458Y-99452513D01*
X125083004Y-99377389D01*
X125312634Y-99266805D01*
X125523217Y-99123232D01*
X125591365Y-99060000D01*
X133264341Y-99060000D01*
X133264813Y-99065395D01*
X133282610Y-99268820D01*
X133284937Y-99295408D01*
X133286336Y-99300630D01*
X133286337Y-99300634D01*
X133344694Y-99518430D01*
X133344697Y-99518438D01*
X133346097Y-99523663D01*
X133348385Y-99528570D01*
X133348386Y-99528572D01*
X133443678Y-99732927D01*
X133443681Y-99732933D01*
X133445965Y-99737830D01*
X133449064Y-99742257D01*
X133449066Y-99742259D01*
X133578399Y-99926966D01*
X133578402Y-99926970D01*
X133581505Y-99931401D01*
X133748599Y-100098495D01*
X133942170Y-100234035D01*
X134156337Y-100333903D01*
X134384592Y-100395063D01*
X134620000Y-100415659D01*
X134855408Y-100395063D01*
X135083663Y-100333903D01*
X135297830Y-100234035D01*
X135491401Y-100098495D01*
X135658495Y-99931401D01*
X135794035Y-99737830D01*
X135893903Y-99523663D01*
X135955063Y-99295408D01*
X135975659Y-99060000D01*
X153584341Y-99060000D01*
X153584813Y-99065395D01*
X153602610Y-99268820D01*
X153604937Y-99295408D01*
X153606336Y-99300630D01*
X153606337Y-99300634D01*
X153664694Y-99518430D01*
X153664697Y-99518438D01*
X153666097Y-99523663D01*
X153668385Y-99528570D01*
X153668386Y-99528572D01*
X153763678Y-99732927D01*
X153763681Y-99732933D01*
X153765965Y-99737830D01*
X153769064Y-99742257D01*
X153769066Y-99742259D01*
X153898399Y-99926966D01*
X153898402Y-99926970D01*
X153901505Y-99931401D01*
X154068599Y-100098495D01*
X154262170Y-100234035D01*
X154476337Y-100333903D01*
X154704592Y-100395063D01*
X154940000Y-100415659D01*
X155175408Y-100395063D01*
X155403663Y-100333903D01*
X155617830Y-100234035D01*
X155811401Y-100098495D01*
X155978495Y-99931401D01*
X156114035Y-99737830D01*
X156213903Y-99523663D01*
X156275063Y-99295408D01*
X156295659Y-99060000D01*
X158664341Y-99060000D01*
X158664813Y-99065395D01*
X158682610Y-99268820D01*
X158684937Y-99295408D01*
X158686336Y-99300630D01*
X158686337Y-99300634D01*
X158744694Y-99518430D01*
X158744697Y-99518438D01*
X158746097Y-99523663D01*
X158748385Y-99528570D01*
X158748386Y-99528572D01*
X158843678Y-99732927D01*
X158843681Y-99732933D01*
X158845965Y-99737830D01*
X158849064Y-99742257D01*
X158849066Y-99742259D01*
X158978399Y-99926966D01*
X158978402Y-99926970D01*
X158981505Y-99931401D01*
X159148599Y-100098495D01*
X159342170Y-100234035D01*
X159556337Y-100333903D01*
X159784592Y-100395063D01*
X160020000Y-100415659D01*
X160255408Y-100395063D01*
X160483663Y-100333903D01*
X160697830Y-100234035D01*
X160891401Y-100098495D01*
X161058495Y-99931401D01*
X161194035Y-99737830D01*
X161293903Y-99523663D01*
X161355063Y-99295408D01*
X161375659Y-99060000D01*
X161355063Y-98824592D01*
X161293903Y-98596337D01*
X161194035Y-98382171D01*
X161058495Y-98188599D01*
X160936568Y-98066672D01*
X160905273Y-98013927D01*
X160903084Y-97952634D01*
X160930537Y-97897789D01*
X160980916Y-97862810D01*
X161112331Y-97813796D01*
X161227546Y-97727546D01*
X161313796Y-97612331D01*
X161364091Y-97477483D01*
X161370500Y-97417873D01*
X161370499Y-95622128D01*
X161364091Y-95562517D01*
X161313796Y-95427669D01*
X161227546Y-95312454D01*
X161192181Y-95285980D01*
X161119431Y-95231519D01*
X161119430Y-95231518D01*
X161112331Y-95226204D01*
X161022926Y-95192858D01*
X160984752Y-95178620D01*
X160984750Y-95178619D01*
X160977483Y-95175909D01*
X160969770Y-95175079D01*
X160969767Y-95175079D01*
X160921180Y-95169855D01*
X160921169Y-95169854D01*
X160917873Y-95169500D01*
X160914550Y-95169500D01*
X159125439Y-95169500D01*
X159125420Y-95169500D01*
X159122128Y-95169501D01*
X159118850Y-95169853D01*
X159118838Y-95169854D01*
X159070231Y-95175079D01*
X159070225Y-95175080D01*
X159062517Y-95175909D01*
X159055252Y-95178618D01*
X159055246Y-95178620D01*
X158935980Y-95223104D01*
X158935978Y-95223104D01*
X158927669Y-95226204D01*
X158920572Y-95231516D01*
X158920568Y-95231519D01*
X158819550Y-95307141D01*
X158819546Y-95307144D01*
X158812454Y-95312454D01*
X158807144Y-95319546D01*
X158807141Y-95319550D01*
X158731519Y-95420568D01*
X158731516Y-95420572D01*
X158726204Y-95427669D01*
X158723104Y-95435978D01*
X158723104Y-95435980D01*
X158678620Y-95555247D01*
X158678619Y-95555250D01*
X158675909Y-95562517D01*
X158675079Y-95570227D01*
X158675079Y-95570232D01*
X158669855Y-95618819D01*
X158669854Y-95618831D01*
X158669500Y-95622127D01*
X158669500Y-95625448D01*
X158669500Y-95625449D01*
X158669500Y-97414560D01*
X158669500Y-97414578D01*
X158669501Y-97417872D01*
X158669853Y-97421150D01*
X158669854Y-97421161D01*
X158675079Y-97469768D01*
X158675080Y-97469773D01*
X158675909Y-97477483D01*
X158678619Y-97484749D01*
X158678620Y-97484753D01*
X158695990Y-97531323D01*
X158726204Y-97612331D01*
X158731518Y-97619430D01*
X158731519Y-97619431D01*
X158787367Y-97694035D01*
X158812454Y-97727546D01*
X158927669Y-97813796D01*
X159017383Y-97847257D01*
X159059082Y-97862810D01*
X159109462Y-97897789D01*
X159136915Y-97952633D01*
X159134726Y-98013926D01*
X159103431Y-98066673D01*
X158981505Y-98188599D01*
X158978402Y-98193029D01*
X158978399Y-98193034D01*
X158849073Y-98377731D01*
X158849068Y-98377738D01*
X158845965Y-98382171D01*
X158843677Y-98387077D01*
X158843675Y-98387081D01*
X158748386Y-98591427D01*
X158748383Y-98591432D01*
X158746097Y-98596337D01*
X158744698Y-98601557D01*
X158744694Y-98601569D01*
X158686337Y-98819365D01*
X158686335Y-98819371D01*
X158684937Y-98824592D01*
X158664341Y-99060000D01*
X156295659Y-99060000D01*
X156275063Y-98824592D01*
X156213903Y-98596337D01*
X156114035Y-98382171D01*
X155978495Y-98188599D01*
X155856568Y-98066672D01*
X155825273Y-98013927D01*
X155823084Y-97952634D01*
X155850537Y-97897789D01*
X155900916Y-97862810D01*
X156032331Y-97813796D01*
X156147546Y-97727546D01*
X156233796Y-97612331D01*
X156284091Y-97477483D01*
X156290500Y-97417873D01*
X156290499Y-95622128D01*
X156284091Y-95562517D01*
X156233796Y-95427669D01*
X156147546Y-95312454D01*
X156112181Y-95285980D01*
X156039431Y-95231519D01*
X156039430Y-95231518D01*
X156032331Y-95226204D01*
X155942926Y-95192858D01*
X155904752Y-95178620D01*
X155904750Y-95178619D01*
X155897483Y-95175909D01*
X155889770Y-95175079D01*
X155889767Y-95175079D01*
X155841180Y-95169855D01*
X155841169Y-95169854D01*
X155837873Y-95169500D01*
X155834550Y-95169500D01*
X154045439Y-95169500D01*
X154045420Y-95169500D01*
X154042128Y-95169501D01*
X154038850Y-95169853D01*
X154038838Y-95169854D01*
X153990231Y-95175079D01*
X153990225Y-95175080D01*
X153982517Y-95175909D01*
X153975252Y-95178618D01*
X153975246Y-95178620D01*
X153855980Y-95223104D01*
X153855978Y-95223104D01*
X153847669Y-95226204D01*
X153840572Y-95231516D01*
X153840568Y-95231519D01*
X153739550Y-95307141D01*
X153739546Y-95307144D01*
X153732454Y-95312454D01*
X153727144Y-95319546D01*
X153727141Y-95319550D01*
X153651519Y-95420568D01*
X153651516Y-95420572D01*
X153646204Y-95427669D01*
X153643104Y-95435978D01*
X153643104Y-95435980D01*
X153598620Y-95555247D01*
X153598619Y-95555250D01*
X153595909Y-95562517D01*
X153595079Y-95570227D01*
X153595079Y-95570232D01*
X153589855Y-95618819D01*
X153589854Y-95618831D01*
X153589500Y-95622127D01*
X153589500Y-95625448D01*
X153589500Y-95625449D01*
X153589500Y-97414560D01*
X153589500Y-97414578D01*
X153589501Y-97417872D01*
X153589853Y-97421150D01*
X153589854Y-97421161D01*
X153595079Y-97469768D01*
X153595080Y-97469773D01*
X153595909Y-97477483D01*
X153598619Y-97484749D01*
X153598620Y-97484753D01*
X153615990Y-97531323D01*
X153646204Y-97612331D01*
X153651518Y-97619430D01*
X153651519Y-97619431D01*
X153707367Y-97694035D01*
X153732454Y-97727546D01*
X153847669Y-97813796D01*
X153937383Y-97847257D01*
X153979082Y-97862810D01*
X154029462Y-97897789D01*
X154056915Y-97952633D01*
X154054726Y-98013926D01*
X154023431Y-98066673D01*
X153901505Y-98188599D01*
X153898402Y-98193029D01*
X153898399Y-98193034D01*
X153769073Y-98377731D01*
X153769068Y-98377738D01*
X153765965Y-98382171D01*
X153763677Y-98387077D01*
X153763675Y-98387081D01*
X153668386Y-98591427D01*
X153668383Y-98591432D01*
X153666097Y-98596337D01*
X153664698Y-98601557D01*
X153664694Y-98601569D01*
X153606337Y-98819365D01*
X153606335Y-98819371D01*
X153604937Y-98824592D01*
X153584341Y-99060000D01*
X135975659Y-99060000D01*
X135955063Y-98824592D01*
X135893903Y-98596337D01*
X135794035Y-98382171D01*
X135658495Y-98188599D01*
X135491401Y-98021505D01*
X135486968Y-98018401D01*
X135486961Y-98018395D01*
X135305842Y-97891575D01*
X135266976Y-97847257D01*
X135252965Y-97790000D01*
X135266976Y-97732743D01*
X135305842Y-97688425D01*
X135482714Y-97564578D01*
X139661823Y-97564578D01*
X139661824Y-97567872D01*
X139662176Y-97571150D01*
X139662177Y-97571161D01*
X139667402Y-97619768D01*
X139667403Y-97619773D01*
X139668232Y-97627483D01*
X139670942Y-97634749D01*
X139670943Y-97634753D01*
X139690962Y-97688425D01*
X139718527Y-97762331D01*
X139723841Y-97769430D01*
X139723842Y-97769431D01*
X139794704Y-97864091D01*
X139804777Y-97877546D01*
X139919992Y-97963796D01*
X140054840Y-98014091D01*
X140114450Y-98020500D01*
X142210195Y-98020499D01*
X142269806Y-98014091D01*
X142404654Y-97963796D01*
X142519869Y-97877546D01*
X142606119Y-97762331D01*
X142656414Y-97627483D01*
X142662823Y-97567873D01*
X142662822Y-96520000D01*
X147156680Y-96520000D01*
X147157104Y-96525117D01*
X147176790Y-96762701D01*
X147176791Y-96762709D01*
X147177215Y-96767821D01*
X147178472Y-96772788D01*
X147178474Y-96772795D01*
X147193823Y-96833406D01*
X147238260Y-97008881D01*
X147240320Y-97013577D01*
X147336089Y-97231910D01*
X147336092Y-97231916D01*
X147338150Y-97236607D01*
X147340950Y-97240893D01*
X147340954Y-97240900D01*
X147454412Y-97414560D01*
X147474159Y-97444785D01*
X147477633Y-97448559D01*
X147477634Y-97448560D01*
X147639107Y-97623967D01*
X147639110Y-97623970D01*
X147642579Y-97627738D01*
X147838814Y-97780474D01*
X148057513Y-97898828D01*
X148292709Y-97979571D01*
X148537988Y-98020500D01*
X148781524Y-98020500D01*
X148786658Y-98020500D01*
X149031937Y-97979571D01*
X149267133Y-97898828D01*
X149485832Y-97780474D01*
X149682067Y-97627738D01*
X149850487Y-97444785D01*
X149986496Y-97236607D01*
X150086386Y-97008881D01*
X150147431Y-96767821D01*
X150167966Y-96520000D01*
X150147431Y-96272179D01*
X150086386Y-96031119D01*
X149986496Y-95803393D01*
X149850487Y-95595215D01*
X149827488Y-95570231D01*
X149685538Y-95416032D01*
X149685534Y-95416029D01*
X149682067Y-95412262D01*
X149485832Y-95259526D01*
X149434080Y-95231519D01*
X149271639Y-95143610D01*
X149271633Y-95143607D01*
X149267133Y-95141172D01*
X149262292Y-95139510D01*
X149262285Y-95139507D01*
X149036788Y-95062094D01*
X149036784Y-95062093D01*
X149031937Y-95060429D01*
X149023091Y-95058952D01*
X148791721Y-95020344D01*
X148791710Y-95020343D01*
X148786658Y-95019500D01*
X148537988Y-95019500D01*
X148532936Y-95020343D01*
X148532924Y-95020344D01*
X148297766Y-95059585D01*
X148297764Y-95059585D01*
X148292709Y-95060429D01*
X148287864Y-95062092D01*
X148287857Y-95062094D01*
X148062360Y-95139507D01*
X148062349Y-95139511D01*
X148057513Y-95141172D01*
X148053016Y-95143605D01*
X148053006Y-95143610D01*
X147843325Y-95257084D01*
X147843318Y-95257088D01*
X147838814Y-95259526D01*
X147834771Y-95262672D01*
X147834763Y-95262678D01*
X147646627Y-95409111D01*
X147642579Y-95412262D01*
X147639116Y-95416023D01*
X147639107Y-95416032D01*
X147477634Y-95591439D01*
X147477628Y-95591446D01*
X147474159Y-95595215D01*
X147471354Y-95599506D01*
X147471351Y-95599512D01*
X147340954Y-95799099D01*
X147340947Y-95799111D01*
X147338150Y-95803393D01*
X147336095Y-95808077D01*
X147336089Y-95808089D01*
X147240320Y-96026422D01*
X147238260Y-96031119D01*
X147237002Y-96036084D01*
X147237001Y-96036089D01*
X147178474Y-96267204D01*
X147178472Y-96267213D01*
X147177215Y-96272179D01*
X147176791Y-96277288D01*
X147176790Y-96277298D01*
X147161658Y-96459920D01*
X147156680Y-96520000D01*
X142662822Y-96520000D01*
X142662822Y-95472128D01*
X142656414Y-95412517D01*
X142606119Y-95277669D01*
X142519869Y-95162454D01*
X142404654Y-95076204D01*
X142269806Y-95025909D01*
X142262093Y-95025079D01*
X142262090Y-95025079D01*
X142213503Y-95019855D01*
X142213492Y-95019854D01*
X142210196Y-95019500D01*
X142206873Y-95019500D01*
X140117762Y-95019500D01*
X140117743Y-95019500D01*
X140114451Y-95019501D01*
X140111173Y-95019853D01*
X140111161Y-95019854D01*
X140062554Y-95025079D01*
X140062548Y-95025080D01*
X140054840Y-95025909D01*
X140047575Y-95028618D01*
X140047569Y-95028620D01*
X139928303Y-95073104D01*
X139928301Y-95073104D01*
X139919992Y-95076204D01*
X139912895Y-95081516D01*
X139912891Y-95081519D01*
X139811873Y-95157141D01*
X139811869Y-95157144D01*
X139804777Y-95162454D01*
X139799467Y-95169546D01*
X139799464Y-95169550D01*
X139723842Y-95270568D01*
X139723839Y-95270572D01*
X139718527Y-95277669D01*
X139715427Y-95285978D01*
X139715427Y-95285980D01*
X139670943Y-95405247D01*
X139670942Y-95405250D01*
X139668232Y-95412517D01*
X139667402Y-95420227D01*
X139667402Y-95420232D01*
X139662178Y-95468819D01*
X139662177Y-95468831D01*
X139661823Y-95472127D01*
X139661823Y-95475448D01*
X139661823Y-95475449D01*
X139661823Y-97564560D01*
X139661823Y-97564578D01*
X135482714Y-97564578D01*
X135486961Y-97561604D01*
X135486961Y-97561603D01*
X135491401Y-97558495D01*
X135658495Y-97391401D01*
X135794035Y-97197830D01*
X135893903Y-96983663D01*
X135955063Y-96755408D01*
X135975659Y-96520000D01*
X135955063Y-96284592D01*
X135893903Y-96056337D01*
X135794035Y-95842171D01*
X135658495Y-95648599D01*
X135536569Y-95526672D01*
X135505273Y-95473927D01*
X135503084Y-95412634D01*
X135530537Y-95357789D01*
X135580916Y-95322810D01*
X135712331Y-95273796D01*
X135827546Y-95187546D01*
X135913796Y-95072331D01*
X135964091Y-94937483D01*
X135970500Y-94877873D01*
X135970499Y-93082128D01*
X135964091Y-93022517D01*
X135913796Y-92887669D01*
X135827546Y-92772454D01*
X135712331Y-92686204D01*
X135577483Y-92635909D01*
X135569770Y-92635079D01*
X135569767Y-92635079D01*
X135521180Y-92629855D01*
X135521169Y-92629854D01*
X135517873Y-92629500D01*
X135514550Y-92629500D01*
X133725439Y-92629500D01*
X133725420Y-92629500D01*
X133722128Y-92629501D01*
X133718850Y-92629853D01*
X133718838Y-92629854D01*
X133670231Y-92635079D01*
X133670225Y-92635080D01*
X133662517Y-92635909D01*
X133655252Y-92638618D01*
X133655246Y-92638620D01*
X133535980Y-92683104D01*
X133535978Y-92683104D01*
X133527669Y-92686204D01*
X133520572Y-92691516D01*
X133520568Y-92691519D01*
X133419550Y-92767141D01*
X133419546Y-92767144D01*
X133412454Y-92772454D01*
X133407144Y-92779546D01*
X133407141Y-92779550D01*
X133331519Y-92880568D01*
X133331516Y-92880572D01*
X133326204Y-92887669D01*
X133323104Y-92895978D01*
X133323104Y-92895980D01*
X133278620Y-93015247D01*
X133278619Y-93015250D01*
X133275909Y-93022517D01*
X133275079Y-93030227D01*
X133275079Y-93030232D01*
X133269855Y-93078819D01*
X133269854Y-93078831D01*
X133269500Y-93082127D01*
X133269500Y-93085448D01*
X133269500Y-93085449D01*
X133269500Y-94874560D01*
X133269500Y-94874578D01*
X133269501Y-94877872D01*
X133269853Y-94881150D01*
X133269854Y-94881161D01*
X133275079Y-94929768D01*
X133275080Y-94929773D01*
X133275909Y-94937483D01*
X133278619Y-94944749D01*
X133278620Y-94944753D01*
X133306499Y-95019500D01*
X133326204Y-95072331D01*
X133331518Y-95079430D01*
X133331519Y-95079431D01*
X133403742Y-95175909D01*
X133412454Y-95187546D01*
X133527669Y-95273796D01*
X133617072Y-95307141D01*
X133659082Y-95322810D01*
X133709462Y-95357789D01*
X133736915Y-95412633D01*
X133734726Y-95473926D01*
X133703430Y-95526673D01*
X133581505Y-95648599D01*
X133578402Y-95653029D01*
X133578399Y-95653034D01*
X133449073Y-95837731D01*
X133449068Y-95837738D01*
X133445965Y-95842171D01*
X133443677Y-95847077D01*
X133443675Y-95847081D01*
X133348386Y-96051427D01*
X133348383Y-96051432D01*
X133346097Y-96056337D01*
X133344698Y-96061557D01*
X133344694Y-96061569D01*
X133286337Y-96279365D01*
X133286335Y-96279371D01*
X133284937Y-96284592D01*
X133284465Y-96289977D01*
X133284465Y-96289982D01*
X133269873Y-96456768D01*
X133264341Y-96520000D01*
X133264813Y-96525395D01*
X133273699Y-96626967D01*
X133284937Y-96755408D01*
X133286336Y-96760630D01*
X133286337Y-96760634D01*
X133344694Y-96978430D01*
X133344697Y-96978438D01*
X133346097Y-96983663D01*
X133348385Y-96988570D01*
X133348386Y-96988572D01*
X133443678Y-97192927D01*
X133443681Y-97192933D01*
X133445965Y-97197830D01*
X133449064Y-97202257D01*
X133449066Y-97202259D01*
X133578399Y-97386966D01*
X133578402Y-97386970D01*
X133581505Y-97391401D01*
X133748599Y-97558495D01*
X133753032Y-97561599D01*
X133753038Y-97561604D01*
X133934158Y-97688425D01*
X133973024Y-97732743D01*
X133987035Y-97790000D01*
X133973024Y-97847257D01*
X133934159Y-97891575D01*
X133753041Y-98018395D01*
X133748599Y-98021505D01*
X133744775Y-98025328D01*
X133744769Y-98025334D01*
X133585334Y-98184769D01*
X133585328Y-98184775D01*
X133581505Y-98188599D01*
X133578402Y-98193029D01*
X133578399Y-98193034D01*
X133449073Y-98377731D01*
X133449068Y-98377738D01*
X133445965Y-98382171D01*
X133443677Y-98387077D01*
X133443675Y-98387081D01*
X133348386Y-98591427D01*
X133348383Y-98591432D01*
X133346097Y-98596337D01*
X133344698Y-98601557D01*
X133344694Y-98601569D01*
X133286337Y-98819365D01*
X133286335Y-98819371D01*
X133284937Y-98824592D01*
X133264341Y-99060000D01*
X125591365Y-99060000D01*
X125710050Y-98949877D01*
X125868959Y-98750612D01*
X125996393Y-98529888D01*
X126089508Y-98292637D01*
X126146222Y-98044157D01*
X126165268Y-97790000D01*
X126146222Y-97535843D01*
X126089508Y-97287363D01*
X125996393Y-97050112D01*
X125868959Y-96829388D01*
X125710050Y-96630123D01*
X125523217Y-96456768D01*
X125312634Y-96313195D01*
X125264432Y-96289982D01*
X125087183Y-96204623D01*
X125087177Y-96204620D01*
X125083004Y-96202611D01*
X125078582Y-96201247D01*
X125078572Y-96201243D01*
X124843891Y-96128854D01*
X124843886Y-96128852D01*
X124839458Y-96127487D01*
X124834878Y-96126796D01*
X124834871Y-96126795D01*
X124592018Y-96090190D01*
X124592007Y-96090189D01*
X124587435Y-96089500D01*
X124332565Y-96089500D01*
X124327993Y-96090189D01*
X124327981Y-96090190D01*
X124085128Y-96126795D01*
X124085118Y-96126797D01*
X124080542Y-96127487D01*
X124076116Y-96128851D01*
X124076108Y-96128854D01*
X123841427Y-96201243D01*
X123841412Y-96201248D01*
X123836996Y-96202611D01*
X123832827Y-96204618D01*
X123832816Y-96204623D01*
X123611551Y-96311179D01*
X123611544Y-96311182D01*
X123607366Y-96313195D01*
X123396783Y-96456768D01*
X123393391Y-96459914D01*
X123393385Y-96459920D01*
X123322820Y-96525395D01*
X123209950Y-96630123D01*
X123207060Y-96633745D01*
X123207057Y-96633750D01*
X123053933Y-96825761D01*
X123051041Y-96829388D01*
X123048722Y-96833403D01*
X123048721Y-96833406D01*
X122925928Y-97046091D01*
X122925925Y-97046096D01*
X122923607Y-97050112D01*
X122921913Y-97054426D01*
X122921911Y-97054432D01*
X122832189Y-97283038D01*
X122830492Y-97287363D01*
X122829459Y-97291884D01*
X122829458Y-97291891D01*
X122774809Y-97531323D01*
X122774807Y-97531331D01*
X122773778Y-97535843D01*
X122773431Y-97540462D01*
X122773431Y-97540468D01*
X122766366Y-97634752D01*
X122754732Y-97790000D01*
X121085268Y-97790000D01*
X121066222Y-97535843D01*
X121009508Y-97287363D01*
X120916393Y-97050112D01*
X120788959Y-96829388D01*
X120630050Y-96630123D01*
X120443217Y-96456768D01*
X120232634Y-96313195D01*
X120184432Y-96289982D01*
X120007183Y-96204623D01*
X120007177Y-96204620D01*
X120003004Y-96202611D01*
X119998582Y-96201247D01*
X119998572Y-96201243D01*
X119763891Y-96128854D01*
X119763886Y-96128852D01*
X119759458Y-96127487D01*
X119754878Y-96126796D01*
X119754871Y-96126795D01*
X119512018Y-96090190D01*
X119512007Y-96090189D01*
X119507435Y-96089500D01*
X119252565Y-96089500D01*
X119247993Y-96090189D01*
X119247981Y-96090190D01*
X119005128Y-96126795D01*
X119005118Y-96126797D01*
X119000542Y-96127487D01*
X118996116Y-96128851D01*
X118996108Y-96128854D01*
X118761427Y-96201243D01*
X118761412Y-96201248D01*
X118756996Y-96202611D01*
X118752827Y-96204618D01*
X118752816Y-96204623D01*
X118531551Y-96311179D01*
X118531544Y-96311182D01*
X118527366Y-96313195D01*
X118316783Y-96456768D01*
X118313391Y-96459914D01*
X118313385Y-96459920D01*
X118242820Y-96525395D01*
X118129950Y-96630123D01*
X118127060Y-96633745D01*
X118127057Y-96633750D01*
X117973933Y-96825761D01*
X117971041Y-96829388D01*
X117968722Y-96833403D01*
X117968721Y-96833406D01*
X117845928Y-97046091D01*
X117845925Y-97046096D01*
X117843607Y-97050112D01*
X117841913Y-97054426D01*
X117841911Y-97054432D01*
X117752189Y-97283038D01*
X117750492Y-97287363D01*
X117749459Y-97291884D01*
X117749458Y-97291891D01*
X117694809Y-97531323D01*
X117694807Y-97531331D01*
X117693778Y-97535843D01*
X117693431Y-97540462D01*
X117693431Y-97540468D01*
X117686366Y-97634752D01*
X117674732Y-97790000D01*
X116005268Y-97790000D01*
X115986222Y-97535843D01*
X115929508Y-97287363D01*
X115836393Y-97050112D01*
X115708959Y-96829388D01*
X115550050Y-96630123D01*
X115363217Y-96456768D01*
X115152634Y-96313195D01*
X115104432Y-96289982D01*
X114927183Y-96204623D01*
X114927177Y-96204620D01*
X114923004Y-96202611D01*
X114918582Y-96201247D01*
X114918572Y-96201243D01*
X114683891Y-96128854D01*
X114683886Y-96128852D01*
X114679458Y-96127487D01*
X114674878Y-96126796D01*
X114674871Y-96126795D01*
X114432018Y-96090190D01*
X114432007Y-96090189D01*
X114427435Y-96089500D01*
X114172565Y-96089500D01*
X114167993Y-96090189D01*
X114167981Y-96090190D01*
X113925128Y-96126795D01*
X113925118Y-96126797D01*
X113920542Y-96127487D01*
X113916116Y-96128851D01*
X113916108Y-96128854D01*
X113681427Y-96201243D01*
X113681412Y-96201248D01*
X113676996Y-96202611D01*
X113672827Y-96204618D01*
X113672816Y-96204623D01*
X113451551Y-96311179D01*
X113451544Y-96311182D01*
X113447366Y-96313195D01*
X113236783Y-96456768D01*
X113233391Y-96459914D01*
X113233385Y-96459920D01*
X113162820Y-96525395D01*
X113049950Y-96630123D01*
X113047060Y-96633745D01*
X113047057Y-96633750D01*
X112893933Y-96825761D01*
X112891041Y-96829388D01*
X112888722Y-96833403D01*
X112888721Y-96833406D01*
X112765928Y-97046091D01*
X112765925Y-97046096D01*
X112763607Y-97050112D01*
X112761913Y-97054426D01*
X112761911Y-97054432D01*
X112672189Y-97283038D01*
X112670492Y-97287363D01*
X112669459Y-97291884D01*
X112669458Y-97291891D01*
X112614809Y-97531323D01*
X112614807Y-97531331D01*
X112613778Y-97535843D01*
X112613431Y-97540462D01*
X112613431Y-97540468D01*
X112606366Y-97634752D01*
X112594732Y-97790000D01*
X110925268Y-97790000D01*
X110906222Y-97535843D01*
X110849508Y-97287363D01*
X110756393Y-97050112D01*
X110628959Y-96829388D01*
X110470050Y-96630123D01*
X110283217Y-96456768D01*
X110072634Y-96313195D01*
X110024432Y-96289982D01*
X109847183Y-96204623D01*
X109847177Y-96204620D01*
X109843004Y-96202611D01*
X109838582Y-96201247D01*
X109838572Y-96201243D01*
X109603891Y-96128854D01*
X109603886Y-96128852D01*
X109599458Y-96127487D01*
X109594878Y-96126796D01*
X109594871Y-96126795D01*
X109352018Y-96090190D01*
X109352007Y-96090189D01*
X109347435Y-96089500D01*
X109092565Y-96089500D01*
X109087993Y-96090189D01*
X109087981Y-96090190D01*
X108845128Y-96126795D01*
X108845118Y-96126797D01*
X108840542Y-96127487D01*
X108836116Y-96128851D01*
X108836108Y-96128854D01*
X108601427Y-96201243D01*
X108601412Y-96201248D01*
X108596996Y-96202611D01*
X108592827Y-96204618D01*
X108592816Y-96204623D01*
X108371551Y-96311179D01*
X108371544Y-96311182D01*
X108367366Y-96313195D01*
X108156783Y-96456768D01*
X108153391Y-96459914D01*
X108153385Y-96459920D01*
X108082820Y-96525395D01*
X107969950Y-96630123D01*
X107967060Y-96633745D01*
X107967057Y-96633750D01*
X107813933Y-96825761D01*
X107811041Y-96829388D01*
X107808722Y-96833403D01*
X107808721Y-96833406D01*
X107685928Y-97046091D01*
X107685925Y-97046096D01*
X107683607Y-97050112D01*
X107681913Y-97054426D01*
X107681911Y-97054432D01*
X107592189Y-97283038D01*
X107590492Y-97287363D01*
X107589459Y-97291884D01*
X107589458Y-97291891D01*
X107534809Y-97531323D01*
X107534807Y-97531331D01*
X107533778Y-97535843D01*
X107533431Y-97540462D01*
X107533431Y-97540468D01*
X107526366Y-97634752D01*
X107514732Y-97790000D01*
X100765268Y-97790000D01*
X100746222Y-97535843D01*
X100689508Y-97287363D01*
X100596393Y-97050112D01*
X100468959Y-96829388D01*
X100310050Y-96630123D01*
X100123217Y-96456768D01*
X99912634Y-96313195D01*
X99864432Y-96289982D01*
X99687183Y-96204623D01*
X99687177Y-96204620D01*
X99683004Y-96202611D01*
X99678582Y-96201247D01*
X99678572Y-96201243D01*
X99443891Y-96128854D01*
X99443886Y-96128852D01*
X99439458Y-96127487D01*
X99434878Y-96126796D01*
X99434871Y-96126795D01*
X99192018Y-96090190D01*
X99192007Y-96090189D01*
X99187435Y-96089500D01*
X98932565Y-96089500D01*
X98927993Y-96090189D01*
X98927981Y-96090190D01*
X98685128Y-96126795D01*
X98685118Y-96126797D01*
X98680542Y-96127487D01*
X98676116Y-96128851D01*
X98676108Y-96128854D01*
X98441427Y-96201243D01*
X98441412Y-96201248D01*
X98436996Y-96202611D01*
X98432827Y-96204618D01*
X98432816Y-96204623D01*
X98211551Y-96311179D01*
X98211544Y-96311182D01*
X98207366Y-96313195D01*
X97996783Y-96456768D01*
X97993391Y-96459914D01*
X97993385Y-96459920D01*
X97922820Y-96525395D01*
X97809950Y-96630123D01*
X97807060Y-96633745D01*
X97807057Y-96633750D01*
X97653933Y-96825761D01*
X97651041Y-96829388D01*
X97648722Y-96833403D01*
X97648721Y-96833406D01*
X97525928Y-97046091D01*
X97525925Y-97046096D01*
X97523607Y-97050112D01*
X97521913Y-97054426D01*
X97521911Y-97054432D01*
X97432189Y-97283038D01*
X97430492Y-97287363D01*
X97429459Y-97291884D01*
X97429458Y-97291891D01*
X97374809Y-97531323D01*
X97374807Y-97531331D01*
X97373778Y-97535843D01*
X97373431Y-97540462D01*
X97373431Y-97540468D01*
X97366366Y-97634752D01*
X97354732Y-97790000D01*
X95685268Y-97790000D01*
X95666222Y-97535843D01*
X95609508Y-97287363D01*
X95516393Y-97050112D01*
X95388959Y-96829388D01*
X95230050Y-96630123D01*
X95043217Y-96456768D01*
X94832634Y-96313195D01*
X94784432Y-96289982D01*
X94607183Y-96204623D01*
X94607177Y-96204620D01*
X94603004Y-96202611D01*
X94598582Y-96201247D01*
X94598572Y-96201243D01*
X94363891Y-96128854D01*
X94363886Y-96128852D01*
X94359458Y-96127487D01*
X94354878Y-96126796D01*
X94354871Y-96126795D01*
X94112018Y-96090190D01*
X94112007Y-96090189D01*
X94107435Y-96089500D01*
X93852565Y-96089500D01*
X93847993Y-96090189D01*
X93847981Y-96090190D01*
X93605128Y-96126795D01*
X93605118Y-96126797D01*
X93600542Y-96127487D01*
X93596116Y-96128851D01*
X93596108Y-96128854D01*
X93361427Y-96201243D01*
X93361412Y-96201248D01*
X93356996Y-96202611D01*
X93352827Y-96204618D01*
X93352816Y-96204623D01*
X93131551Y-96311179D01*
X93131544Y-96311182D01*
X93127366Y-96313195D01*
X92916783Y-96456768D01*
X92913391Y-96459914D01*
X92913385Y-96459920D01*
X92842820Y-96525395D01*
X92729950Y-96630123D01*
X92727060Y-96633745D01*
X92727057Y-96633750D01*
X92573933Y-96825761D01*
X92571041Y-96829388D01*
X92568722Y-96833403D01*
X92568721Y-96833406D01*
X92445928Y-97046091D01*
X92445925Y-97046096D01*
X92443607Y-97050112D01*
X92441913Y-97054426D01*
X92441911Y-97054432D01*
X92352189Y-97283038D01*
X92350492Y-97287363D01*
X92349459Y-97291884D01*
X92349458Y-97291891D01*
X92294809Y-97531323D01*
X92294807Y-97531331D01*
X92293778Y-97535843D01*
X92293431Y-97540462D01*
X92293431Y-97540468D01*
X92286366Y-97634752D01*
X92274732Y-97790000D01*
X90605268Y-97790000D01*
X90586222Y-97535843D01*
X90529508Y-97287363D01*
X90436393Y-97050112D01*
X90308959Y-96829388D01*
X90150050Y-96630123D01*
X89963217Y-96456768D01*
X89752634Y-96313195D01*
X89704432Y-96289982D01*
X89527183Y-96204623D01*
X89527177Y-96204620D01*
X89523004Y-96202611D01*
X89518582Y-96201247D01*
X89518572Y-96201243D01*
X89283891Y-96128854D01*
X89283886Y-96128852D01*
X89279458Y-96127487D01*
X89274878Y-96126796D01*
X89274871Y-96126795D01*
X89032018Y-96090190D01*
X89032007Y-96090189D01*
X89027435Y-96089500D01*
X88772565Y-96089500D01*
X88767993Y-96090189D01*
X88767981Y-96090190D01*
X88525128Y-96126795D01*
X88525118Y-96126797D01*
X88520542Y-96127487D01*
X88516116Y-96128851D01*
X88516108Y-96128854D01*
X88281427Y-96201243D01*
X88281412Y-96201248D01*
X88276996Y-96202611D01*
X88272827Y-96204618D01*
X88272816Y-96204623D01*
X88051551Y-96311179D01*
X88051544Y-96311182D01*
X88047366Y-96313195D01*
X87836783Y-96456768D01*
X87833391Y-96459914D01*
X87833385Y-96459920D01*
X87762820Y-96525395D01*
X87649950Y-96630123D01*
X87647060Y-96633745D01*
X87647057Y-96633750D01*
X87493933Y-96825761D01*
X87491041Y-96829388D01*
X87488722Y-96833403D01*
X87488721Y-96833406D01*
X87365928Y-97046091D01*
X87365925Y-97046096D01*
X87363607Y-97050112D01*
X87361913Y-97054426D01*
X87361911Y-97054432D01*
X87272189Y-97283038D01*
X87270492Y-97287363D01*
X87269459Y-97291884D01*
X87269458Y-97291891D01*
X87214809Y-97531323D01*
X87214807Y-97531331D01*
X87213778Y-97535843D01*
X87213431Y-97540462D01*
X87213431Y-97540468D01*
X87206366Y-97634752D01*
X87194732Y-97790000D01*
X85525268Y-97790000D01*
X85506222Y-97535843D01*
X85449508Y-97287363D01*
X85356393Y-97050112D01*
X85228959Y-96829388D01*
X85070050Y-96630123D01*
X84883217Y-96456768D01*
X84672634Y-96313195D01*
X84624432Y-96289982D01*
X84447183Y-96204623D01*
X84447177Y-96204620D01*
X84443004Y-96202611D01*
X84438582Y-96201247D01*
X84438572Y-96201243D01*
X84203891Y-96128854D01*
X84203886Y-96128852D01*
X84199458Y-96127487D01*
X84194878Y-96126796D01*
X84194871Y-96126795D01*
X83952018Y-96090190D01*
X83952007Y-96090189D01*
X83947435Y-96089500D01*
X83692565Y-96089500D01*
X83687993Y-96090189D01*
X83687981Y-96090190D01*
X83445128Y-96126795D01*
X83445118Y-96126797D01*
X83440542Y-96127487D01*
X83436116Y-96128851D01*
X83436108Y-96128854D01*
X83201427Y-96201243D01*
X83201412Y-96201248D01*
X83196996Y-96202611D01*
X83192827Y-96204618D01*
X83192816Y-96204623D01*
X82971551Y-96311179D01*
X82971544Y-96311182D01*
X82967366Y-96313195D01*
X82756783Y-96456768D01*
X82753391Y-96459914D01*
X82753385Y-96459920D01*
X82682820Y-96525395D01*
X82569950Y-96630123D01*
X82567060Y-96633745D01*
X82567057Y-96633750D01*
X82413933Y-96825761D01*
X82411041Y-96829388D01*
X82408722Y-96833403D01*
X82408721Y-96833406D01*
X82285928Y-97046091D01*
X82285925Y-97046096D01*
X82283607Y-97050112D01*
X82281913Y-97054426D01*
X82281911Y-97054432D01*
X82192189Y-97283038D01*
X82190492Y-97287363D01*
X82189459Y-97291884D01*
X82189458Y-97291891D01*
X82134809Y-97531323D01*
X82134807Y-97531331D01*
X82133778Y-97535843D01*
X82133431Y-97540462D01*
X82133431Y-97540468D01*
X82126366Y-97634752D01*
X82114732Y-97790000D01*
X68590500Y-97790000D01*
X68590500Y-88900000D01*
X153609341Y-88900000D01*
X153629937Y-89135408D01*
X153631336Y-89140630D01*
X153631337Y-89140634D01*
X153689694Y-89358430D01*
X153689697Y-89358438D01*
X153691097Y-89363663D01*
X153693385Y-89368570D01*
X153693386Y-89368572D01*
X153788678Y-89572927D01*
X153788681Y-89572933D01*
X153790965Y-89577830D01*
X153794064Y-89582257D01*
X153794066Y-89582259D01*
X153923399Y-89766966D01*
X153923402Y-89766970D01*
X153926505Y-89771401D01*
X154093599Y-89938495D01*
X154287170Y-90074035D01*
X154501337Y-90173903D01*
X154729592Y-90235063D01*
X154965000Y-90255659D01*
X155200408Y-90235063D01*
X155428663Y-90173903D01*
X155642830Y-90074035D01*
X155836401Y-89938495D01*
X156003495Y-89771401D01*
X156139035Y-89577830D01*
X156238903Y-89363663D01*
X156300063Y-89135408D01*
X156320659Y-88900000D01*
X158664341Y-88900000D01*
X158684937Y-89135408D01*
X158686336Y-89140630D01*
X158686337Y-89140634D01*
X158744694Y-89358430D01*
X158744697Y-89358438D01*
X158746097Y-89363663D01*
X158748385Y-89368570D01*
X158748386Y-89368572D01*
X158843678Y-89572927D01*
X158843681Y-89572933D01*
X158845965Y-89577830D01*
X158849064Y-89582257D01*
X158849066Y-89582259D01*
X158978399Y-89766966D01*
X158978402Y-89766970D01*
X158981505Y-89771401D01*
X159148599Y-89938495D01*
X159342170Y-90074035D01*
X159556337Y-90173903D01*
X159784592Y-90235063D01*
X160020000Y-90255659D01*
X160255408Y-90235063D01*
X160483663Y-90173903D01*
X160697830Y-90074035D01*
X160891401Y-89938495D01*
X161058495Y-89771401D01*
X161194035Y-89577830D01*
X161293903Y-89363663D01*
X161355063Y-89135408D01*
X161375659Y-88900000D01*
X161355063Y-88664592D01*
X161293903Y-88436337D01*
X161194035Y-88222171D01*
X161058495Y-88028599D01*
X160891401Y-87861505D01*
X160886970Y-87858402D01*
X160886966Y-87858399D01*
X160705841Y-87731574D01*
X160666976Y-87687256D01*
X160652965Y-87629999D01*
X160666976Y-87572742D01*
X160705839Y-87528426D01*
X160891401Y-87398495D01*
X161058495Y-87231401D01*
X161194035Y-87037830D01*
X161293903Y-86823663D01*
X161355063Y-86595408D01*
X161375659Y-86360000D01*
X161355063Y-86124592D01*
X161293903Y-85896337D01*
X161194035Y-85682171D01*
X161058495Y-85488599D01*
X160891401Y-85321505D01*
X160886968Y-85318401D01*
X160886961Y-85318395D01*
X160705842Y-85191575D01*
X160666976Y-85147257D01*
X160652965Y-85090000D01*
X160666976Y-85032743D01*
X160705842Y-84988425D01*
X160886961Y-84861604D01*
X160886961Y-84861603D01*
X160891401Y-84858495D01*
X161058495Y-84691401D01*
X161194035Y-84497830D01*
X161293903Y-84283663D01*
X161355063Y-84055408D01*
X161375659Y-83820000D01*
X161355063Y-83584592D01*
X161293903Y-83356337D01*
X161194035Y-83142171D01*
X161058495Y-82948599D01*
X160936569Y-82826672D01*
X160905273Y-82773927D01*
X160903084Y-82712634D01*
X160930537Y-82657789D01*
X160980916Y-82622810D01*
X161112331Y-82573796D01*
X161227546Y-82487546D01*
X161313796Y-82372331D01*
X161364091Y-82237483D01*
X161370500Y-82177873D01*
X161370499Y-80382128D01*
X161364091Y-80322517D01*
X161313796Y-80187669D01*
X161227546Y-80072454D01*
X161112331Y-79986204D01*
X160977483Y-79935909D01*
X160969770Y-79935079D01*
X160969767Y-79935079D01*
X160921180Y-79929855D01*
X160921169Y-79929854D01*
X160917873Y-79929500D01*
X160914550Y-79929500D01*
X159125439Y-79929500D01*
X159125420Y-79929500D01*
X159122128Y-79929501D01*
X159118850Y-79929853D01*
X159118838Y-79929854D01*
X159070231Y-79935079D01*
X159070225Y-79935080D01*
X159062517Y-79935909D01*
X159055252Y-79938618D01*
X159055246Y-79938620D01*
X158935980Y-79983104D01*
X158935978Y-79983104D01*
X158927669Y-79986204D01*
X158920572Y-79991516D01*
X158920568Y-79991519D01*
X158819550Y-80067141D01*
X158819546Y-80067144D01*
X158812454Y-80072454D01*
X158807144Y-80079546D01*
X158807141Y-80079550D01*
X158731519Y-80180568D01*
X158731516Y-80180572D01*
X158726204Y-80187669D01*
X158723104Y-80195978D01*
X158723104Y-80195980D01*
X158678620Y-80315247D01*
X158678619Y-80315250D01*
X158675909Y-80322517D01*
X158675079Y-80330227D01*
X158675079Y-80330232D01*
X158669855Y-80378819D01*
X158669854Y-80378831D01*
X158669500Y-80382127D01*
X158669500Y-80385448D01*
X158669500Y-80385449D01*
X158669500Y-82174560D01*
X158669500Y-82174578D01*
X158669501Y-82177872D01*
X158669853Y-82181150D01*
X158669854Y-82181161D01*
X158675079Y-82229768D01*
X158675080Y-82229773D01*
X158675909Y-82237483D01*
X158678619Y-82244749D01*
X158678620Y-82244753D01*
X158704695Y-82314663D01*
X158726204Y-82372331D01*
X158731518Y-82379430D01*
X158731519Y-82379431D01*
X158787367Y-82454035D01*
X158812454Y-82487546D01*
X158927669Y-82573796D01*
X159034555Y-82613662D01*
X159059082Y-82622810D01*
X159109462Y-82657789D01*
X159136915Y-82712633D01*
X159134726Y-82773926D01*
X159103431Y-82826672D01*
X158981505Y-82948599D01*
X158978402Y-82953029D01*
X158978399Y-82953034D01*
X158849073Y-83137731D01*
X158849068Y-83137738D01*
X158845965Y-83142171D01*
X158843677Y-83147077D01*
X158843675Y-83147081D01*
X158748386Y-83351427D01*
X158748383Y-83351432D01*
X158746097Y-83356337D01*
X158744698Y-83361557D01*
X158744694Y-83361569D01*
X158686337Y-83579365D01*
X158686335Y-83579371D01*
X158684937Y-83584592D01*
X158684465Y-83589977D01*
X158684465Y-83589982D01*
X158670067Y-83754549D01*
X158664341Y-83820000D01*
X158664813Y-83825395D01*
X158673699Y-83926967D01*
X158684937Y-84055408D01*
X158686336Y-84060630D01*
X158686337Y-84060634D01*
X158744694Y-84278430D01*
X158744697Y-84278438D01*
X158746097Y-84283663D01*
X158748385Y-84288570D01*
X158748386Y-84288572D01*
X158843678Y-84492927D01*
X158843681Y-84492933D01*
X158845965Y-84497830D01*
X158849064Y-84502257D01*
X158849066Y-84502259D01*
X158978399Y-84686966D01*
X158978402Y-84686970D01*
X158981505Y-84691401D01*
X159148599Y-84858495D01*
X159153032Y-84861599D01*
X159153038Y-84861604D01*
X159334158Y-84988425D01*
X159373024Y-85032743D01*
X159387035Y-85090000D01*
X159373024Y-85147257D01*
X159334159Y-85191575D01*
X159153041Y-85318395D01*
X159148599Y-85321505D01*
X159144775Y-85325328D01*
X159144769Y-85325334D01*
X158985334Y-85484769D01*
X158985328Y-85484775D01*
X158981505Y-85488599D01*
X158978402Y-85493029D01*
X158978399Y-85493034D01*
X158849073Y-85677731D01*
X158849068Y-85677738D01*
X158845965Y-85682171D01*
X158843677Y-85687077D01*
X158843675Y-85687081D01*
X158748386Y-85891427D01*
X158748383Y-85891432D01*
X158746097Y-85896337D01*
X158744698Y-85901557D01*
X158744694Y-85901569D01*
X158686337Y-86119365D01*
X158686335Y-86119371D01*
X158684937Y-86124592D01*
X158684465Y-86129977D01*
X158684465Y-86129982D01*
X158673700Y-86253032D01*
X158664341Y-86360000D01*
X158664813Y-86365395D01*
X158682610Y-86568820D01*
X158684937Y-86595408D01*
X158686336Y-86600630D01*
X158686337Y-86600634D01*
X158744694Y-86818430D01*
X158744697Y-86818438D01*
X158746097Y-86823663D01*
X158748385Y-86828570D01*
X158748386Y-86828572D01*
X158843678Y-87032927D01*
X158843681Y-87032933D01*
X158845965Y-87037830D01*
X158849064Y-87042257D01*
X158849066Y-87042259D01*
X158978399Y-87226966D01*
X158978402Y-87226970D01*
X158981505Y-87231401D01*
X159148599Y-87398495D01*
X159153032Y-87401599D01*
X159153038Y-87401604D01*
X159334158Y-87528425D01*
X159373024Y-87572743D01*
X159387035Y-87630000D01*
X159373024Y-87687257D01*
X159334160Y-87731574D01*
X159148599Y-87861505D01*
X159144775Y-87865328D01*
X159144769Y-87865334D01*
X158985334Y-88024769D01*
X158985328Y-88024775D01*
X158981505Y-88028599D01*
X158978402Y-88033029D01*
X158978399Y-88033034D01*
X158849073Y-88217731D01*
X158849068Y-88217738D01*
X158845965Y-88222171D01*
X158843677Y-88227077D01*
X158843675Y-88227081D01*
X158748386Y-88431427D01*
X158748383Y-88431432D01*
X158746097Y-88436337D01*
X158744698Y-88441557D01*
X158744694Y-88441569D01*
X158686337Y-88659365D01*
X158686335Y-88659371D01*
X158684937Y-88664592D01*
X158664341Y-88900000D01*
X156320659Y-88900000D01*
X156300063Y-88664592D01*
X156238903Y-88436337D01*
X156139035Y-88222171D01*
X156003495Y-88028599D01*
X155836401Y-87861505D01*
X155831970Y-87858402D01*
X155831966Y-87858399D01*
X155650841Y-87731574D01*
X155611976Y-87687256D01*
X155597965Y-87629999D01*
X155611976Y-87572742D01*
X155650839Y-87528426D01*
X155836401Y-87398495D01*
X156003495Y-87231401D01*
X156139035Y-87037830D01*
X156238903Y-86823663D01*
X156300063Y-86595408D01*
X156320659Y-86360000D01*
X156300063Y-86124592D01*
X156238903Y-85896337D01*
X156139035Y-85682171D01*
X156003495Y-85488599D01*
X155836401Y-85321505D01*
X155831968Y-85318401D01*
X155831961Y-85318395D01*
X155650842Y-85191575D01*
X155611976Y-85147257D01*
X155597965Y-85090000D01*
X155611976Y-85032743D01*
X155650842Y-84988425D01*
X155831961Y-84861604D01*
X155831961Y-84861603D01*
X155836401Y-84858495D01*
X156003495Y-84691401D01*
X156139035Y-84497830D01*
X156238903Y-84283663D01*
X156300063Y-84055408D01*
X156320659Y-83820000D01*
X156300063Y-83584592D01*
X156238903Y-83356337D01*
X156139035Y-83142171D01*
X156003495Y-82948599D01*
X155881569Y-82826672D01*
X155850273Y-82773927D01*
X155848084Y-82712634D01*
X155875537Y-82657789D01*
X155925916Y-82622810D01*
X156057331Y-82573796D01*
X156172546Y-82487546D01*
X156258796Y-82372331D01*
X156309091Y-82237483D01*
X156315500Y-82177873D01*
X156315499Y-80382128D01*
X156309091Y-80322517D01*
X156258796Y-80187669D01*
X156172546Y-80072454D01*
X156057331Y-79986204D01*
X155922483Y-79935909D01*
X155914770Y-79935079D01*
X155914767Y-79935079D01*
X155866180Y-79929855D01*
X155866169Y-79929854D01*
X155862873Y-79929500D01*
X155859550Y-79929500D01*
X154070439Y-79929500D01*
X154070420Y-79929500D01*
X154067128Y-79929501D01*
X154063850Y-79929853D01*
X154063838Y-79929854D01*
X154015231Y-79935079D01*
X154015225Y-79935080D01*
X154007517Y-79935909D01*
X154000252Y-79938618D01*
X154000246Y-79938620D01*
X153880980Y-79983104D01*
X153880978Y-79983104D01*
X153872669Y-79986204D01*
X153865572Y-79991516D01*
X153865568Y-79991519D01*
X153764550Y-80067141D01*
X153764546Y-80067144D01*
X153757454Y-80072454D01*
X153752144Y-80079546D01*
X153752141Y-80079550D01*
X153676519Y-80180568D01*
X153676516Y-80180572D01*
X153671204Y-80187669D01*
X153668104Y-80195978D01*
X153668104Y-80195980D01*
X153623620Y-80315247D01*
X153623619Y-80315250D01*
X153620909Y-80322517D01*
X153620079Y-80330227D01*
X153620079Y-80330232D01*
X153614855Y-80378819D01*
X153614854Y-80378831D01*
X153614500Y-80382127D01*
X153614500Y-80385448D01*
X153614500Y-80385449D01*
X153614500Y-82174560D01*
X153614500Y-82174578D01*
X153614501Y-82177872D01*
X153614853Y-82181150D01*
X153614854Y-82181161D01*
X153620079Y-82229768D01*
X153620080Y-82229773D01*
X153620909Y-82237483D01*
X153623619Y-82244749D01*
X153623620Y-82244753D01*
X153649695Y-82314663D01*
X153671204Y-82372331D01*
X153676518Y-82379430D01*
X153676519Y-82379431D01*
X153732367Y-82454035D01*
X153757454Y-82487546D01*
X153872669Y-82573796D01*
X153979555Y-82613662D01*
X154004082Y-82622810D01*
X154054462Y-82657789D01*
X154081915Y-82712633D01*
X154079726Y-82773926D01*
X154048431Y-82826672D01*
X153926505Y-82948599D01*
X153923402Y-82953029D01*
X153923399Y-82953034D01*
X153794073Y-83137731D01*
X153794068Y-83137738D01*
X153790965Y-83142171D01*
X153788677Y-83147077D01*
X153788675Y-83147081D01*
X153693386Y-83351427D01*
X153693383Y-83351432D01*
X153691097Y-83356337D01*
X153689698Y-83361557D01*
X153689694Y-83361569D01*
X153631337Y-83579365D01*
X153631335Y-83579371D01*
X153629937Y-83584592D01*
X153629465Y-83589977D01*
X153629465Y-83589982D01*
X153615067Y-83754549D01*
X153609341Y-83820000D01*
X153609813Y-83825395D01*
X153618699Y-83926967D01*
X153629937Y-84055408D01*
X153631336Y-84060630D01*
X153631337Y-84060634D01*
X153689694Y-84278430D01*
X153689697Y-84278438D01*
X153691097Y-84283663D01*
X153693385Y-84288570D01*
X153693386Y-84288572D01*
X153788678Y-84492927D01*
X153788681Y-84492933D01*
X153790965Y-84497830D01*
X153794064Y-84502257D01*
X153794066Y-84502259D01*
X153923399Y-84686966D01*
X153923402Y-84686970D01*
X153926505Y-84691401D01*
X154093599Y-84858495D01*
X154098032Y-84861599D01*
X154098038Y-84861604D01*
X154279158Y-84988425D01*
X154318024Y-85032743D01*
X154332035Y-85090000D01*
X154318024Y-85147257D01*
X154279159Y-85191575D01*
X154098041Y-85318395D01*
X154093599Y-85321505D01*
X154089775Y-85325328D01*
X154089769Y-85325334D01*
X153930334Y-85484769D01*
X153930328Y-85484775D01*
X153926505Y-85488599D01*
X153923402Y-85493029D01*
X153923399Y-85493034D01*
X153794073Y-85677731D01*
X153794068Y-85677738D01*
X153790965Y-85682171D01*
X153788677Y-85687077D01*
X153788675Y-85687081D01*
X153693386Y-85891427D01*
X153693383Y-85891432D01*
X153691097Y-85896337D01*
X153689698Y-85901557D01*
X153689694Y-85901569D01*
X153631337Y-86119365D01*
X153631335Y-86119371D01*
X153629937Y-86124592D01*
X153629465Y-86129977D01*
X153629465Y-86129982D01*
X153618700Y-86253032D01*
X153609341Y-86360000D01*
X153609813Y-86365395D01*
X153627610Y-86568820D01*
X153629937Y-86595408D01*
X153631336Y-86600630D01*
X153631337Y-86600634D01*
X153689694Y-86818430D01*
X153689697Y-86818438D01*
X153691097Y-86823663D01*
X153693385Y-86828570D01*
X153693386Y-86828572D01*
X153788678Y-87032927D01*
X153788681Y-87032933D01*
X153790965Y-87037830D01*
X153794064Y-87042257D01*
X153794066Y-87042259D01*
X153923399Y-87226966D01*
X153923402Y-87226970D01*
X153926505Y-87231401D01*
X154093599Y-87398495D01*
X154098032Y-87401599D01*
X154098038Y-87401604D01*
X154279158Y-87528425D01*
X154318024Y-87572743D01*
X154332035Y-87630000D01*
X154318024Y-87687257D01*
X154279160Y-87731574D01*
X154093599Y-87861505D01*
X154089775Y-87865328D01*
X154089769Y-87865334D01*
X153930334Y-88024769D01*
X153930328Y-88024775D01*
X153926505Y-88028599D01*
X153923402Y-88033029D01*
X153923399Y-88033034D01*
X153794073Y-88217731D01*
X153794068Y-88217738D01*
X153790965Y-88222171D01*
X153788677Y-88227077D01*
X153788675Y-88227081D01*
X153693386Y-88431427D01*
X153693383Y-88431432D01*
X153691097Y-88436337D01*
X153689698Y-88441557D01*
X153689694Y-88441569D01*
X153631337Y-88659365D01*
X153631335Y-88659371D01*
X153629937Y-88664592D01*
X153609341Y-88900000D01*
X68590500Y-88900000D01*
X68590500Y-85090000D01*
X82114732Y-85090000D01*
X82115079Y-85094630D01*
X82132367Y-85325336D01*
X82133778Y-85344157D01*
X82134808Y-85348670D01*
X82134809Y-85348676D01*
X82166746Y-85488599D01*
X82190492Y-85592637D01*
X82283607Y-85829888D01*
X82411041Y-86050612D01*
X82569950Y-86249877D01*
X82756783Y-86423232D01*
X82967366Y-86566805D01*
X83196996Y-86677389D01*
X83201424Y-86678754D01*
X83201427Y-86678756D01*
X83301576Y-86709647D01*
X83440542Y-86752513D01*
X83692565Y-86790500D01*
X83942800Y-86790500D01*
X83947435Y-86790500D01*
X84199458Y-86752513D01*
X84443004Y-86677389D01*
X84672634Y-86566805D01*
X84883217Y-86423232D01*
X85070050Y-86249877D01*
X85228959Y-86050612D01*
X85356393Y-85829888D01*
X85449508Y-85592637D01*
X85506222Y-85344157D01*
X85525268Y-85090000D01*
X87194732Y-85090000D01*
X87195079Y-85094630D01*
X87212367Y-85325336D01*
X87213778Y-85344157D01*
X87214808Y-85348670D01*
X87214809Y-85348676D01*
X87246746Y-85488599D01*
X87270492Y-85592637D01*
X87363607Y-85829888D01*
X87491041Y-86050612D01*
X87649950Y-86249877D01*
X87836783Y-86423232D01*
X88047366Y-86566805D01*
X88276996Y-86677389D01*
X88281424Y-86678754D01*
X88281427Y-86678756D01*
X88381576Y-86709647D01*
X88520542Y-86752513D01*
X88772565Y-86790500D01*
X89022800Y-86790500D01*
X89027435Y-86790500D01*
X89279458Y-86752513D01*
X89523004Y-86677389D01*
X89752634Y-86566805D01*
X89963217Y-86423232D01*
X90150050Y-86249877D01*
X90308959Y-86050612D01*
X90436393Y-85829888D01*
X90529508Y-85592637D01*
X90586222Y-85344157D01*
X90605268Y-85090000D01*
X92274732Y-85090000D01*
X92275079Y-85094630D01*
X92292367Y-85325336D01*
X92293778Y-85344157D01*
X92294808Y-85348670D01*
X92294809Y-85348676D01*
X92326746Y-85488599D01*
X92350492Y-85592637D01*
X92443607Y-85829888D01*
X92571041Y-86050612D01*
X92729950Y-86249877D01*
X92916783Y-86423232D01*
X93127366Y-86566805D01*
X93356996Y-86677389D01*
X93361424Y-86678754D01*
X93361427Y-86678756D01*
X93461576Y-86709647D01*
X93600542Y-86752513D01*
X93852565Y-86790500D01*
X94102800Y-86790500D01*
X94107435Y-86790500D01*
X94359458Y-86752513D01*
X94603004Y-86677389D01*
X94832634Y-86566805D01*
X95043217Y-86423232D01*
X95230050Y-86249877D01*
X95388959Y-86050612D01*
X95516393Y-85829888D01*
X95609508Y-85592637D01*
X95666222Y-85344157D01*
X95685268Y-85090000D01*
X97354732Y-85090000D01*
X97355079Y-85094630D01*
X97372367Y-85325336D01*
X97373778Y-85344157D01*
X97374808Y-85348670D01*
X97374809Y-85348676D01*
X97406746Y-85488599D01*
X97430492Y-85592637D01*
X97523607Y-85829888D01*
X97651041Y-86050612D01*
X97809950Y-86249877D01*
X97996783Y-86423232D01*
X98207366Y-86566805D01*
X98436996Y-86677389D01*
X98441424Y-86678754D01*
X98441427Y-86678756D01*
X98541576Y-86709647D01*
X98680542Y-86752513D01*
X98932565Y-86790500D01*
X99182800Y-86790500D01*
X99187435Y-86790500D01*
X99439458Y-86752513D01*
X99683004Y-86677389D01*
X99912634Y-86566805D01*
X100123217Y-86423232D01*
X100310050Y-86249877D01*
X100468959Y-86050612D01*
X100596393Y-85829888D01*
X100689508Y-85592637D01*
X100746222Y-85344157D01*
X100765268Y-85090000D01*
X107514732Y-85090000D01*
X107515079Y-85094630D01*
X107532367Y-85325336D01*
X107533778Y-85344157D01*
X107534808Y-85348670D01*
X107534809Y-85348676D01*
X107566746Y-85488599D01*
X107590492Y-85592637D01*
X107683607Y-85829888D01*
X107811041Y-86050612D01*
X107969950Y-86249877D01*
X108156783Y-86423232D01*
X108367366Y-86566805D01*
X108596996Y-86677389D01*
X108601424Y-86678754D01*
X108601427Y-86678756D01*
X108701576Y-86709647D01*
X108840542Y-86752513D01*
X109092565Y-86790500D01*
X109342800Y-86790500D01*
X109347435Y-86790500D01*
X109599458Y-86752513D01*
X109843004Y-86677389D01*
X110072634Y-86566805D01*
X110283217Y-86423232D01*
X110470050Y-86249877D01*
X110628959Y-86050612D01*
X110756393Y-85829888D01*
X110849508Y-85592637D01*
X110904331Y-85352441D01*
X112616181Y-85352441D01*
X112669936Y-85587957D01*
X112672669Y-85596817D01*
X112762360Y-85825346D01*
X112766379Y-85833692D01*
X112889135Y-86046310D01*
X112894347Y-86053955D01*
X113047424Y-86245908D01*
X113053718Y-86252691D01*
X113233697Y-86419688D01*
X113240921Y-86425449D01*
X113443786Y-86563760D01*
X113451799Y-86568385D01*
X113672999Y-86674910D01*
X113681609Y-86678289D01*
X113916223Y-86750658D01*
X113925240Y-86752716D01*
X114036763Y-86769525D01*
X114047668Y-86768811D01*
X114050000Y-86758137D01*
X114550000Y-86758137D01*
X114552331Y-86768811D01*
X114563236Y-86769525D01*
X114674759Y-86752716D01*
X114683776Y-86750658D01*
X114918390Y-86678289D01*
X114927001Y-86674910D01*
X115148202Y-86568385D01*
X115156214Y-86563760D01*
X115359078Y-86425450D01*
X115366302Y-86419688D01*
X115546281Y-86252691D01*
X115552575Y-86245908D01*
X115705652Y-86053955D01*
X115710864Y-86046310D01*
X115833620Y-85833692D01*
X115837639Y-85825346D01*
X115927330Y-85596817D01*
X115930063Y-85587957D01*
X115983818Y-85352441D01*
X115982050Y-85343694D01*
X115968918Y-85340000D01*
X114566326Y-85340000D01*
X114553450Y-85343450D01*
X114550000Y-85356326D01*
X114550000Y-86758137D01*
X114050000Y-86758137D01*
X114050000Y-85356326D01*
X114046549Y-85343450D01*
X114033674Y-85340000D01*
X112631082Y-85340000D01*
X112617949Y-85343694D01*
X112616181Y-85352441D01*
X110904331Y-85352441D01*
X110906222Y-85344157D01*
X110925268Y-85090000D01*
X117674732Y-85090000D01*
X117675079Y-85094630D01*
X117692367Y-85325336D01*
X117693778Y-85344157D01*
X117694808Y-85348670D01*
X117694809Y-85348676D01*
X117726746Y-85488599D01*
X117750492Y-85592637D01*
X117843607Y-85829888D01*
X117971041Y-86050612D01*
X118129950Y-86249877D01*
X118316783Y-86423232D01*
X118527366Y-86566805D01*
X118756996Y-86677389D01*
X118761424Y-86678754D01*
X118761427Y-86678756D01*
X118861576Y-86709647D01*
X119000542Y-86752513D01*
X119252565Y-86790500D01*
X119502800Y-86790500D01*
X119507435Y-86790500D01*
X119759458Y-86752513D01*
X120003004Y-86677389D01*
X120232634Y-86566805D01*
X120443217Y-86423232D01*
X120630050Y-86249877D01*
X120788959Y-86050612D01*
X120916393Y-85829888D01*
X121009508Y-85592637D01*
X121064331Y-85352441D01*
X122776181Y-85352441D01*
X122829936Y-85587957D01*
X122832669Y-85596817D01*
X122922360Y-85825346D01*
X122926379Y-85833692D01*
X123049135Y-86046310D01*
X123054347Y-86053955D01*
X123207424Y-86245908D01*
X123213718Y-86252691D01*
X123393697Y-86419688D01*
X123400921Y-86425449D01*
X123603786Y-86563760D01*
X123611799Y-86568385D01*
X123832999Y-86674910D01*
X123841609Y-86678289D01*
X124076223Y-86750658D01*
X124085240Y-86752716D01*
X124196763Y-86769525D01*
X124207668Y-86768811D01*
X124210000Y-86758137D01*
X124710000Y-86758137D01*
X124712331Y-86768811D01*
X124723236Y-86769525D01*
X124834759Y-86752716D01*
X124843776Y-86750658D01*
X125078390Y-86678289D01*
X125087001Y-86674910D01*
X125308202Y-86568385D01*
X125316214Y-86563760D01*
X125519078Y-86425450D01*
X125526302Y-86419688D01*
X125590630Y-86360000D01*
X133264341Y-86360000D01*
X133264813Y-86365395D01*
X133282610Y-86568820D01*
X133284937Y-86595408D01*
X133286336Y-86600630D01*
X133286337Y-86600634D01*
X133344694Y-86818430D01*
X133344697Y-86818438D01*
X133346097Y-86823663D01*
X133348385Y-86828570D01*
X133348386Y-86828572D01*
X133443678Y-87032927D01*
X133443681Y-87032933D01*
X133445965Y-87037830D01*
X133449064Y-87042257D01*
X133449066Y-87042259D01*
X133578399Y-87226966D01*
X133578402Y-87226970D01*
X133581505Y-87231401D01*
X133748599Y-87398495D01*
X133942170Y-87534035D01*
X134156337Y-87633903D01*
X134384592Y-87695063D01*
X134620000Y-87715659D01*
X134855408Y-87695063D01*
X135083663Y-87633903D01*
X135297830Y-87534035D01*
X135491401Y-87398495D01*
X135658495Y-87231401D01*
X135794035Y-87037830D01*
X135893903Y-86823663D01*
X135955063Y-86595408D01*
X135975659Y-86360000D01*
X135955063Y-86124592D01*
X135893903Y-85896337D01*
X135794035Y-85682171D01*
X135658495Y-85488599D01*
X135491401Y-85321505D01*
X135486968Y-85318401D01*
X135486961Y-85318395D01*
X135305842Y-85191575D01*
X135266976Y-85147257D01*
X135252965Y-85090000D01*
X135266976Y-85032743D01*
X135305842Y-84988425D01*
X135482714Y-84864578D01*
X139661823Y-84864578D01*
X139661824Y-84867872D01*
X139662176Y-84871150D01*
X139662177Y-84871161D01*
X139667402Y-84919768D01*
X139667403Y-84919773D01*
X139668232Y-84927483D01*
X139670942Y-84934749D01*
X139670943Y-84934753D01*
X139690962Y-84988425D01*
X139718527Y-85062331D01*
X139723841Y-85069430D01*
X139723842Y-85069431D01*
X139782102Y-85147257D01*
X139804777Y-85177546D01*
X139919992Y-85263796D01*
X140054840Y-85314091D01*
X140114450Y-85320500D01*
X142210195Y-85320499D01*
X142269806Y-85314091D01*
X142404654Y-85263796D01*
X142519869Y-85177546D01*
X142606119Y-85062331D01*
X142656414Y-84927483D01*
X142662823Y-84867873D01*
X142662822Y-83820000D01*
X147156680Y-83820000D01*
X147157104Y-83825117D01*
X147176790Y-84062701D01*
X147176791Y-84062709D01*
X147177215Y-84067821D01*
X147178472Y-84072788D01*
X147178474Y-84072795D01*
X147193823Y-84133406D01*
X147238260Y-84308881D01*
X147240320Y-84313577D01*
X147336089Y-84531910D01*
X147336092Y-84531916D01*
X147338150Y-84536607D01*
X147340950Y-84540893D01*
X147340954Y-84540900D01*
X147468998Y-84736885D01*
X147474159Y-84744785D01*
X147477633Y-84748559D01*
X147477634Y-84748560D01*
X147639107Y-84923967D01*
X147639110Y-84923970D01*
X147642579Y-84927738D01*
X147838814Y-85080474D01*
X148057513Y-85198828D01*
X148292709Y-85279571D01*
X148537988Y-85320500D01*
X148781524Y-85320500D01*
X148786658Y-85320500D01*
X149031937Y-85279571D01*
X149267133Y-85198828D01*
X149485832Y-85080474D01*
X149682067Y-84927738D01*
X149850487Y-84744785D01*
X149986496Y-84536607D01*
X150086386Y-84308881D01*
X150147431Y-84067821D01*
X150167966Y-83820000D01*
X150147431Y-83572179D01*
X150086386Y-83331119D01*
X149986496Y-83103393D01*
X149850487Y-82895215D01*
X149740235Y-82775449D01*
X149685538Y-82716032D01*
X149685534Y-82716029D01*
X149682067Y-82712262D01*
X149485832Y-82559526D01*
X149481320Y-82557084D01*
X149271639Y-82443610D01*
X149271633Y-82443607D01*
X149267133Y-82441172D01*
X149262292Y-82439510D01*
X149262285Y-82439507D01*
X149036788Y-82362094D01*
X149036784Y-82362093D01*
X149031937Y-82360429D01*
X149023091Y-82358952D01*
X148791721Y-82320344D01*
X148791710Y-82320343D01*
X148786658Y-82319500D01*
X148537988Y-82319500D01*
X148532936Y-82320343D01*
X148532924Y-82320344D01*
X148297766Y-82359585D01*
X148297764Y-82359585D01*
X148292709Y-82360429D01*
X148287864Y-82362092D01*
X148287857Y-82362094D01*
X148062360Y-82439507D01*
X148062349Y-82439511D01*
X148057513Y-82441172D01*
X148053016Y-82443605D01*
X148053006Y-82443610D01*
X147843325Y-82557084D01*
X147843318Y-82557088D01*
X147838814Y-82559526D01*
X147834771Y-82562672D01*
X147834763Y-82562678D01*
X147646627Y-82709111D01*
X147642579Y-82712262D01*
X147639116Y-82716023D01*
X147639107Y-82716032D01*
X147477634Y-82891439D01*
X147477628Y-82891446D01*
X147474159Y-82895215D01*
X147471354Y-82899506D01*
X147471351Y-82899512D01*
X147340954Y-83099099D01*
X147340947Y-83099111D01*
X147338150Y-83103393D01*
X147336095Y-83108077D01*
X147336089Y-83108089D01*
X147240320Y-83326422D01*
X147238260Y-83331119D01*
X147237002Y-83336084D01*
X147237001Y-83336089D01*
X147178474Y-83567204D01*
X147178472Y-83567213D01*
X147177215Y-83572179D01*
X147176791Y-83577288D01*
X147176790Y-83577298D01*
X147161658Y-83759920D01*
X147156680Y-83820000D01*
X142662822Y-83820000D01*
X142662822Y-82772128D01*
X142656414Y-82712517D01*
X142606119Y-82577669D01*
X142519869Y-82462454D01*
X142511676Y-82456321D01*
X142411754Y-82381519D01*
X142411753Y-82381518D01*
X142404654Y-82376204D01*
X142269806Y-82325909D01*
X142262093Y-82325079D01*
X142262090Y-82325079D01*
X142213503Y-82319855D01*
X142213492Y-82319854D01*
X142210196Y-82319500D01*
X142206873Y-82319500D01*
X140117762Y-82319500D01*
X140117743Y-82319500D01*
X140114451Y-82319501D01*
X140111173Y-82319853D01*
X140111161Y-82319854D01*
X140062554Y-82325079D01*
X140062548Y-82325080D01*
X140054840Y-82325909D01*
X140047575Y-82328618D01*
X140047569Y-82328620D01*
X139928303Y-82373104D01*
X139928301Y-82373104D01*
X139919992Y-82376204D01*
X139912895Y-82381516D01*
X139912891Y-82381519D01*
X139811873Y-82457141D01*
X139811869Y-82457144D01*
X139804777Y-82462454D01*
X139799467Y-82469546D01*
X139799464Y-82469550D01*
X139723842Y-82570568D01*
X139723839Y-82570572D01*
X139718527Y-82577669D01*
X139715427Y-82585978D01*
X139715427Y-82585980D01*
X139670943Y-82705247D01*
X139670942Y-82705250D01*
X139668232Y-82712517D01*
X139667402Y-82720227D01*
X139667402Y-82720232D01*
X139662178Y-82768819D01*
X139662177Y-82768831D01*
X139661823Y-82772127D01*
X139661823Y-82775448D01*
X139661823Y-82775449D01*
X139661823Y-84864560D01*
X139661823Y-84864578D01*
X135482714Y-84864578D01*
X135486961Y-84861604D01*
X135486961Y-84861603D01*
X135491401Y-84858495D01*
X135658495Y-84691401D01*
X135794035Y-84497830D01*
X135893903Y-84283663D01*
X135955063Y-84055408D01*
X135975659Y-83820000D01*
X135955063Y-83584592D01*
X135893903Y-83356337D01*
X135794035Y-83142171D01*
X135658495Y-82948599D01*
X135536569Y-82826672D01*
X135505273Y-82773927D01*
X135503084Y-82712634D01*
X135530537Y-82657789D01*
X135580916Y-82622810D01*
X135712331Y-82573796D01*
X135827546Y-82487546D01*
X135913796Y-82372331D01*
X135964091Y-82237483D01*
X135970500Y-82177873D01*
X135970499Y-80382128D01*
X135964091Y-80322517D01*
X135913796Y-80187669D01*
X135827546Y-80072454D01*
X135712331Y-79986204D01*
X135577483Y-79935909D01*
X135569770Y-79935079D01*
X135569767Y-79935079D01*
X135521180Y-79929855D01*
X135521169Y-79929854D01*
X135517873Y-79929500D01*
X135514550Y-79929500D01*
X133725439Y-79929500D01*
X133725420Y-79929500D01*
X133722128Y-79929501D01*
X133718850Y-79929853D01*
X133718838Y-79929854D01*
X133670231Y-79935079D01*
X133670225Y-79935080D01*
X133662517Y-79935909D01*
X133655252Y-79938618D01*
X133655246Y-79938620D01*
X133535980Y-79983104D01*
X133535978Y-79983104D01*
X133527669Y-79986204D01*
X133520572Y-79991516D01*
X133520568Y-79991519D01*
X133419550Y-80067141D01*
X133419546Y-80067144D01*
X133412454Y-80072454D01*
X133407144Y-80079546D01*
X133407141Y-80079550D01*
X133331519Y-80180568D01*
X133331516Y-80180572D01*
X133326204Y-80187669D01*
X133323104Y-80195978D01*
X133323104Y-80195980D01*
X133278620Y-80315247D01*
X133278619Y-80315250D01*
X133275909Y-80322517D01*
X133275079Y-80330227D01*
X133275079Y-80330232D01*
X133269855Y-80378819D01*
X133269854Y-80378831D01*
X133269500Y-80382127D01*
X133269500Y-80385448D01*
X133269500Y-80385449D01*
X133269500Y-82174560D01*
X133269500Y-82174578D01*
X133269501Y-82177872D01*
X133269853Y-82181150D01*
X133269854Y-82181161D01*
X133275079Y-82229768D01*
X133275080Y-82229773D01*
X133275909Y-82237483D01*
X133278619Y-82244749D01*
X133278620Y-82244753D01*
X133304695Y-82314663D01*
X133326204Y-82372331D01*
X133331518Y-82379430D01*
X133331519Y-82379431D01*
X133387367Y-82454035D01*
X133412454Y-82487546D01*
X133527669Y-82573796D01*
X133634555Y-82613662D01*
X133659082Y-82622810D01*
X133709462Y-82657789D01*
X133736915Y-82712633D01*
X133734726Y-82773926D01*
X133703431Y-82826672D01*
X133581505Y-82948599D01*
X133578402Y-82953029D01*
X133578399Y-82953034D01*
X133449073Y-83137731D01*
X133449068Y-83137738D01*
X133445965Y-83142171D01*
X133443677Y-83147077D01*
X133443675Y-83147081D01*
X133348386Y-83351427D01*
X133348383Y-83351432D01*
X133346097Y-83356337D01*
X133344698Y-83361557D01*
X133344694Y-83361569D01*
X133286337Y-83579365D01*
X133286335Y-83579371D01*
X133284937Y-83584592D01*
X133284465Y-83589977D01*
X133284465Y-83589982D01*
X133270067Y-83754549D01*
X133264341Y-83820000D01*
X133264813Y-83825395D01*
X133273699Y-83926967D01*
X133284937Y-84055408D01*
X133286336Y-84060630D01*
X133286337Y-84060634D01*
X133344694Y-84278430D01*
X133344697Y-84278438D01*
X133346097Y-84283663D01*
X133348385Y-84288570D01*
X133348386Y-84288572D01*
X133443678Y-84492927D01*
X133443681Y-84492933D01*
X133445965Y-84497830D01*
X133449064Y-84502257D01*
X133449066Y-84502259D01*
X133578399Y-84686966D01*
X133578402Y-84686970D01*
X133581505Y-84691401D01*
X133748599Y-84858495D01*
X133753032Y-84861599D01*
X133753038Y-84861604D01*
X133934158Y-84988425D01*
X133973024Y-85032743D01*
X133987035Y-85090000D01*
X133973024Y-85147257D01*
X133934159Y-85191575D01*
X133753041Y-85318395D01*
X133748599Y-85321505D01*
X133744775Y-85325328D01*
X133744769Y-85325334D01*
X133585334Y-85484769D01*
X133585328Y-85484775D01*
X133581505Y-85488599D01*
X133578402Y-85493029D01*
X133578399Y-85493034D01*
X133449073Y-85677731D01*
X133449068Y-85677738D01*
X133445965Y-85682171D01*
X133443677Y-85687077D01*
X133443675Y-85687081D01*
X133348386Y-85891427D01*
X133348383Y-85891432D01*
X133346097Y-85896337D01*
X133344698Y-85901557D01*
X133344694Y-85901569D01*
X133286337Y-86119365D01*
X133286335Y-86119371D01*
X133284937Y-86124592D01*
X133284465Y-86129977D01*
X133284465Y-86129982D01*
X133273700Y-86253032D01*
X133264341Y-86360000D01*
X125590630Y-86360000D01*
X125706281Y-86252691D01*
X125712575Y-86245908D01*
X125865652Y-86053955D01*
X125870864Y-86046310D01*
X125993620Y-85833692D01*
X125997639Y-85825346D01*
X126087330Y-85596817D01*
X126090063Y-85587957D01*
X126143818Y-85352441D01*
X126142050Y-85343694D01*
X126128918Y-85340000D01*
X124726326Y-85340000D01*
X124713450Y-85343450D01*
X124710000Y-85356326D01*
X124710000Y-86758137D01*
X124210000Y-86758137D01*
X124210000Y-85356326D01*
X124206549Y-85343450D01*
X124193674Y-85340000D01*
X122791082Y-85340000D01*
X122777949Y-85343694D01*
X122776181Y-85352441D01*
X121064331Y-85352441D01*
X121066222Y-85344157D01*
X121085268Y-85090000D01*
X121066222Y-84835843D01*
X121064331Y-84827558D01*
X122776181Y-84827558D01*
X122777949Y-84836305D01*
X122791082Y-84840000D01*
X124193674Y-84840000D01*
X124206549Y-84836549D01*
X124210000Y-84823674D01*
X124710000Y-84823674D01*
X124713450Y-84836549D01*
X124726326Y-84840000D01*
X126128918Y-84840000D01*
X126142050Y-84836305D01*
X126143818Y-84827558D01*
X126090063Y-84592042D01*
X126087330Y-84583182D01*
X125997639Y-84354653D01*
X125993620Y-84346307D01*
X125870864Y-84133689D01*
X125865652Y-84126044D01*
X125712575Y-83934091D01*
X125706281Y-83927308D01*
X125526302Y-83760311D01*
X125519078Y-83754549D01*
X125316214Y-83616239D01*
X125308202Y-83611614D01*
X125087001Y-83505089D01*
X125078390Y-83501710D01*
X124843776Y-83429341D01*
X124834759Y-83427283D01*
X124723236Y-83410474D01*
X124712331Y-83411188D01*
X124710000Y-83421863D01*
X124710000Y-84823674D01*
X124210000Y-84823674D01*
X124210000Y-83421863D01*
X124207668Y-83411188D01*
X124196763Y-83410474D01*
X124085240Y-83427283D01*
X124076223Y-83429341D01*
X123841609Y-83501710D01*
X123832999Y-83505089D01*
X123611799Y-83611614D01*
X123603786Y-83616239D01*
X123400921Y-83754550D01*
X123393697Y-83760311D01*
X123213718Y-83927308D01*
X123207424Y-83934091D01*
X123054347Y-84126044D01*
X123049135Y-84133689D01*
X122926379Y-84346307D01*
X122922360Y-84354653D01*
X122832669Y-84583182D01*
X122829936Y-84592042D01*
X122776181Y-84827558D01*
X121064331Y-84827558D01*
X121009508Y-84587363D01*
X120916393Y-84350112D01*
X120788959Y-84129388D01*
X120630050Y-83930123D01*
X120443217Y-83756768D01*
X120232634Y-83613195D01*
X120184432Y-83589982D01*
X120007183Y-83504623D01*
X120007177Y-83504620D01*
X120003004Y-83502611D01*
X119998582Y-83501247D01*
X119998572Y-83501243D01*
X119763891Y-83428854D01*
X119763886Y-83428852D01*
X119759458Y-83427487D01*
X119754878Y-83426796D01*
X119754871Y-83426795D01*
X119512018Y-83390190D01*
X119512007Y-83390189D01*
X119507435Y-83389500D01*
X119252565Y-83389500D01*
X119247993Y-83390189D01*
X119247981Y-83390190D01*
X119005128Y-83426795D01*
X119005118Y-83426797D01*
X119000542Y-83427487D01*
X118996116Y-83428851D01*
X118996108Y-83428854D01*
X118761427Y-83501243D01*
X118761412Y-83501248D01*
X118756996Y-83502611D01*
X118752827Y-83504618D01*
X118752816Y-83504623D01*
X118531551Y-83611179D01*
X118531544Y-83611182D01*
X118527366Y-83613195D01*
X118316783Y-83756768D01*
X118313391Y-83759914D01*
X118313385Y-83759920D01*
X118242820Y-83825395D01*
X118129950Y-83930123D01*
X118127060Y-83933745D01*
X118127057Y-83933750D01*
X117973933Y-84125761D01*
X117971041Y-84129388D01*
X117968722Y-84133403D01*
X117968721Y-84133406D01*
X117845928Y-84346091D01*
X117845925Y-84346096D01*
X117843607Y-84350112D01*
X117841913Y-84354426D01*
X117841911Y-84354432D01*
X117752189Y-84583038D01*
X117750492Y-84587363D01*
X117749459Y-84591884D01*
X117749458Y-84591891D01*
X117694809Y-84831323D01*
X117694807Y-84831331D01*
X117693778Y-84835843D01*
X117693431Y-84840462D01*
X117693431Y-84840468D01*
X117686366Y-84934752D01*
X117674732Y-85090000D01*
X110925268Y-85090000D01*
X110906222Y-84835843D01*
X110904331Y-84827558D01*
X112616181Y-84827558D01*
X112617949Y-84836305D01*
X112631082Y-84840000D01*
X114033674Y-84840000D01*
X114046549Y-84836549D01*
X114050000Y-84823674D01*
X114550000Y-84823674D01*
X114553450Y-84836549D01*
X114566326Y-84840000D01*
X115968918Y-84840000D01*
X115982050Y-84836305D01*
X115983818Y-84827558D01*
X115930063Y-84592042D01*
X115927330Y-84583182D01*
X115837639Y-84354653D01*
X115833620Y-84346307D01*
X115710864Y-84133689D01*
X115705652Y-84126044D01*
X115552575Y-83934091D01*
X115546281Y-83927308D01*
X115366302Y-83760311D01*
X115359078Y-83754549D01*
X115156214Y-83616239D01*
X115148202Y-83611614D01*
X114927001Y-83505089D01*
X114918390Y-83501710D01*
X114683776Y-83429341D01*
X114674759Y-83427283D01*
X114563236Y-83410474D01*
X114552331Y-83411188D01*
X114550000Y-83421863D01*
X114550000Y-84823674D01*
X114050000Y-84823674D01*
X114050000Y-83421863D01*
X114047668Y-83411188D01*
X114036763Y-83410474D01*
X113925240Y-83427283D01*
X113916223Y-83429341D01*
X113681609Y-83501710D01*
X113672999Y-83505089D01*
X113451799Y-83611614D01*
X113443786Y-83616239D01*
X113240921Y-83754550D01*
X113233697Y-83760311D01*
X113053718Y-83927308D01*
X113047424Y-83934091D01*
X112894347Y-84126044D01*
X112889135Y-84133689D01*
X112766379Y-84346307D01*
X112762360Y-84354653D01*
X112672669Y-84583182D01*
X112669936Y-84592042D01*
X112616181Y-84827558D01*
X110904331Y-84827558D01*
X110849508Y-84587363D01*
X110756393Y-84350112D01*
X110628959Y-84129388D01*
X110470050Y-83930123D01*
X110283217Y-83756768D01*
X110072634Y-83613195D01*
X110024432Y-83589982D01*
X109847183Y-83504623D01*
X109847177Y-83504620D01*
X109843004Y-83502611D01*
X109838582Y-83501247D01*
X109838572Y-83501243D01*
X109603891Y-83428854D01*
X109603886Y-83428852D01*
X109599458Y-83427487D01*
X109594878Y-83426796D01*
X109594871Y-83426795D01*
X109352018Y-83390190D01*
X109352007Y-83390189D01*
X109347435Y-83389500D01*
X109092565Y-83389500D01*
X109087993Y-83390189D01*
X109087981Y-83390190D01*
X108845128Y-83426795D01*
X108845118Y-83426797D01*
X108840542Y-83427487D01*
X108836116Y-83428851D01*
X108836108Y-83428854D01*
X108601427Y-83501243D01*
X108601412Y-83501248D01*
X108596996Y-83502611D01*
X108592827Y-83504618D01*
X108592816Y-83504623D01*
X108371551Y-83611179D01*
X108371544Y-83611182D01*
X108367366Y-83613195D01*
X108156783Y-83756768D01*
X108153391Y-83759914D01*
X108153385Y-83759920D01*
X108082820Y-83825395D01*
X107969950Y-83930123D01*
X107967060Y-83933745D01*
X107967057Y-83933750D01*
X107813933Y-84125761D01*
X107811041Y-84129388D01*
X107808722Y-84133403D01*
X107808721Y-84133406D01*
X107685928Y-84346091D01*
X107685925Y-84346096D01*
X107683607Y-84350112D01*
X107681913Y-84354426D01*
X107681911Y-84354432D01*
X107592189Y-84583038D01*
X107590492Y-84587363D01*
X107589459Y-84591884D01*
X107589458Y-84591891D01*
X107534809Y-84831323D01*
X107534807Y-84831331D01*
X107533778Y-84835843D01*
X107533431Y-84840462D01*
X107533431Y-84840468D01*
X107526366Y-84934752D01*
X107514732Y-85090000D01*
X100765268Y-85090000D01*
X100746222Y-84835843D01*
X100689508Y-84587363D01*
X100596393Y-84350112D01*
X100468959Y-84129388D01*
X100310050Y-83930123D01*
X100123217Y-83756768D01*
X99912634Y-83613195D01*
X99864432Y-83589982D01*
X99687183Y-83504623D01*
X99687177Y-83504620D01*
X99683004Y-83502611D01*
X99678582Y-83501247D01*
X99678572Y-83501243D01*
X99443891Y-83428854D01*
X99443886Y-83428852D01*
X99439458Y-83427487D01*
X99434878Y-83426796D01*
X99434871Y-83426795D01*
X99192018Y-83390190D01*
X99192007Y-83390189D01*
X99187435Y-83389500D01*
X98932565Y-83389500D01*
X98927993Y-83390189D01*
X98927981Y-83390190D01*
X98685128Y-83426795D01*
X98685118Y-83426797D01*
X98680542Y-83427487D01*
X98676116Y-83428851D01*
X98676108Y-83428854D01*
X98441427Y-83501243D01*
X98441412Y-83501248D01*
X98436996Y-83502611D01*
X98432827Y-83504618D01*
X98432816Y-83504623D01*
X98211551Y-83611179D01*
X98211544Y-83611182D01*
X98207366Y-83613195D01*
X97996783Y-83756768D01*
X97993391Y-83759914D01*
X97993385Y-83759920D01*
X97922820Y-83825395D01*
X97809950Y-83930123D01*
X97807060Y-83933745D01*
X97807057Y-83933750D01*
X97653933Y-84125761D01*
X97651041Y-84129388D01*
X97648722Y-84133403D01*
X97648721Y-84133406D01*
X97525928Y-84346091D01*
X97525925Y-84346096D01*
X97523607Y-84350112D01*
X97521913Y-84354426D01*
X97521911Y-84354432D01*
X97432189Y-84583038D01*
X97430492Y-84587363D01*
X97429459Y-84591884D01*
X97429458Y-84591891D01*
X97374809Y-84831323D01*
X97374807Y-84831331D01*
X97373778Y-84835843D01*
X97373431Y-84840462D01*
X97373431Y-84840468D01*
X97366366Y-84934752D01*
X97354732Y-85090000D01*
X95685268Y-85090000D01*
X95666222Y-84835843D01*
X95609508Y-84587363D01*
X95516393Y-84350112D01*
X95388959Y-84129388D01*
X95230050Y-83930123D01*
X95043217Y-83756768D01*
X94832634Y-83613195D01*
X94784432Y-83589982D01*
X94607183Y-83504623D01*
X94607177Y-83504620D01*
X94603004Y-83502611D01*
X94598582Y-83501247D01*
X94598572Y-83501243D01*
X94363891Y-83428854D01*
X94363886Y-83428852D01*
X94359458Y-83427487D01*
X94354878Y-83426796D01*
X94354871Y-83426795D01*
X94112018Y-83390190D01*
X94112007Y-83390189D01*
X94107435Y-83389500D01*
X93852565Y-83389500D01*
X93847993Y-83390189D01*
X93847981Y-83390190D01*
X93605128Y-83426795D01*
X93605118Y-83426797D01*
X93600542Y-83427487D01*
X93596116Y-83428851D01*
X93596108Y-83428854D01*
X93361427Y-83501243D01*
X93361412Y-83501248D01*
X93356996Y-83502611D01*
X93352827Y-83504618D01*
X93352816Y-83504623D01*
X93131551Y-83611179D01*
X93131544Y-83611182D01*
X93127366Y-83613195D01*
X92916783Y-83756768D01*
X92913391Y-83759914D01*
X92913385Y-83759920D01*
X92842820Y-83825395D01*
X92729950Y-83930123D01*
X92727060Y-83933745D01*
X92727057Y-83933750D01*
X92573933Y-84125761D01*
X92571041Y-84129388D01*
X92568722Y-84133403D01*
X92568721Y-84133406D01*
X92445928Y-84346091D01*
X92445925Y-84346096D01*
X92443607Y-84350112D01*
X92441913Y-84354426D01*
X92441911Y-84354432D01*
X92352189Y-84583038D01*
X92350492Y-84587363D01*
X92349459Y-84591884D01*
X92349458Y-84591891D01*
X92294809Y-84831323D01*
X92294807Y-84831331D01*
X92293778Y-84835843D01*
X92293431Y-84840462D01*
X92293431Y-84840468D01*
X92286366Y-84934752D01*
X92274732Y-85090000D01*
X90605268Y-85090000D01*
X90586222Y-84835843D01*
X90529508Y-84587363D01*
X90436393Y-84350112D01*
X90308959Y-84129388D01*
X90150050Y-83930123D01*
X89963217Y-83756768D01*
X89752634Y-83613195D01*
X89704432Y-83589982D01*
X89527183Y-83504623D01*
X89527177Y-83504620D01*
X89523004Y-83502611D01*
X89518582Y-83501247D01*
X89518572Y-83501243D01*
X89283891Y-83428854D01*
X89283886Y-83428852D01*
X89279458Y-83427487D01*
X89274878Y-83426796D01*
X89274871Y-83426795D01*
X89032018Y-83390190D01*
X89032007Y-83390189D01*
X89027435Y-83389500D01*
X88772565Y-83389500D01*
X88767993Y-83390189D01*
X88767981Y-83390190D01*
X88525128Y-83426795D01*
X88525118Y-83426797D01*
X88520542Y-83427487D01*
X88516116Y-83428851D01*
X88516108Y-83428854D01*
X88281427Y-83501243D01*
X88281412Y-83501248D01*
X88276996Y-83502611D01*
X88272827Y-83504618D01*
X88272816Y-83504623D01*
X88051551Y-83611179D01*
X88051544Y-83611182D01*
X88047366Y-83613195D01*
X87836783Y-83756768D01*
X87833391Y-83759914D01*
X87833385Y-83759920D01*
X87762820Y-83825395D01*
X87649950Y-83930123D01*
X87647060Y-83933745D01*
X87647057Y-83933750D01*
X87493933Y-84125761D01*
X87491041Y-84129388D01*
X87488722Y-84133403D01*
X87488721Y-84133406D01*
X87365928Y-84346091D01*
X87365925Y-84346096D01*
X87363607Y-84350112D01*
X87361913Y-84354426D01*
X87361911Y-84354432D01*
X87272189Y-84583038D01*
X87270492Y-84587363D01*
X87269459Y-84591884D01*
X87269458Y-84591891D01*
X87214809Y-84831323D01*
X87214807Y-84831331D01*
X87213778Y-84835843D01*
X87213431Y-84840462D01*
X87213431Y-84840468D01*
X87206366Y-84934752D01*
X87194732Y-85090000D01*
X85525268Y-85090000D01*
X85506222Y-84835843D01*
X85449508Y-84587363D01*
X85356393Y-84350112D01*
X85228959Y-84129388D01*
X85070050Y-83930123D01*
X84883217Y-83756768D01*
X84672634Y-83613195D01*
X84624432Y-83589982D01*
X84447183Y-83504623D01*
X84447177Y-83504620D01*
X84443004Y-83502611D01*
X84438582Y-83501247D01*
X84438572Y-83501243D01*
X84203891Y-83428854D01*
X84203886Y-83428852D01*
X84199458Y-83427487D01*
X84194878Y-83426796D01*
X84194871Y-83426795D01*
X83952018Y-83390190D01*
X83952007Y-83390189D01*
X83947435Y-83389500D01*
X83692565Y-83389500D01*
X83687993Y-83390189D01*
X83687981Y-83390190D01*
X83445128Y-83426795D01*
X83445118Y-83426797D01*
X83440542Y-83427487D01*
X83436116Y-83428851D01*
X83436108Y-83428854D01*
X83201427Y-83501243D01*
X83201412Y-83501248D01*
X83196996Y-83502611D01*
X83192827Y-83504618D01*
X83192816Y-83504623D01*
X82971551Y-83611179D01*
X82971544Y-83611182D01*
X82967366Y-83613195D01*
X82756783Y-83756768D01*
X82753391Y-83759914D01*
X82753385Y-83759920D01*
X82682820Y-83825395D01*
X82569950Y-83930123D01*
X82567060Y-83933745D01*
X82567057Y-83933750D01*
X82413933Y-84125761D01*
X82411041Y-84129388D01*
X82408722Y-84133403D01*
X82408721Y-84133406D01*
X82285928Y-84346091D01*
X82285925Y-84346096D01*
X82283607Y-84350112D01*
X82281913Y-84354426D01*
X82281911Y-84354432D01*
X82192189Y-84583038D01*
X82190492Y-84587363D01*
X82189459Y-84591884D01*
X82189458Y-84591891D01*
X82134809Y-84831323D01*
X82134807Y-84831331D01*
X82133778Y-84835843D01*
X82133431Y-84840462D01*
X82133431Y-84840468D01*
X82126366Y-84934752D01*
X82114732Y-85090000D01*
X68590500Y-85090000D01*
X68590500Y-81280000D01*
X72304341Y-81280000D01*
X72324937Y-81515408D01*
X72326336Y-81520630D01*
X72326337Y-81520634D01*
X72384694Y-81738430D01*
X72384697Y-81738438D01*
X72386097Y-81743663D01*
X72388385Y-81748570D01*
X72388386Y-81748572D01*
X72483678Y-81952927D01*
X72483681Y-81952933D01*
X72485965Y-81957830D01*
X72489064Y-81962257D01*
X72489066Y-81962259D01*
X72618399Y-82146966D01*
X72618402Y-82146970D01*
X72621505Y-82151401D01*
X72788599Y-82318495D01*
X72793031Y-82321598D01*
X72793033Y-82321600D01*
X72937260Y-82422589D01*
X72982170Y-82454035D01*
X72987070Y-82456320D01*
X72987072Y-82456321D01*
X73015442Y-82469550D01*
X73196337Y-82553903D01*
X73201567Y-82555304D01*
X73201569Y-82555305D01*
X73229086Y-82562678D01*
X73424592Y-82615063D01*
X73660000Y-82635659D01*
X73895408Y-82615063D01*
X74123663Y-82553903D01*
X74337830Y-82454035D01*
X74531401Y-82318495D01*
X74698495Y-82151401D01*
X74834035Y-81957830D01*
X74933903Y-81743663D01*
X74995063Y-81515408D01*
X75015659Y-81280000D01*
X74995063Y-81044592D01*
X74933903Y-80816337D01*
X74834035Y-80602171D01*
X74698495Y-80408599D01*
X74531401Y-80241505D01*
X74526968Y-80238401D01*
X74526961Y-80238395D01*
X74345842Y-80111575D01*
X74306976Y-80067257D01*
X74292965Y-80010000D01*
X74306976Y-79952743D01*
X74345842Y-79908425D01*
X74526961Y-79781604D01*
X74526961Y-79781603D01*
X74531401Y-79778495D01*
X74698495Y-79611401D01*
X74834035Y-79417830D01*
X74933903Y-79203663D01*
X74995063Y-78975408D01*
X75015659Y-78740000D01*
X74995063Y-78504592D01*
X74933903Y-78276337D01*
X74834035Y-78062171D01*
X74698495Y-77868599D01*
X74531401Y-77701505D01*
X74526968Y-77698401D01*
X74526961Y-77698395D01*
X74345842Y-77571575D01*
X74306976Y-77527257D01*
X74292965Y-77470000D01*
X74306976Y-77412743D01*
X74345842Y-77368425D01*
X74526961Y-77241604D01*
X74526961Y-77241603D01*
X74531401Y-77238495D01*
X74698495Y-77071401D01*
X74834035Y-76877830D01*
X74933903Y-76663663D01*
X74995063Y-76435408D01*
X75015659Y-76200000D01*
X74995063Y-75964592D01*
X74933903Y-75736337D01*
X74834035Y-75522171D01*
X74698495Y-75328599D01*
X74576569Y-75206673D01*
X74545273Y-75153927D01*
X74543084Y-75092634D01*
X74570537Y-75037789D01*
X74620916Y-75002810D01*
X74752331Y-74953796D01*
X74867546Y-74867546D01*
X74953796Y-74752331D01*
X75004091Y-74617483D01*
X75010500Y-74557873D01*
X75010499Y-72762128D01*
X75004091Y-72702517D01*
X74953796Y-72567669D01*
X74867546Y-72452454D01*
X74796843Y-72399526D01*
X74759431Y-72371519D01*
X74759430Y-72371518D01*
X74752331Y-72366204D01*
X74617483Y-72315909D01*
X74609770Y-72315079D01*
X74609767Y-72315079D01*
X74561180Y-72309855D01*
X74561169Y-72309854D01*
X74557873Y-72309500D01*
X74554550Y-72309500D01*
X72765439Y-72309500D01*
X72765420Y-72309500D01*
X72762128Y-72309501D01*
X72758850Y-72309853D01*
X72758838Y-72309854D01*
X72710231Y-72315079D01*
X72710225Y-72315080D01*
X72702517Y-72315909D01*
X72695252Y-72318618D01*
X72695246Y-72318620D01*
X72575980Y-72363104D01*
X72575978Y-72363104D01*
X72567669Y-72366204D01*
X72560572Y-72371516D01*
X72560568Y-72371519D01*
X72459550Y-72447141D01*
X72459546Y-72447144D01*
X72452454Y-72452454D01*
X72447144Y-72459546D01*
X72447141Y-72459550D01*
X72371519Y-72560568D01*
X72371516Y-72560572D01*
X72366204Y-72567669D01*
X72363104Y-72575978D01*
X72363104Y-72575980D01*
X72318620Y-72695247D01*
X72318619Y-72695250D01*
X72315909Y-72702517D01*
X72315079Y-72710227D01*
X72315079Y-72710232D01*
X72309855Y-72758819D01*
X72309854Y-72758831D01*
X72309500Y-72762127D01*
X72309500Y-72765448D01*
X72309500Y-72765449D01*
X72309500Y-74554560D01*
X72309500Y-74554578D01*
X72309501Y-74557872D01*
X72309853Y-74561150D01*
X72309854Y-74561161D01*
X72315079Y-74609768D01*
X72315080Y-74609773D01*
X72315909Y-74617483D01*
X72318619Y-74624749D01*
X72318620Y-74624753D01*
X72346499Y-74699500D01*
X72366204Y-74752331D01*
X72452454Y-74867546D01*
X72567669Y-74953796D01*
X72677405Y-74994725D01*
X72699082Y-75002810D01*
X72749462Y-75037789D01*
X72776915Y-75092633D01*
X72774726Y-75153926D01*
X72743431Y-75206673D01*
X72621505Y-75328599D01*
X72618402Y-75333029D01*
X72618399Y-75333034D01*
X72489073Y-75517731D01*
X72489068Y-75517738D01*
X72485965Y-75522171D01*
X72483677Y-75527077D01*
X72483675Y-75527081D01*
X72388386Y-75731427D01*
X72388383Y-75731432D01*
X72386097Y-75736337D01*
X72384698Y-75741557D01*
X72384694Y-75741569D01*
X72326337Y-75959365D01*
X72326335Y-75959371D01*
X72324937Y-75964592D01*
X72304341Y-76200000D01*
X72324937Y-76435408D01*
X72326336Y-76440630D01*
X72326337Y-76440634D01*
X72384694Y-76658430D01*
X72384697Y-76658438D01*
X72386097Y-76663663D01*
X72388385Y-76668570D01*
X72388386Y-76668572D01*
X72483678Y-76872927D01*
X72483681Y-76872933D01*
X72485965Y-76877830D01*
X72489064Y-76882257D01*
X72489066Y-76882259D01*
X72618399Y-77066966D01*
X72618402Y-77066970D01*
X72621505Y-77071401D01*
X72788599Y-77238495D01*
X72793032Y-77241599D01*
X72793038Y-77241604D01*
X72974158Y-77368425D01*
X73013024Y-77412743D01*
X73027035Y-77470000D01*
X73013024Y-77527257D01*
X72974159Y-77571575D01*
X72793041Y-77698395D01*
X72788599Y-77701505D01*
X72784775Y-77705328D01*
X72784769Y-77705334D01*
X72625334Y-77864769D01*
X72625328Y-77864775D01*
X72621505Y-77868599D01*
X72618402Y-77873029D01*
X72618399Y-77873034D01*
X72489073Y-78057731D01*
X72489068Y-78057738D01*
X72485965Y-78062171D01*
X72483677Y-78067077D01*
X72483675Y-78067081D01*
X72388386Y-78271427D01*
X72388383Y-78271432D01*
X72386097Y-78276337D01*
X72384698Y-78281557D01*
X72384694Y-78281569D01*
X72326337Y-78499365D01*
X72326335Y-78499371D01*
X72324937Y-78504592D01*
X72304341Y-78740000D01*
X72324937Y-78975408D01*
X72326336Y-78980630D01*
X72326337Y-78980634D01*
X72384694Y-79198430D01*
X72384697Y-79198438D01*
X72386097Y-79203663D01*
X72388385Y-79208570D01*
X72388386Y-79208572D01*
X72483678Y-79412927D01*
X72483681Y-79412933D01*
X72485965Y-79417830D01*
X72489064Y-79422257D01*
X72489066Y-79422259D01*
X72618399Y-79606966D01*
X72618402Y-79606970D01*
X72621505Y-79611401D01*
X72788599Y-79778495D01*
X72793032Y-79781599D01*
X72793038Y-79781604D01*
X72974158Y-79908425D01*
X73013024Y-79952743D01*
X73027035Y-80010000D01*
X73013024Y-80067257D01*
X72974159Y-80111575D01*
X72793041Y-80238395D01*
X72788599Y-80241505D01*
X72784775Y-80245328D01*
X72784769Y-80245334D01*
X72625334Y-80404769D01*
X72625328Y-80404775D01*
X72621505Y-80408599D01*
X72618402Y-80413029D01*
X72618399Y-80413034D01*
X72489073Y-80597731D01*
X72489068Y-80597738D01*
X72485965Y-80602171D01*
X72483677Y-80607077D01*
X72483675Y-80607081D01*
X72388386Y-80811427D01*
X72388383Y-80811432D01*
X72386097Y-80816337D01*
X72384698Y-80821557D01*
X72384694Y-80821569D01*
X72326337Y-81039365D01*
X72326335Y-81039371D01*
X72324937Y-81044592D01*
X72304341Y-81280000D01*
X68590500Y-81280000D01*
X68590500Y-66040000D01*
X72304341Y-66040000D01*
X72304813Y-66045395D01*
X72313328Y-66142726D01*
X72324937Y-66275408D01*
X72326336Y-66280630D01*
X72326337Y-66280634D01*
X72384694Y-66498430D01*
X72384697Y-66498438D01*
X72386097Y-66503663D01*
X72388385Y-66508570D01*
X72388386Y-66508572D01*
X72483678Y-66712927D01*
X72483681Y-66712933D01*
X72485965Y-66717830D01*
X72489064Y-66722257D01*
X72489066Y-66722259D01*
X72618399Y-66906966D01*
X72618402Y-66906970D01*
X72621505Y-66911401D01*
X72788599Y-67078495D01*
X72982170Y-67214035D01*
X73196337Y-67313903D01*
X73201567Y-67315304D01*
X73201569Y-67315305D01*
X73237752Y-67325000D01*
X73424592Y-67375063D01*
X73660000Y-67395659D01*
X73895408Y-67375063D01*
X74123663Y-67313903D01*
X74337830Y-67214035D01*
X74531401Y-67078495D01*
X74698495Y-66911401D01*
X74834035Y-66717830D01*
X74933903Y-66503663D01*
X74995063Y-66275408D01*
X75015659Y-66040000D01*
X74995063Y-65804592D01*
X74933903Y-65576337D01*
X74834035Y-65362171D01*
X74698495Y-65168599D01*
X74576181Y-65046285D01*
X74544885Y-64993539D01*
X74542696Y-64932246D01*
X74570149Y-64877401D01*
X74620529Y-64842422D01*
X74743777Y-64796452D01*
X74759189Y-64788037D01*
X74860092Y-64712501D01*
X74872501Y-64700092D01*
X74948037Y-64599189D01*
X74956452Y-64583777D01*
X75000888Y-64464641D01*
X75004426Y-64449667D01*
X75009646Y-64401114D01*
X75010000Y-64394518D01*
X75010000Y-63766326D01*
X75006549Y-63753450D01*
X74993674Y-63750000D01*
X72326326Y-63750000D01*
X72313450Y-63753450D01*
X72310000Y-63766326D01*
X72310000Y-64394518D01*
X72310353Y-64401114D01*
X72315573Y-64449667D01*
X72319111Y-64464641D01*
X72363547Y-64583777D01*
X72371962Y-64599189D01*
X72447498Y-64700092D01*
X72459907Y-64712501D01*
X72560810Y-64788037D01*
X72576220Y-64796451D01*
X72699471Y-64842422D01*
X72749850Y-64877401D01*
X72777303Y-64932246D01*
X72775114Y-64993538D01*
X72743819Y-65046285D01*
X72621505Y-65168599D01*
X72618402Y-65173029D01*
X72618399Y-65173034D01*
X72489073Y-65357731D01*
X72489068Y-65357738D01*
X72485965Y-65362171D01*
X72483677Y-65367077D01*
X72483675Y-65367081D01*
X72388386Y-65571427D01*
X72388383Y-65571432D01*
X72386097Y-65576337D01*
X72384698Y-65581557D01*
X72384694Y-65581569D01*
X72326337Y-65799365D01*
X72326335Y-65799371D01*
X72324937Y-65804592D01*
X72324465Y-65809977D01*
X72324465Y-65809982D01*
X72312113Y-65951166D01*
X72304341Y-66040000D01*
X68590500Y-66040000D01*
X68590500Y-63233674D01*
X72310000Y-63233674D01*
X72313450Y-63246549D01*
X72326326Y-63250000D01*
X73393674Y-63250000D01*
X73406549Y-63246549D01*
X73410000Y-63233674D01*
X73910000Y-63233674D01*
X73913450Y-63246549D01*
X73926326Y-63250000D01*
X74993674Y-63250000D01*
X75006549Y-63246549D01*
X75010000Y-63233674D01*
X75010000Y-62605482D01*
X75009646Y-62598885D01*
X75004426Y-62550332D01*
X75000888Y-62535358D01*
X74956452Y-62416222D01*
X74948037Y-62400810D01*
X74872501Y-62299907D01*
X74860092Y-62287498D01*
X74759189Y-62211962D01*
X74743777Y-62203547D01*
X74624641Y-62159111D01*
X74609667Y-62155573D01*
X74561114Y-62150353D01*
X74554518Y-62150000D01*
X73926326Y-62150000D01*
X73913450Y-62153450D01*
X73910000Y-62166326D01*
X73910000Y-63233674D01*
X73410000Y-63233674D01*
X73410000Y-62166326D01*
X73406549Y-62153450D01*
X73393674Y-62150000D01*
X72765482Y-62150000D01*
X72758885Y-62150353D01*
X72710332Y-62155573D01*
X72695358Y-62159111D01*
X72576222Y-62203547D01*
X72560810Y-62211962D01*
X72459907Y-62287498D01*
X72447498Y-62299907D01*
X72371962Y-62400810D01*
X72363547Y-62416222D01*
X72319111Y-62535358D01*
X72315573Y-62550332D01*
X72310353Y-62598885D01*
X72310000Y-62605482D01*
X72310000Y-63233674D01*
X68590500Y-63233674D01*
X68590500Y-61338000D01*
X68607113Y-61276000D01*
X68652500Y-61230613D01*
X68714500Y-61214000D01*
X76076000Y-61214000D01*
X76138000Y-61230613D01*
X76183387Y-61276000D01*
X76200000Y-61338000D01*
X76200000Y-78232000D01*
X76216326Y-78232000D01*
X91169674Y-78232000D01*
X91186000Y-78232000D01*
X91186000Y-76200000D01*
X115334357Y-76200000D01*
X115334781Y-76205117D01*
X115354467Y-76442701D01*
X115354468Y-76442709D01*
X115354892Y-76447821D01*
X115356149Y-76452788D01*
X115356151Y-76452795D01*
X115408226Y-76658430D01*
X115415937Y-76688881D01*
X115417997Y-76693577D01*
X115513766Y-76911910D01*
X115513769Y-76911916D01*
X115515827Y-76916607D01*
X115518627Y-76920893D01*
X115518631Y-76920900D01*
X115646675Y-77116885D01*
X115651836Y-77124785D01*
X115655310Y-77128559D01*
X115655311Y-77128560D01*
X115816784Y-77303967D01*
X115816787Y-77303970D01*
X115820256Y-77307738D01*
X116016491Y-77460474D01*
X116235190Y-77578828D01*
X116470386Y-77659571D01*
X116715665Y-77700500D01*
X116959201Y-77700500D01*
X116964335Y-77700500D01*
X117209614Y-77659571D01*
X117444810Y-77578828D01*
X117663509Y-77460474D01*
X117859744Y-77307738D01*
X118028164Y-77124785D01*
X118164173Y-76916607D01*
X118264063Y-76688881D01*
X118325108Y-76447821D01*
X118345643Y-76200000D01*
X122954357Y-76200000D01*
X122954781Y-76205117D01*
X122974467Y-76442701D01*
X122974468Y-76442709D01*
X122974892Y-76447821D01*
X122976149Y-76452788D01*
X122976151Y-76452795D01*
X123028226Y-76658430D01*
X123035937Y-76688881D01*
X123037997Y-76693577D01*
X123133766Y-76911910D01*
X123133769Y-76911916D01*
X123135827Y-76916607D01*
X123138627Y-76920893D01*
X123138631Y-76920900D01*
X123266675Y-77116885D01*
X123271836Y-77124785D01*
X123275310Y-77128559D01*
X123275311Y-77128560D01*
X123436784Y-77303967D01*
X123436787Y-77303970D01*
X123440256Y-77307738D01*
X123636491Y-77460474D01*
X123855190Y-77578828D01*
X124090386Y-77659571D01*
X124335665Y-77700500D01*
X124579201Y-77700500D01*
X124584335Y-77700500D01*
X124829614Y-77659571D01*
X125064810Y-77578828D01*
X125283509Y-77460474D01*
X125479744Y-77307738D01*
X125648164Y-77124785D01*
X125784173Y-76916607D01*
X125884063Y-76688881D01*
X125945108Y-76447821D01*
X125965643Y-76200000D01*
X148154732Y-76200000D01*
X148155079Y-76204630D01*
X148172919Y-76442701D01*
X148173778Y-76454157D01*
X148174808Y-76458670D01*
X148174809Y-76458676D01*
X148227352Y-76688881D01*
X148230492Y-76702637D01*
X148232188Y-76706960D01*
X148232189Y-76706961D01*
X148297326Y-76872927D01*
X148323607Y-76939888D01*
X148451041Y-77160612D01*
X148609950Y-77359877D01*
X148796783Y-77533232D01*
X149007366Y-77676805D01*
X149236996Y-77787389D01*
X149241424Y-77788754D01*
X149241427Y-77788756D01*
X149341576Y-77819647D01*
X149480542Y-77862513D01*
X149732565Y-77900500D01*
X149982800Y-77900500D01*
X149987435Y-77900500D01*
X150239458Y-77862513D01*
X150483004Y-77787389D01*
X150712634Y-77676805D01*
X150923217Y-77533232D01*
X151110050Y-77359877D01*
X151268959Y-77160612D01*
X151396393Y-76939888D01*
X151489508Y-76702637D01*
X151546222Y-76454157D01*
X151565268Y-76200000D01*
X151546222Y-75945843D01*
X151489508Y-75697363D01*
X151396393Y-75460112D01*
X151268959Y-75239388D01*
X151110050Y-75040123D01*
X150923217Y-74866768D01*
X150712634Y-74723195D01*
X150708448Y-74721179D01*
X150487183Y-74614623D01*
X150487177Y-74614620D01*
X150483004Y-74612611D01*
X150478582Y-74611247D01*
X150478572Y-74611243D01*
X150243891Y-74538854D01*
X150243886Y-74538852D01*
X150239458Y-74537487D01*
X150234878Y-74536796D01*
X150234871Y-74536795D01*
X149992018Y-74500190D01*
X149992007Y-74500189D01*
X149987435Y-74499500D01*
X149732565Y-74499500D01*
X149727993Y-74500189D01*
X149727981Y-74500190D01*
X149485128Y-74536795D01*
X149485118Y-74536797D01*
X149480542Y-74537487D01*
X149476116Y-74538851D01*
X149476108Y-74538854D01*
X149241427Y-74611243D01*
X149241412Y-74611248D01*
X149236996Y-74612611D01*
X149232827Y-74614618D01*
X149232816Y-74614623D01*
X149011551Y-74721179D01*
X149011544Y-74721182D01*
X149007366Y-74723195D01*
X149003533Y-74725808D01*
X149003530Y-74725810D01*
X148942033Y-74767738D01*
X148796783Y-74866768D01*
X148793391Y-74869914D01*
X148793385Y-74869920D01*
X148613351Y-75036967D01*
X148609950Y-75040123D01*
X148607060Y-75043745D01*
X148607057Y-75043750D01*
X148477130Y-75206673D01*
X148451041Y-75239388D01*
X148448722Y-75243403D01*
X148448721Y-75243406D01*
X148325928Y-75456091D01*
X148325925Y-75456096D01*
X148323607Y-75460112D01*
X148321913Y-75464426D01*
X148321911Y-75464432D01*
X148300993Y-75517731D01*
X148230492Y-75697363D01*
X148229459Y-75701884D01*
X148229458Y-75701891D01*
X148174809Y-75941323D01*
X148174807Y-75941331D01*
X148173778Y-75945843D01*
X148173431Y-75950462D01*
X148173431Y-75950468D01*
X148172373Y-75964592D01*
X148154732Y-76200000D01*
X125965643Y-76200000D01*
X125945108Y-75952179D01*
X125884063Y-75711119D01*
X125784173Y-75483393D01*
X125771785Y-75464432D01*
X125650971Y-75279512D01*
X125648164Y-75275215D01*
X125543487Y-75161505D01*
X125483215Y-75096032D01*
X125483211Y-75096029D01*
X125479744Y-75092262D01*
X125283509Y-74939526D01*
X125248304Y-74920474D01*
X125069316Y-74823610D01*
X125069310Y-74823607D01*
X125064810Y-74821172D01*
X125059969Y-74819510D01*
X125059962Y-74819507D01*
X124834465Y-74742094D01*
X124834461Y-74742093D01*
X124829614Y-74740429D01*
X124820768Y-74738952D01*
X124589398Y-74700344D01*
X124589387Y-74700343D01*
X124584335Y-74699500D01*
X124335665Y-74699500D01*
X124330613Y-74700343D01*
X124330601Y-74700344D01*
X124095443Y-74739585D01*
X124095441Y-74739585D01*
X124090386Y-74740429D01*
X124085541Y-74742092D01*
X124085534Y-74742094D01*
X123860037Y-74819507D01*
X123860026Y-74819511D01*
X123855190Y-74821172D01*
X123850693Y-74823605D01*
X123850683Y-74823610D01*
X123641002Y-74937084D01*
X123640995Y-74937088D01*
X123636491Y-74939526D01*
X123632448Y-74942672D01*
X123632440Y-74942678D01*
X123444304Y-75089111D01*
X123440256Y-75092262D01*
X123436793Y-75096023D01*
X123436784Y-75096032D01*
X123275311Y-75271439D01*
X123275305Y-75271446D01*
X123271836Y-75275215D01*
X123269031Y-75279506D01*
X123269028Y-75279512D01*
X123138631Y-75479099D01*
X123138624Y-75479111D01*
X123135827Y-75483393D01*
X123133772Y-75488077D01*
X123133766Y-75488089D01*
X123037997Y-75706422D01*
X123035937Y-75711119D01*
X123034679Y-75716084D01*
X123034678Y-75716089D01*
X122976151Y-75947204D01*
X122976149Y-75947213D01*
X122974892Y-75952179D01*
X122974468Y-75957288D01*
X122974467Y-75957298D01*
X122954804Y-76194605D01*
X122954357Y-76200000D01*
X118345643Y-76200000D01*
X118325108Y-75952179D01*
X118264063Y-75711119D01*
X118164173Y-75483393D01*
X118151785Y-75464432D01*
X118030971Y-75279512D01*
X118028164Y-75275215D01*
X117923487Y-75161505D01*
X117863215Y-75096032D01*
X117863211Y-75096029D01*
X117859744Y-75092262D01*
X117663509Y-74939526D01*
X117628304Y-74920474D01*
X117449316Y-74823610D01*
X117449310Y-74823607D01*
X117444810Y-74821172D01*
X117439969Y-74819510D01*
X117439962Y-74819507D01*
X117214465Y-74742094D01*
X117214461Y-74742093D01*
X117209614Y-74740429D01*
X117200768Y-74738952D01*
X116969398Y-74700344D01*
X116969387Y-74700343D01*
X116964335Y-74699500D01*
X116715665Y-74699500D01*
X116710613Y-74700343D01*
X116710601Y-74700344D01*
X116475443Y-74739585D01*
X116475441Y-74739585D01*
X116470386Y-74740429D01*
X116465541Y-74742092D01*
X116465534Y-74742094D01*
X116240037Y-74819507D01*
X116240026Y-74819511D01*
X116235190Y-74821172D01*
X116230693Y-74823605D01*
X116230683Y-74823610D01*
X116021002Y-74937084D01*
X116020995Y-74937088D01*
X116016491Y-74939526D01*
X116012448Y-74942672D01*
X116012440Y-74942678D01*
X115824304Y-75089111D01*
X115820256Y-75092262D01*
X115816793Y-75096023D01*
X115816784Y-75096032D01*
X115655311Y-75271439D01*
X115655305Y-75271446D01*
X115651836Y-75275215D01*
X115649031Y-75279506D01*
X115649028Y-75279512D01*
X115518631Y-75479099D01*
X115518624Y-75479111D01*
X115515827Y-75483393D01*
X115513772Y-75488077D01*
X115513766Y-75488089D01*
X115417997Y-75706422D01*
X115415937Y-75711119D01*
X115414679Y-75716084D01*
X115414678Y-75716089D01*
X115356151Y-75947204D01*
X115356149Y-75947213D01*
X115354892Y-75952179D01*
X115354468Y-75957288D01*
X115354467Y-75957298D01*
X115334804Y-76194605D01*
X115334357Y-76200000D01*
X91186000Y-76200000D01*
X91186000Y-72627198D01*
X91201723Y-72566766D01*
X91244903Y-72521659D01*
X91304591Y-72503316D01*
X91365651Y-72516388D01*
X91412599Y-72557560D01*
X91433528Y-72616391D01*
X91434386Y-72626206D01*
X91436260Y-72636837D01*
X91492332Y-72846097D01*
X91496020Y-72856231D01*
X91587579Y-73052580D01*
X91592967Y-73061912D01*
X91717232Y-73239381D01*
X91724169Y-73247647D01*
X91877352Y-73400830D01*
X91885618Y-73407767D01*
X92063087Y-73532032D01*
X92072419Y-73537420D01*
X92268765Y-73628977D01*
X92278907Y-73632669D01*
X92456219Y-73680179D01*
X92467448Y-73680547D01*
X92470000Y-73669605D01*
X92970000Y-73669605D01*
X92972551Y-73680547D01*
X92983780Y-73680179D01*
X93161092Y-73632669D01*
X93171234Y-73628977D01*
X93367580Y-73537420D01*
X93376912Y-73532032D01*
X93554381Y-73407767D01*
X93562647Y-73400830D01*
X93715830Y-73247647D01*
X93722767Y-73239381D01*
X93847032Y-73061912D01*
X93852420Y-73052580D01*
X93943977Y-72856234D01*
X93947669Y-72846092D01*
X93995179Y-72668780D01*
X93995547Y-72657551D01*
X93984605Y-72655000D01*
X92986326Y-72655000D01*
X92973450Y-72658450D01*
X92970000Y-72671326D01*
X92970000Y-73669605D01*
X92470000Y-73669605D01*
X92470000Y-72279000D01*
X92486613Y-72217000D01*
X92532000Y-72171613D01*
X92594000Y-72155000D01*
X93984605Y-72155000D01*
X93995547Y-72152448D01*
X93995179Y-72141219D01*
X93947669Y-71963907D01*
X93943977Y-71953765D01*
X93852420Y-71757419D01*
X93847032Y-71748087D01*
X93722767Y-71570618D01*
X93715830Y-71562352D01*
X93562647Y-71409169D01*
X93554381Y-71402232D01*
X93473466Y-71345575D01*
X93433139Y-71298358D01*
X93420760Y-71237510D01*
X93432587Y-71200000D01*
X115334357Y-71200000D01*
X115334781Y-71205117D01*
X115354467Y-71442701D01*
X115354468Y-71442709D01*
X115354892Y-71447821D01*
X115356149Y-71452788D01*
X115356151Y-71452795D01*
X115414678Y-71683910D01*
X115415937Y-71688881D01*
X115417997Y-71693577D01*
X115513766Y-71911910D01*
X115513769Y-71911916D01*
X115515827Y-71916607D01*
X115518627Y-71920893D01*
X115518631Y-71920900D01*
X115620351Y-72076593D01*
X115651836Y-72124785D01*
X115655310Y-72128559D01*
X115655311Y-72128560D01*
X115816784Y-72303967D01*
X115816787Y-72303970D01*
X115820256Y-72307738D01*
X116016491Y-72460474D01*
X116235190Y-72578828D01*
X116470386Y-72659571D01*
X116715665Y-72700500D01*
X116959201Y-72700500D01*
X116964335Y-72700500D01*
X117209614Y-72659571D01*
X117444810Y-72578828D01*
X117663509Y-72460474D01*
X117859744Y-72307738D01*
X118028164Y-72124785D01*
X118164173Y-71916607D01*
X118264063Y-71688881D01*
X118325108Y-71447821D01*
X118345643Y-71200000D01*
X122954357Y-71200000D01*
X122954781Y-71205117D01*
X122974467Y-71442701D01*
X122974468Y-71442709D01*
X122974892Y-71447821D01*
X122976149Y-71452788D01*
X122976151Y-71452795D01*
X123034678Y-71683910D01*
X123035937Y-71688881D01*
X123037997Y-71693577D01*
X123133766Y-71911910D01*
X123133769Y-71911916D01*
X123135827Y-71916607D01*
X123138627Y-71920893D01*
X123138631Y-71920900D01*
X123240351Y-72076593D01*
X123271836Y-72124785D01*
X123275310Y-72128559D01*
X123275311Y-72128560D01*
X123436784Y-72303967D01*
X123436787Y-72303970D01*
X123440256Y-72307738D01*
X123636491Y-72460474D01*
X123855190Y-72578828D01*
X124090386Y-72659571D01*
X124335665Y-72700500D01*
X124579201Y-72700500D01*
X124584335Y-72700500D01*
X124829614Y-72659571D01*
X125064810Y-72578828D01*
X125283509Y-72460474D01*
X125479744Y-72307738D01*
X125648164Y-72124785D01*
X125784173Y-71916607D01*
X125884063Y-71688881D01*
X125945108Y-71447821D01*
X125965643Y-71200000D01*
X125959014Y-71120000D01*
X131644732Y-71120000D01*
X131645079Y-71124630D01*
X131663145Y-71365721D01*
X131663778Y-71374157D01*
X131664808Y-71378670D01*
X131664809Y-71378676D01*
X131698228Y-71525092D01*
X131720492Y-71622637D01*
X131722188Y-71626960D01*
X131722189Y-71626961D01*
X131773390Y-71757419D01*
X131813607Y-71859888D01*
X131941041Y-72080612D01*
X132099950Y-72279877D01*
X132286783Y-72453232D01*
X132497366Y-72596805D01*
X132726996Y-72707389D01*
X132731424Y-72708754D01*
X132731427Y-72708756D01*
X132817206Y-72735215D01*
X132970542Y-72782513D01*
X133222565Y-72820500D01*
X133472800Y-72820500D01*
X133477435Y-72820500D01*
X133729458Y-72782513D01*
X133973004Y-72707389D01*
X134202634Y-72596805D01*
X134413217Y-72453232D01*
X134600050Y-72279877D01*
X134758959Y-72080612D01*
X134886393Y-71859888D01*
X134979508Y-71622637D01*
X135036222Y-71374157D01*
X135055268Y-71120000D01*
X144344732Y-71120000D01*
X144345079Y-71124630D01*
X144363145Y-71365721D01*
X144363778Y-71374157D01*
X144364808Y-71378670D01*
X144364809Y-71378676D01*
X144398228Y-71525092D01*
X144420492Y-71622637D01*
X144422188Y-71626960D01*
X144422189Y-71626961D01*
X144473390Y-71757419D01*
X144513607Y-71859888D01*
X144641041Y-72080612D01*
X144799950Y-72279877D01*
X144986783Y-72453232D01*
X145197366Y-72596805D01*
X145426996Y-72707389D01*
X145431424Y-72708754D01*
X145431427Y-72708756D01*
X145517206Y-72735215D01*
X145670542Y-72782513D01*
X145922565Y-72820500D01*
X146172800Y-72820500D01*
X146177435Y-72820500D01*
X146429458Y-72782513D01*
X146673004Y-72707389D01*
X146786876Y-72652551D01*
X158717688Y-72652551D01*
X158718056Y-72663780D01*
X158770168Y-72858263D01*
X158773856Y-72868397D01*
X158869113Y-73072676D01*
X158874501Y-73082008D01*
X159003784Y-73266643D01*
X159010721Y-73274909D01*
X159170090Y-73434278D01*
X159178356Y-73441215D01*
X159362991Y-73570498D01*
X159372323Y-73575886D01*
X159576602Y-73671143D01*
X159586736Y-73674831D01*
X159781219Y-73726943D01*
X159792448Y-73727311D01*
X159795000Y-73716369D01*
X160295000Y-73716369D01*
X160297551Y-73727311D01*
X160308780Y-73726943D01*
X160503263Y-73674831D01*
X160513397Y-73671143D01*
X160717676Y-73575886D01*
X160727008Y-73570498D01*
X160911643Y-73441215D01*
X160919909Y-73434278D01*
X161079278Y-73274909D01*
X161086215Y-73266643D01*
X161215498Y-73082008D01*
X161220886Y-73072676D01*
X161316143Y-72868397D01*
X161319831Y-72858263D01*
X161371943Y-72663780D01*
X161372311Y-72652551D01*
X161361369Y-72650000D01*
X160311326Y-72650000D01*
X160298450Y-72653450D01*
X160295000Y-72666326D01*
X160295000Y-73716369D01*
X159795000Y-73716369D01*
X159795000Y-72666326D01*
X159791549Y-72653450D01*
X159778674Y-72650000D01*
X158728631Y-72650000D01*
X158717688Y-72652551D01*
X146786876Y-72652551D01*
X146902634Y-72596805D01*
X147113217Y-72453232D01*
X147300050Y-72279877D01*
X147458959Y-72080612D01*
X147586393Y-71859888D01*
X147679508Y-71622637D01*
X147736222Y-71374157D01*
X147755268Y-71120000D01*
X147736222Y-70865843D01*
X147679508Y-70617363D01*
X147586393Y-70380112D01*
X147458959Y-70159388D01*
X147300050Y-69960123D01*
X147113217Y-69786768D01*
X146902634Y-69643195D01*
X146875197Y-69629982D01*
X146677183Y-69534623D01*
X146677177Y-69534620D01*
X146673004Y-69532611D01*
X146668582Y-69531247D01*
X146668572Y-69531243D01*
X146433891Y-69458854D01*
X146433886Y-69458852D01*
X146429458Y-69457487D01*
X146424878Y-69456796D01*
X146424871Y-69456795D01*
X146182018Y-69420190D01*
X146182007Y-69420189D01*
X146177435Y-69419500D01*
X145922565Y-69419500D01*
X145917993Y-69420189D01*
X145917981Y-69420190D01*
X145675128Y-69456795D01*
X145675118Y-69456797D01*
X145670542Y-69457487D01*
X145666116Y-69458851D01*
X145666108Y-69458854D01*
X145431427Y-69531243D01*
X145431412Y-69531248D01*
X145426996Y-69532611D01*
X145422827Y-69534618D01*
X145422816Y-69534623D01*
X145201551Y-69641179D01*
X145201544Y-69641182D01*
X145197366Y-69643195D01*
X145193533Y-69645808D01*
X145193530Y-69645810D01*
X145024334Y-69761166D01*
X144986783Y-69786768D01*
X144983391Y-69789914D01*
X144983385Y-69789920D01*
X144826316Y-69935659D01*
X144799950Y-69960123D01*
X144797060Y-69963745D01*
X144797057Y-69963750D01*
X144672794Y-70119571D01*
X144641041Y-70159388D01*
X144638722Y-70163403D01*
X144638721Y-70163406D01*
X144515928Y-70376091D01*
X144515925Y-70376096D01*
X144513607Y-70380112D01*
X144511913Y-70384426D01*
X144511911Y-70384432D01*
X144449968Y-70542259D01*
X144420492Y-70617363D01*
X144419459Y-70621884D01*
X144419458Y-70621891D01*
X144364809Y-70861323D01*
X144364807Y-70861331D01*
X144363778Y-70865843D01*
X144363431Y-70870462D01*
X144363431Y-70870468D01*
X144351174Y-71034035D01*
X144344732Y-71120000D01*
X135055268Y-71120000D01*
X135036222Y-70865843D01*
X134979508Y-70617363D01*
X134886393Y-70380112D01*
X134758959Y-70159388D01*
X134600050Y-69960123D01*
X134413217Y-69786768D01*
X134202634Y-69643195D01*
X134175197Y-69629982D01*
X133977183Y-69534623D01*
X133977177Y-69534620D01*
X133973004Y-69532611D01*
X133968582Y-69531247D01*
X133968572Y-69531243D01*
X133733891Y-69458854D01*
X133733886Y-69458852D01*
X133729458Y-69457487D01*
X133724878Y-69456796D01*
X133724871Y-69456795D01*
X133482018Y-69420190D01*
X133482007Y-69420189D01*
X133477435Y-69419500D01*
X133222565Y-69419500D01*
X133217993Y-69420189D01*
X133217981Y-69420190D01*
X132975128Y-69456795D01*
X132975118Y-69456797D01*
X132970542Y-69457487D01*
X132966116Y-69458851D01*
X132966108Y-69458854D01*
X132731427Y-69531243D01*
X132731412Y-69531248D01*
X132726996Y-69532611D01*
X132722827Y-69534618D01*
X132722816Y-69534623D01*
X132501551Y-69641179D01*
X132501544Y-69641182D01*
X132497366Y-69643195D01*
X132493533Y-69645808D01*
X132493530Y-69645810D01*
X132324334Y-69761166D01*
X132286783Y-69786768D01*
X132283391Y-69789914D01*
X132283385Y-69789920D01*
X132126316Y-69935659D01*
X132099950Y-69960123D01*
X132097060Y-69963745D01*
X132097057Y-69963750D01*
X131972794Y-70119571D01*
X131941041Y-70159388D01*
X131938722Y-70163403D01*
X131938721Y-70163406D01*
X131815928Y-70376091D01*
X131815925Y-70376096D01*
X131813607Y-70380112D01*
X131811913Y-70384426D01*
X131811911Y-70384432D01*
X131749968Y-70542259D01*
X131720492Y-70617363D01*
X131719459Y-70621884D01*
X131719458Y-70621891D01*
X131664809Y-70861323D01*
X131664807Y-70861331D01*
X131663778Y-70865843D01*
X131663431Y-70870462D01*
X131663431Y-70870468D01*
X131651174Y-71034035D01*
X131644732Y-71120000D01*
X125959014Y-71120000D01*
X125945108Y-70952179D01*
X125884063Y-70711119D01*
X125784173Y-70483393D01*
X125648164Y-70275215D01*
X125545237Y-70163406D01*
X125483215Y-70096032D01*
X125483211Y-70096029D01*
X125479744Y-70092262D01*
X125283509Y-69939526D01*
X125278997Y-69937084D01*
X125069316Y-69823610D01*
X125069310Y-69823607D01*
X125064810Y-69821172D01*
X125059969Y-69819510D01*
X125059962Y-69819507D01*
X124834465Y-69742094D01*
X124834461Y-69742093D01*
X124829614Y-69740429D01*
X124820768Y-69738952D01*
X124589398Y-69700344D01*
X124589387Y-69700343D01*
X124584335Y-69699500D01*
X124335665Y-69699500D01*
X124330613Y-69700343D01*
X124330601Y-69700344D01*
X124095443Y-69739585D01*
X124095441Y-69739585D01*
X124090386Y-69740429D01*
X124085541Y-69742092D01*
X124085534Y-69742094D01*
X123860037Y-69819507D01*
X123860026Y-69819511D01*
X123855190Y-69821172D01*
X123850693Y-69823605D01*
X123850683Y-69823610D01*
X123641002Y-69937084D01*
X123640995Y-69937088D01*
X123636491Y-69939526D01*
X123632448Y-69942672D01*
X123632440Y-69942678D01*
X123444304Y-70089111D01*
X123440256Y-70092262D01*
X123436793Y-70096023D01*
X123436784Y-70096032D01*
X123275311Y-70271439D01*
X123275305Y-70271446D01*
X123271836Y-70275215D01*
X123269031Y-70279506D01*
X123269028Y-70279512D01*
X123138631Y-70479099D01*
X123138624Y-70479111D01*
X123135827Y-70483393D01*
X123133772Y-70488077D01*
X123133766Y-70488089D01*
X123037997Y-70706422D01*
X123035937Y-70711119D01*
X123034679Y-70716084D01*
X123034678Y-70716089D01*
X122976151Y-70947204D01*
X122976149Y-70947213D01*
X122974892Y-70952179D01*
X122974468Y-70957288D01*
X122974467Y-70957298D01*
X122955388Y-71187562D01*
X122954357Y-71200000D01*
X118345643Y-71200000D01*
X118325108Y-70952179D01*
X118264063Y-70711119D01*
X118164173Y-70483393D01*
X118028164Y-70275215D01*
X117925237Y-70163406D01*
X117863215Y-70096032D01*
X117863211Y-70096029D01*
X117859744Y-70092262D01*
X117663509Y-69939526D01*
X117658997Y-69937084D01*
X117449316Y-69823610D01*
X117449310Y-69823607D01*
X117444810Y-69821172D01*
X117439969Y-69819510D01*
X117439962Y-69819507D01*
X117214465Y-69742094D01*
X117214461Y-69742093D01*
X117209614Y-69740429D01*
X117200768Y-69738952D01*
X116969398Y-69700344D01*
X116969387Y-69700343D01*
X116964335Y-69699500D01*
X116715665Y-69699500D01*
X116710613Y-69700343D01*
X116710601Y-69700344D01*
X116475443Y-69739585D01*
X116475441Y-69739585D01*
X116470386Y-69740429D01*
X116465541Y-69742092D01*
X116465534Y-69742094D01*
X116240037Y-69819507D01*
X116240026Y-69819511D01*
X116235190Y-69821172D01*
X116230693Y-69823605D01*
X116230683Y-69823610D01*
X116021002Y-69937084D01*
X116020995Y-69937088D01*
X116016491Y-69939526D01*
X116012448Y-69942672D01*
X116012440Y-69942678D01*
X115824304Y-70089111D01*
X115820256Y-70092262D01*
X115816793Y-70096023D01*
X115816784Y-70096032D01*
X115655311Y-70271439D01*
X115655305Y-70271446D01*
X115651836Y-70275215D01*
X115649031Y-70279506D01*
X115649028Y-70279512D01*
X115518631Y-70479099D01*
X115518624Y-70479111D01*
X115515827Y-70483393D01*
X115513772Y-70488077D01*
X115513766Y-70488089D01*
X115417997Y-70706422D01*
X115415937Y-70711119D01*
X115414679Y-70716084D01*
X115414678Y-70716089D01*
X115356151Y-70947204D01*
X115356149Y-70947213D01*
X115354892Y-70952179D01*
X115354468Y-70957288D01*
X115354467Y-70957298D01*
X115335388Y-71187562D01*
X115334357Y-71200000D01*
X93432587Y-71200000D01*
X93439432Y-71178290D01*
X93484474Y-71135547D01*
X93544590Y-71120000D01*
X101075674Y-71120000D01*
X101092000Y-71120000D01*
X101092000Y-68580000D01*
X153584341Y-68580000D01*
X153604937Y-68815408D01*
X153606336Y-68820630D01*
X153606337Y-68820634D01*
X153664694Y-69038430D01*
X153664697Y-69038438D01*
X153666097Y-69043663D01*
X153668385Y-69048570D01*
X153668386Y-69048572D01*
X153763678Y-69252927D01*
X153763681Y-69252933D01*
X153765965Y-69257830D01*
X153769064Y-69262257D01*
X153769066Y-69262259D01*
X153898399Y-69446966D01*
X153898402Y-69446970D01*
X153901505Y-69451401D01*
X154068599Y-69618495D01*
X154262170Y-69754035D01*
X154476337Y-69853903D01*
X154481567Y-69855304D01*
X154481569Y-69855305D01*
X154507362Y-69862216D01*
X154704592Y-69915063D01*
X154940000Y-69935659D01*
X155175408Y-69915063D01*
X155380908Y-69860000D01*
X158689341Y-69860000D01*
X158689813Y-69865395D01*
X158696574Y-69942678D01*
X158709937Y-70095408D01*
X158711336Y-70100630D01*
X158711337Y-70100634D01*
X158769694Y-70318430D01*
X158769697Y-70318438D01*
X158771097Y-70323663D01*
X158773385Y-70328570D01*
X158773386Y-70328572D01*
X158868678Y-70532927D01*
X158868681Y-70532933D01*
X158870965Y-70537830D01*
X158874064Y-70542257D01*
X158874066Y-70542259D01*
X159003399Y-70726966D01*
X159003402Y-70726970D01*
X159006505Y-70731401D01*
X159173599Y-70898495D01*
X159178031Y-70901598D01*
X159178033Y-70901600D01*
X159359595Y-71028731D01*
X159398460Y-71073049D01*
X159412471Y-71130306D01*
X159398460Y-71187563D01*
X159359595Y-71231881D01*
X159178352Y-71358788D01*
X159170092Y-71365719D01*
X159010719Y-71525092D01*
X159003784Y-71533357D01*
X158874508Y-71717982D01*
X158869110Y-71727332D01*
X158773856Y-71931602D01*
X158770168Y-71941736D01*
X158718056Y-72136219D01*
X158717688Y-72147448D01*
X158728631Y-72150000D01*
X161361369Y-72150000D01*
X161372311Y-72147448D01*
X161371943Y-72136219D01*
X161319831Y-71941736D01*
X161316143Y-71931602D01*
X161220889Y-71727332D01*
X161215491Y-71717982D01*
X161086215Y-71533357D01*
X161079280Y-71525092D01*
X160919909Y-71365721D01*
X160911643Y-71358784D01*
X160730405Y-71231880D01*
X160691540Y-71187562D01*
X160677529Y-71130305D01*
X160691540Y-71073048D01*
X160730406Y-71028730D01*
X160777767Y-70995568D01*
X160916401Y-70898495D01*
X161083495Y-70731401D01*
X161219035Y-70537830D01*
X161318903Y-70323663D01*
X161380063Y-70095408D01*
X161400659Y-69860000D01*
X161380063Y-69624592D01*
X161318903Y-69396337D01*
X161219035Y-69182171D01*
X161083495Y-68988599D01*
X160916401Y-68821505D01*
X160911968Y-68818401D01*
X160911961Y-68818395D01*
X160730842Y-68691575D01*
X160691976Y-68647257D01*
X160677965Y-68590000D01*
X160691976Y-68532743D01*
X160730842Y-68488425D01*
X160911961Y-68361604D01*
X160911961Y-68361603D01*
X160916401Y-68358495D01*
X161083495Y-68191401D01*
X161219035Y-67997830D01*
X161318903Y-67783663D01*
X161380063Y-67555408D01*
X161400659Y-67320000D01*
X161380063Y-67084592D01*
X161318903Y-66856337D01*
X161219035Y-66642171D01*
X161083495Y-66448599D01*
X160961569Y-66326672D01*
X160930273Y-66273927D01*
X160928084Y-66212634D01*
X160955537Y-66157789D01*
X161005916Y-66122810D01*
X161137331Y-66073796D01*
X161252546Y-65987546D01*
X161338796Y-65872331D01*
X161389091Y-65737483D01*
X161395500Y-65677873D01*
X161395499Y-63882128D01*
X161389091Y-63822517D01*
X161338796Y-63687669D01*
X161252546Y-63572454D01*
X161175797Y-63515000D01*
X161144431Y-63491519D01*
X161144430Y-63491518D01*
X161137331Y-63486204D01*
X161002483Y-63435909D01*
X160994770Y-63435079D01*
X160994767Y-63435079D01*
X160946180Y-63429855D01*
X160946169Y-63429854D01*
X160942873Y-63429500D01*
X160939550Y-63429500D01*
X159150439Y-63429500D01*
X159150420Y-63429500D01*
X159147128Y-63429501D01*
X159143850Y-63429853D01*
X159143838Y-63429854D01*
X159095231Y-63435079D01*
X159095225Y-63435080D01*
X159087517Y-63435909D01*
X159080252Y-63438618D01*
X159080246Y-63438620D01*
X158960980Y-63483104D01*
X158960978Y-63483104D01*
X158952669Y-63486204D01*
X158945572Y-63491516D01*
X158945568Y-63491519D01*
X158844550Y-63567141D01*
X158844546Y-63567144D01*
X158837454Y-63572454D01*
X158832144Y-63579546D01*
X158832141Y-63579550D01*
X158756519Y-63680568D01*
X158756516Y-63680572D01*
X158751204Y-63687669D01*
X158748104Y-63695978D01*
X158748104Y-63695980D01*
X158703620Y-63815247D01*
X158703619Y-63815250D01*
X158700909Y-63822517D01*
X158700079Y-63830227D01*
X158700079Y-63830232D01*
X158694855Y-63878819D01*
X158694854Y-63878831D01*
X158694500Y-63882127D01*
X158694500Y-63885448D01*
X158694500Y-63885449D01*
X158694500Y-65674560D01*
X158694500Y-65674578D01*
X158694501Y-65677872D01*
X158694853Y-65681150D01*
X158694854Y-65681161D01*
X158700079Y-65729768D01*
X158700080Y-65729773D01*
X158700909Y-65737483D01*
X158703619Y-65744749D01*
X158703620Y-65744753D01*
X158723561Y-65798216D01*
X158751204Y-65872331D01*
X158837454Y-65987546D01*
X158952669Y-66073796D01*
X159062405Y-66114725D01*
X159084082Y-66122810D01*
X159134462Y-66157789D01*
X159161915Y-66212633D01*
X159159726Y-66273926D01*
X159128431Y-66326673D01*
X159006505Y-66448599D01*
X159003402Y-66453029D01*
X159003399Y-66453034D01*
X158874073Y-66637731D01*
X158874068Y-66637738D01*
X158870965Y-66642171D01*
X158868677Y-66647077D01*
X158868675Y-66647081D01*
X158773386Y-66851427D01*
X158773383Y-66851432D01*
X158771097Y-66856337D01*
X158769698Y-66861557D01*
X158769694Y-66861569D01*
X158711337Y-67079365D01*
X158711335Y-67079371D01*
X158709937Y-67084592D01*
X158709465Y-67089977D01*
X158709465Y-67089982D01*
X158699129Y-67208120D01*
X158689341Y-67320000D01*
X158689813Y-67325395D01*
X158709055Y-67545336D01*
X158709937Y-67555408D01*
X158711336Y-67560630D01*
X158711337Y-67560634D01*
X158769694Y-67778430D01*
X158769697Y-67778438D01*
X158771097Y-67783663D01*
X158773385Y-67788570D01*
X158773386Y-67788572D01*
X158868678Y-67992927D01*
X158868681Y-67992933D01*
X158870965Y-67997830D01*
X158874064Y-68002257D01*
X158874066Y-68002259D01*
X159003399Y-68186966D01*
X159003402Y-68186970D01*
X159006505Y-68191401D01*
X159173599Y-68358495D01*
X159178032Y-68361599D01*
X159178038Y-68361604D01*
X159359158Y-68488425D01*
X159398024Y-68532743D01*
X159412035Y-68590000D01*
X159398024Y-68647257D01*
X159359159Y-68691575D01*
X159178041Y-68818395D01*
X159173599Y-68821505D01*
X159169775Y-68825328D01*
X159169769Y-68825334D01*
X159010334Y-68984769D01*
X159010328Y-68984775D01*
X159006505Y-68988599D01*
X159003402Y-68993029D01*
X159003399Y-68993034D01*
X158874073Y-69177731D01*
X158874068Y-69177738D01*
X158870965Y-69182171D01*
X158868677Y-69187077D01*
X158868675Y-69187081D01*
X158773386Y-69391427D01*
X158773383Y-69391432D01*
X158771097Y-69396337D01*
X158769698Y-69401557D01*
X158769694Y-69401569D01*
X158711337Y-69619365D01*
X158711335Y-69619371D01*
X158709937Y-69624592D01*
X158709465Y-69629977D01*
X158709465Y-69629982D01*
X158698883Y-69750933D01*
X158689341Y-69860000D01*
X155380908Y-69860000D01*
X155403663Y-69853903D01*
X155617830Y-69754035D01*
X155811401Y-69618495D01*
X155978495Y-69451401D01*
X156114035Y-69257830D01*
X156213903Y-69043663D01*
X156275063Y-68815408D01*
X156295659Y-68580000D01*
X156275063Y-68344592D01*
X156213903Y-68116337D01*
X156114035Y-67902171D01*
X155978495Y-67708599D01*
X155811401Y-67541505D01*
X155806970Y-67538402D01*
X155806966Y-67538399D01*
X155625405Y-67411269D01*
X155586540Y-67366951D01*
X155572529Y-67309694D01*
X155586540Y-67252437D01*
X155625406Y-67208119D01*
X155806638Y-67081219D01*
X155814909Y-67074278D01*
X155974278Y-66914909D01*
X155981215Y-66906643D01*
X156110498Y-66722008D01*
X156115886Y-66712676D01*
X156211143Y-66508397D01*
X156214831Y-66498263D01*
X156266943Y-66303780D01*
X156267311Y-66292551D01*
X156256369Y-66290000D01*
X153623631Y-66290000D01*
X153612688Y-66292551D01*
X153613056Y-66303780D01*
X153665168Y-66498263D01*
X153668856Y-66508397D01*
X153764113Y-66712676D01*
X153769501Y-66722008D01*
X153898784Y-66906643D01*
X153905721Y-66914909D01*
X154065090Y-67074278D01*
X154073356Y-67081215D01*
X154254595Y-67208120D01*
X154293460Y-67252438D01*
X154307471Y-67309695D01*
X154293460Y-67366952D01*
X154254594Y-67411270D01*
X154073034Y-67538399D01*
X154073029Y-67538402D01*
X154068599Y-67541505D01*
X154064775Y-67545328D01*
X154064769Y-67545334D01*
X153905334Y-67704769D01*
X153905328Y-67704775D01*
X153901505Y-67708599D01*
X153898402Y-67713029D01*
X153898399Y-67713034D01*
X153769073Y-67897731D01*
X153769068Y-67897738D01*
X153765965Y-67902171D01*
X153763677Y-67907077D01*
X153763675Y-67907081D01*
X153668386Y-68111427D01*
X153668383Y-68111432D01*
X153666097Y-68116337D01*
X153664698Y-68121557D01*
X153664694Y-68121569D01*
X153606337Y-68339365D01*
X153606335Y-68339371D01*
X153604937Y-68344592D01*
X153604465Y-68349977D01*
X153604465Y-68349982D01*
X153586814Y-68551739D01*
X153584341Y-68580000D01*
X101092000Y-68580000D01*
X101092000Y-63500000D01*
X148154732Y-63500000D01*
X148155079Y-63504630D01*
X148168795Y-63687669D01*
X148173778Y-63754157D01*
X148174808Y-63758670D01*
X148174809Y-63758676D01*
X148217533Y-63945861D01*
X148230492Y-64002637D01*
X148323607Y-64239888D01*
X148451041Y-64460612D01*
X148609950Y-64659877D01*
X148796783Y-64833232D01*
X149007366Y-64976805D01*
X149236996Y-65087389D01*
X149241424Y-65088754D01*
X149241427Y-65088756D01*
X149341576Y-65119647D01*
X149480542Y-65162513D01*
X149732565Y-65200500D01*
X149982800Y-65200500D01*
X149987435Y-65200500D01*
X150239458Y-65162513D01*
X150483004Y-65087389D01*
X150712634Y-64976805D01*
X150923217Y-64833232D01*
X151110050Y-64659877D01*
X151268959Y-64460612D01*
X151307083Y-64394578D01*
X153589500Y-64394578D01*
X153589501Y-64397872D01*
X153589853Y-64401150D01*
X153589854Y-64401161D01*
X153595079Y-64449768D01*
X153595080Y-64449773D01*
X153595909Y-64457483D01*
X153598619Y-64464749D01*
X153598620Y-64464753D01*
X153602906Y-64476244D01*
X153646204Y-64592331D01*
X153732454Y-64707546D01*
X153847669Y-64793796D01*
X153979598Y-64843002D01*
X154029977Y-64877981D01*
X154057431Y-64932825D01*
X154055242Y-64994118D01*
X154023947Y-65046865D01*
X153905714Y-65165098D01*
X153898784Y-65173357D01*
X153769508Y-65357982D01*
X153764110Y-65367332D01*
X153668856Y-65571602D01*
X153665168Y-65581736D01*
X153613056Y-65776219D01*
X153612688Y-65787448D01*
X153623631Y-65790000D01*
X156256369Y-65790000D01*
X156267311Y-65787448D01*
X156266943Y-65776219D01*
X156214831Y-65581736D01*
X156211143Y-65571602D01*
X156115889Y-65367332D01*
X156110491Y-65357982D01*
X155981215Y-65173357D01*
X155974280Y-65165092D01*
X155856053Y-65046865D01*
X155824757Y-64994119D01*
X155822568Y-64932825D01*
X155850022Y-64877981D01*
X155900398Y-64843003D01*
X156032331Y-64793796D01*
X156147546Y-64707546D01*
X156233796Y-64592331D01*
X156284091Y-64457483D01*
X156290500Y-64397873D01*
X156290499Y-62602128D01*
X156284091Y-62542517D01*
X156233796Y-62407669D01*
X156147546Y-62292454D01*
X156032331Y-62206204D01*
X155961965Y-62179959D01*
X155904752Y-62158620D01*
X155904750Y-62158619D01*
X155897483Y-62155909D01*
X155889770Y-62155079D01*
X155889767Y-62155079D01*
X155841180Y-62149855D01*
X155841169Y-62149854D01*
X155837873Y-62149500D01*
X155834550Y-62149500D01*
X154045439Y-62149500D01*
X154045420Y-62149500D01*
X154042128Y-62149501D01*
X154038850Y-62149853D01*
X154038838Y-62149854D01*
X153990231Y-62155079D01*
X153990225Y-62155080D01*
X153982517Y-62155909D01*
X153975252Y-62158618D01*
X153975246Y-62158620D01*
X153855980Y-62203104D01*
X153855978Y-62203104D01*
X153847669Y-62206204D01*
X153840572Y-62211516D01*
X153840568Y-62211519D01*
X153739550Y-62287141D01*
X153739546Y-62287144D01*
X153732454Y-62292454D01*
X153727144Y-62299546D01*
X153727141Y-62299550D01*
X153651519Y-62400568D01*
X153651516Y-62400572D01*
X153646204Y-62407669D01*
X153643104Y-62415978D01*
X153643104Y-62415980D01*
X153598620Y-62535247D01*
X153598619Y-62535250D01*
X153595909Y-62542517D01*
X153595079Y-62550227D01*
X153595079Y-62550232D01*
X153589855Y-62598819D01*
X153589854Y-62598831D01*
X153589500Y-62602127D01*
X153589500Y-62605448D01*
X153589500Y-62605449D01*
X153589500Y-64394560D01*
X153589500Y-64394578D01*
X151307083Y-64394578D01*
X151396393Y-64239888D01*
X151489508Y-64002637D01*
X151546222Y-63754157D01*
X151565268Y-63500000D01*
X151546222Y-63245843D01*
X151489508Y-62997363D01*
X151396393Y-62760112D01*
X151268959Y-62539388D01*
X151110050Y-62340123D01*
X150923217Y-62166768D01*
X150712634Y-62023195D01*
X150697187Y-62015756D01*
X150487183Y-61914623D01*
X150487177Y-61914620D01*
X150483004Y-61912611D01*
X150478582Y-61911247D01*
X150478572Y-61911243D01*
X150243891Y-61838854D01*
X150243886Y-61838852D01*
X150239458Y-61837487D01*
X150234878Y-61836796D01*
X150234871Y-61836795D01*
X149992018Y-61800190D01*
X149992007Y-61800189D01*
X149987435Y-61799500D01*
X149732565Y-61799500D01*
X149727993Y-61800189D01*
X149727981Y-61800190D01*
X149485128Y-61836795D01*
X149485118Y-61836797D01*
X149480542Y-61837487D01*
X149476116Y-61838851D01*
X149476108Y-61838854D01*
X149241427Y-61911243D01*
X149241412Y-61911248D01*
X149236996Y-61912611D01*
X149232827Y-61914618D01*
X149232816Y-61914623D01*
X149011551Y-62021179D01*
X149011544Y-62021182D01*
X149007366Y-62023195D01*
X149003533Y-62025808D01*
X149003530Y-62025810D01*
X148813203Y-62155573D01*
X148796783Y-62166768D01*
X148793391Y-62169914D01*
X148793385Y-62169920D01*
X148617922Y-62332726D01*
X148609950Y-62340123D01*
X148607060Y-62343745D01*
X148607057Y-62343750D01*
X148453933Y-62535761D01*
X148451041Y-62539388D01*
X148448722Y-62543403D01*
X148448721Y-62543406D01*
X148325928Y-62756091D01*
X148325925Y-62756096D01*
X148323607Y-62760112D01*
X148321913Y-62764426D01*
X148321911Y-62764432D01*
X148232189Y-62993038D01*
X148230492Y-62997363D01*
X148229459Y-63001884D01*
X148229458Y-63001891D01*
X148174809Y-63241323D01*
X148174807Y-63241331D01*
X148173778Y-63245843D01*
X148173431Y-63250462D01*
X148173431Y-63250468D01*
X148159597Y-63435079D01*
X148154732Y-63500000D01*
X101092000Y-63500000D01*
X101092000Y-58672551D01*
X158692688Y-58672551D01*
X158693056Y-58683780D01*
X158745168Y-58878263D01*
X158748856Y-58888397D01*
X158844113Y-59092676D01*
X158849501Y-59102008D01*
X158978784Y-59286643D01*
X158985721Y-59294909D01*
X159145090Y-59454278D01*
X159153356Y-59461215D01*
X159337991Y-59590498D01*
X159347323Y-59595886D01*
X159551602Y-59691143D01*
X159561736Y-59694831D01*
X159756219Y-59746943D01*
X159767448Y-59747311D01*
X159770000Y-59736369D01*
X160270000Y-59736369D01*
X160272551Y-59747311D01*
X160283780Y-59746943D01*
X160478263Y-59694831D01*
X160488397Y-59691143D01*
X160692676Y-59595886D01*
X160702008Y-59590498D01*
X160886643Y-59461215D01*
X160894909Y-59454278D01*
X161054278Y-59294909D01*
X161061215Y-59286643D01*
X161190498Y-59102008D01*
X161195886Y-59092676D01*
X161291143Y-58888397D01*
X161294831Y-58878263D01*
X161346943Y-58683780D01*
X161347311Y-58672551D01*
X161336369Y-58670000D01*
X160286326Y-58670000D01*
X160273450Y-58673450D01*
X160270000Y-58686326D01*
X160270000Y-59736369D01*
X159770000Y-59736369D01*
X159770000Y-58686326D01*
X159766549Y-58673450D01*
X159753674Y-58670000D01*
X158703631Y-58670000D01*
X158692688Y-58672551D01*
X101092000Y-58672551D01*
X101092000Y-55880000D01*
X158664341Y-55880000D01*
X158684937Y-56115408D01*
X158686336Y-56120630D01*
X158686337Y-56120634D01*
X158744694Y-56338430D01*
X158744697Y-56338438D01*
X158746097Y-56343663D01*
X158748385Y-56348570D01*
X158748386Y-56348572D01*
X158843678Y-56552927D01*
X158843681Y-56552933D01*
X158845965Y-56557830D01*
X158849064Y-56562257D01*
X158849066Y-56562259D01*
X158978399Y-56746966D01*
X158978402Y-56746970D01*
X158981505Y-56751401D01*
X159148599Y-56918495D01*
X159153031Y-56921598D01*
X159153033Y-56921600D01*
X159334595Y-57048731D01*
X159373460Y-57093049D01*
X159387471Y-57150306D01*
X159373460Y-57207563D01*
X159334595Y-57251881D01*
X159153352Y-57378788D01*
X159145092Y-57385719D01*
X158985719Y-57545092D01*
X158978784Y-57553357D01*
X158849508Y-57737982D01*
X158844110Y-57747332D01*
X158748856Y-57951602D01*
X158745168Y-57961736D01*
X158693056Y-58156219D01*
X158692688Y-58167448D01*
X158703631Y-58170000D01*
X161336369Y-58170000D01*
X161347311Y-58167448D01*
X161346943Y-58156219D01*
X161294831Y-57961736D01*
X161291143Y-57951602D01*
X161195889Y-57747332D01*
X161190491Y-57737982D01*
X161061215Y-57553357D01*
X161054280Y-57545092D01*
X160894909Y-57385721D01*
X160886643Y-57378784D01*
X160705405Y-57251880D01*
X160666540Y-57207562D01*
X160652529Y-57150305D01*
X160666540Y-57093048D01*
X160705406Y-57048730D01*
X160782818Y-56994526D01*
X160891401Y-56918495D01*
X161058495Y-56751401D01*
X161194035Y-56557830D01*
X161293903Y-56343663D01*
X161355063Y-56115408D01*
X161375659Y-55880000D01*
X161355063Y-55644592D01*
X161293903Y-55416337D01*
X161194035Y-55202171D01*
X161058495Y-55008599D01*
X160891401Y-54841505D01*
X160886970Y-54838402D01*
X160886966Y-54838399D01*
X160705841Y-54711574D01*
X160666976Y-54667256D01*
X160652965Y-54609999D01*
X160666976Y-54552742D01*
X160705839Y-54508426D01*
X160891401Y-54378495D01*
X161058495Y-54211401D01*
X161194035Y-54017830D01*
X161293903Y-53803663D01*
X161355063Y-53575408D01*
X161375659Y-53340000D01*
X161355063Y-53104592D01*
X161293903Y-52876337D01*
X161194035Y-52662171D01*
X161058495Y-52468599D01*
X160891401Y-52301505D01*
X160886968Y-52298401D01*
X160886961Y-52298395D01*
X160705842Y-52171575D01*
X160666976Y-52127257D01*
X160652965Y-52070000D01*
X160666976Y-52012743D01*
X160705842Y-51968425D01*
X160886961Y-51841604D01*
X160886961Y-51841603D01*
X160891401Y-51838495D01*
X161058495Y-51671401D01*
X161194035Y-51477830D01*
X161293903Y-51263663D01*
X161355063Y-51035408D01*
X161375659Y-50800000D01*
X161355063Y-50564592D01*
X161293903Y-50336337D01*
X161194035Y-50122171D01*
X161058495Y-49928599D01*
X160891401Y-49761505D01*
X160886968Y-49758401D01*
X160886961Y-49758395D01*
X160705842Y-49631575D01*
X160666976Y-49587257D01*
X160652965Y-49530000D01*
X160666976Y-49472743D01*
X160705842Y-49428425D01*
X160886961Y-49301604D01*
X160886961Y-49301603D01*
X160891401Y-49298495D01*
X161058495Y-49131401D01*
X161194035Y-48937830D01*
X161293903Y-48723663D01*
X161355063Y-48495408D01*
X161375659Y-48260000D01*
X161355063Y-48024592D01*
X161293903Y-47796337D01*
X161194035Y-47582171D01*
X161058495Y-47388599D01*
X160936569Y-47266673D01*
X160905273Y-47213927D01*
X160903084Y-47152634D01*
X160930537Y-47097789D01*
X160980916Y-47062810D01*
X161112331Y-47013796D01*
X161227546Y-46927546D01*
X161313796Y-46812331D01*
X161364091Y-46677483D01*
X161370500Y-46617873D01*
X161370499Y-44822128D01*
X161364091Y-44762517D01*
X161313796Y-44627669D01*
X161227546Y-44512454D01*
X161137030Y-44444694D01*
X161119431Y-44431519D01*
X161119430Y-44431518D01*
X161112331Y-44426204D01*
X161005442Y-44386337D01*
X160984752Y-44378620D01*
X160984750Y-44378619D01*
X160977483Y-44375909D01*
X160969770Y-44375079D01*
X160969767Y-44375079D01*
X160921180Y-44369855D01*
X160921169Y-44369854D01*
X160917873Y-44369500D01*
X160914550Y-44369500D01*
X159125439Y-44369500D01*
X159125420Y-44369500D01*
X159122128Y-44369501D01*
X159118850Y-44369853D01*
X159118838Y-44369854D01*
X159070231Y-44375079D01*
X159070225Y-44375080D01*
X159062517Y-44375909D01*
X159055252Y-44378618D01*
X159055246Y-44378620D01*
X158935980Y-44423104D01*
X158935978Y-44423104D01*
X158927669Y-44426204D01*
X158920572Y-44431516D01*
X158920568Y-44431519D01*
X158819550Y-44507141D01*
X158819546Y-44507144D01*
X158812454Y-44512454D01*
X158807144Y-44519546D01*
X158807141Y-44519550D01*
X158731519Y-44620568D01*
X158731516Y-44620572D01*
X158726204Y-44627669D01*
X158723104Y-44635978D01*
X158723104Y-44635980D01*
X158678620Y-44755247D01*
X158678619Y-44755250D01*
X158675909Y-44762517D01*
X158675079Y-44770227D01*
X158675079Y-44770232D01*
X158669855Y-44818819D01*
X158669854Y-44818831D01*
X158669500Y-44822127D01*
X158669500Y-44825448D01*
X158669500Y-44825449D01*
X158669500Y-46614560D01*
X158669500Y-46614578D01*
X158669501Y-46617872D01*
X158669853Y-46621150D01*
X158669854Y-46621161D01*
X158675079Y-46669768D01*
X158675080Y-46669773D01*
X158675909Y-46677483D01*
X158678619Y-46684749D01*
X158678620Y-46684753D01*
X158691953Y-46720500D01*
X158726204Y-46812331D01*
X158731518Y-46819430D01*
X158731519Y-46819431D01*
X158787367Y-46894035D01*
X158812454Y-46927546D01*
X158927669Y-47013796D01*
X159034555Y-47053662D01*
X159059082Y-47062810D01*
X159109462Y-47097789D01*
X159136915Y-47152633D01*
X159134726Y-47213926D01*
X159103431Y-47266672D01*
X158981505Y-47388599D01*
X158978402Y-47393029D01*
X158978399Y-47393034D01*
X158849073Y-47577731D01*
X158849068Y-47577738D01*
X158845965Y-47582171D01*
X158843677Y-47587077D01*
X158843675Y-47587081D01*
X158748386Y-47791427D01*
X158748383Y-47791432D01*
X158746097Y-47796337D01*
X158744698Y-47801557D01*
X158744694Y-47801569D01*
X158686337Y-48019365D01*
X158686335Y-48019371D01*
X158684937Y-48024592D01*
X158684465Y-48029977D01*
X158684465Y-48029982D01*
X158673697Y-48153059D01*
X158664341Y-48260000D01*
X158684937Y-48495408D01*
X158686336Y-48500630D01*
X158686337Y-48500634D01*
X158744694Y-48718430D01*
X158744697Y-48718438D01*
X158746097Y-48723663D01*
X158748385Y-48728570D01*
X158748386Y-48728572D01*
X158843678Y-48932927D01*
X158843681Y-48932933D01*
X158845965Y-48937830D01*
X158849064Y-48942257D01*
X158849066Y-48942259D01*
X158978399Y-49126966D01*
X158978402Y-49126970D01*
X158981505Y-49131401D01*
X159148599Y-49298495D01*
X159153032Y-49301599D01*
X159153038Y-49301604D01*
X159334158Y-49428425D01*
X159373024Y-49472743D01*
X159387035Y-49530000D01*
X159373024Y-49587257D01*
X159334159Y-49631575D01*
X159153041Y-49758395D01*
X159148599Y-49761505D01*
X159144775Y-49765328D01*
X159144769Y-49765334D01*
X158985334Y-49924769D01*
X158985328Y-49924775D01*
X158981505Y-49928599D01*
X158978402Y-49933029D01*
X158978399Y-49933034D01*
X158849073Y-50117731D01*
X158849068Y-50117738D01*
X158845965Y-50122171D01*
X158843677Y-50127077D01*
X158843675Y-50127081D01*
X158748386Y-50331427D01*
X158748383Y-50331432D01*
X158746097Y-50336337D01*
X158744698Y-50341557D01*
X158744694Y-50341569D01*
X158686337Y-50559365D01*
X158686335Y-50559371D01*
X158684937Y-50564592D01*
X158664341Y-50800000D01*
X158684937Y-51035408D01*
X158686336Y-51040630D01*
X158686337Y-51040634D01*
X158744694Y-51258430D01*
X158744697Y-51258438D01*
X158746097Y-51263663D01*
X158748385Y-51268570D01*
X158748386Y-51268572D01*
X158843678Y-51472927D01*
X158843681Y-51472933D01*
X158845965Y-51477830D01*
X158849064Y-51482257D01*
X158849066Y-51482259D01*
X158978399Y-51666966D01*
X158978402Y-51666970D01*
X158981505Y-51671401D01*
X159148599Y-51838495D01*
X159153032Y-51841599D01*
X159153038Y-51841604D01*
X159334158Y-51968425D01*
X159373024Y-52012743D01*
X159387035Y-52070000D01*
X159373024Y-52127257D01*
X159334159Y-52171575D01*
X159153041Y-52298395D01*
X159148599Y-52301505D01*
X159144775Y-52305328D01*
X159144769Y-52305334D01*
X158985334Y-52464769D01*
X158985328Y-52464775D01*
X158981505Y-52468599D01*
X158978402Y-52473029D01*
X158978399Y-52473034D01*
X158849073Y-52657731D01*
X158849068Y-52657738D01*
X158845965Y-52662171D01*
X158843677Y-52667077D01*
X158843675Y-52667081D01*
X158748386Y-52871427D01*
X158748383Y-52871432D01*
X158746097Y-52876337D01*
X158744698Y-52881557D01*
X158744694Y-52881569D01*
X158686337Y-53099365D01*
X158686335Y-53099371D01*
X158684937Y-53104592D01*
X158684465Y-53109977D01*
X158684465Y-53109982D01*
X158684390Y-53110844D01*
X158664341Y-53340000D01*
X158664813Y-53345395D01*
X158678161Y-53497967D01*
X158684937Y-53575408D01*
X158686336Y-53580630D01*
X158686337Y-53580634D01*
X158744694Y-53798430D01*
X158744697Y-53798438D01*
X158746097Y-53803663D01*
X158748385Y-53808570D01*
X158748386Y-53808572D01*
X158843678Y-54012927D01*
X158843681Y-54012933D01*
X158845965Y-54017830D01*
X158849064Y-54022257D01*
X158849066Y-54022259D01*
X158978399Y-54206966D01*
X158978402Y-54206970D01*
X158981505Y-54211401D01*
X159148599Y-54378495D01*
X159153032Y-54381599D01*
X159153038Y-54381604D01*
X159334158Y-54508425D01*
X159373024Y-54552743D01*
X159387035Y-54610000D01*
X159373024Y-54667257D01*
X159334159Y-54711575D01*
X159189309Y-54813000D01*
X159148599Y-54841505D01*
X159144775Y-54845328D01*
X159144769Y-54845334D01*
X158985334Y-55004769D01*
X158985328Y-55004775D01*
X158981505Y-55008599D01*
X158978402Y-55013029D01*
X158978399Y-55013034D01*
X158849073Y-55197731D01*
X158849068Y-55197738D01*
X158845965Y-55202171D01*
X158843677Y-55207077D01*
X158843675Y-55207081D01*
X158748386Y-55411427D01*
X158748383Y-55411432D01*
X158746097Y-55416337D01*
X158744698Y-55421557D01*
X158744694Y-55421569D01*
X158686337Y-55639365D01*
X158686335Y-55639371D01*
X158684937Y-55644592D01*
X158684465Y-55649977D01*
X158684465Y-55649982D01*
X158674622Y-55762490D01*
X158664341Y-55880000D01*
X101092000Y-55880000D01*
X101075674Y-55880000D01*
X98245278Y-55880000D01*
X98182171Y-55862740D01*
X98153008Y-55832658D01*
X98152057Y-55833610D01*
X97293542Y-54975095D01*
X97281999Y-54968431D01*
X97270457Y-54975095D01*
X96411942Y-55833610D01*
X96410990Y-55832658D01*
X96381828Y-55862740D01*
X96318721Y-55880000D01*
X93587434Y-55880000D01*
X93527318Y-55864453D01*
X93482276Y-55821710D01*
X93463604Y-55762490D01*
X93475984Y-55701642D01*
X93516311Y-55654425D01*
X93554376Y-55627771D01*
X93562647Y-55620830D01*
X93715830Y-55467647D01*
X93722767Y-55459381D01*
X93847032Y-55281912D01*
X93852420Y-55272580D01*
X93943977Y-55076234D01*
X93947669Y-55066092D01*
X93995179Y-54888780D01*
X93995547Y-54877551D01*
X93984605Y-54875000D01*
X92594000Y-54875000D01*
X92532000Y-54858387D01*
X92486613Y-54813000D01*
X92470000Y-54751000D01*
X92470000Y-54615117D01*
X95777283Y-54615117D01*
X95796962Y-54852618D01*
X95798646Y-54862712D01*
X95857153Y-55093747D01*
X95860472Y-55103414D01*
X95956208Y-55321673D01*
X95961070Y-55330656D01*
X96050999Y-55468304D01*
X96058963Y-55476024D01*
X96068345Y-55470100D01*
X96916904Y-54621542D01*
X96923568Y-54610000D01*
X97640431Y-54610000D01*
X97647095Y-54621542D01*
X98495653Y-55470100D01*
X98505034Y-55476024D01*
X98513002Y-55468299D01*
X98602924Y-55330664D01*
X98607792Y-55321669D01*
X98703527Y-55103414D01*
X98706846Y-55093747D01*
X98765353Y-54862712D01*
X98767037Y-54852618D01*
X98786717Y-54615117D01*
X98786717Y-54604883D01*
X98767037Y-54367381D01*
X98765353Y-54357287D01*
X98706846Y-54126252D01*
X98703527Y-54116585D01*
X98607792Y-53898330D01*
X98602924Y-53889335D01*
X98513002Y-53751699D01*
X98505034Y-53743974D01*
X98495653Y-53749898D01*
X97647095Y-54598457D01*
X97640431Y-54610000D01*
X96923568Y-54610000D01*
X96916904Y-54598457D01*
X96068345Y-53749898D01*
X96058964Y-53743974D01*
X96050997Y-53751699D01*
X95961072Y-53889338D01*
X95956207Y-53898328D01*
X95860472Y-54116585D01*
X95857153Y-54126252D01*
X95798646Y-54357287D01*
X95796962Y-54367381D01*
X95777283Y-54604883D01*
X95777283Y-54615117D01*
X92470000Y-54615117D01*
X92470000Y-54358674D01*
X92970000Y-54358674D01*
X92973450Y-54371549D01*
X92986326Y-54375000D01*
X93984605Y-54375000D01*
X93995547Y-54372448D01*
X93995179Y-54361219D01*
X93947669Y-54183907D01*
X93943977Y-54173765D01*
X93852420Y-53977419D01*
X93847032Y-53968087D01*
X93722767Y-53790618D01*
X93715830Y-53782352D01*
X93562647Y-53629169D01*
X93554381Y-53622232D01*
X93376912Y-53497967D01*
X93367580Y-53492579D01*
X93171234Y-53401022D01*
X93161092Y-53397330D01*
X93121603Y-53386749D01*
X96417748Y-53386749D01*
X96424408Y-53398855D01*
X97270457Y-54244904D01*
X97282000Y-54251568D01*
X97293542Y-54244904D01*
X98139590Y-53398855D01*
X98146250Y-53386749D01*
X98138143Y-53375559D01*
X98109286Y-53353099D01*
X98100719Y-53347503D01*
X97891114Y-53234070D01*
X97881760Y-53229967D01*
X97656343Y-53152582D01*
X97646431Y-53150071D01*
X97411356Y-53110844D01*
X97401161Y-53110000D01*
X97162839Y-53110000D01*
X97152643Y-53110844D01*
X96917568Y-53150071D01*
X96907656Y-53152582D01*
X96682239Y-53229967D01*
X96672885Y-53234070D01*
X96463276Y-53347504D01*
X96454717Y-53353096D01*
X96425854Y-53375560D01*
X96417748Y-53386749D01*
X93121603Y-53386749D01*
X92983780Y-53349820D01*
X92972551Y-53349452D01*
X92970000Y-53360395D01*
X92970000Y-54358674D01*
X92470000Y-54358674D01*
X92470000Y-53360395D01*
X92467448Y-53349452D01*
X92456219Y-53349820D01*
X92278907Y-53397330D01*
X92268765Y-53401022D01*
X92072419Y-53492579D01*
X92063081Y-53497970D01*
X91889123Y-53619778D01*
X91826110Y-53641938D01*
X91760743Y-53628192D01*
X91711991Y-53582531D01*
X91694000Y-53518203D01*
X91694000Y-52448155D01*
X91710613Y-52386156D01*
X91755999Y-52340769D01*
X91817998Y-52324155D01*
X93740349Y-52324122D01*
X101092000Y-52324000D01*
X101092000Y-46614578D01*
X110409500Y-46614578D01*
X110409501Y-46617872D01*
X110409853Y-46621150D01*
X110409854Y-46621161D01*
X110415079Y-46669768D01*
X110415080Y-46669773D01*
X110415909Y-46677483D01*
X110418619Y-46684749D01*
X110418620Y-46684753D01*
X110431953Y-46720500D01*
X110466204Y-46812331D01*
X110471518Y-46819430D01*
X110471519Y-46819431D01*
X110527367Y-46894035D01*
X110552454Y-46927546D01*
X110667669Y-47013796D01*
X110802517Y-47064091D01*
X110862127Y-47070500D01*
X112657872Y-47070499D01*
X112717483Y-47064091D01*
X112852331Y-47013796D01*
X112967546Y-46927546D01*
X113053796Y-46812331D01*
X113104091Y-46677483D01*
X113110500Y-46617873D01*
X113110500Y-46614578D01*
X118029500Y-46614578D01*
X118029501Y-46617872D01*
X118029853Y-46621150D01*
X118029854Y-46621161D01*
X118035079Y-46669768D01*
X118035080Y-46669773D01*
X118035909Y-46677483D01*
X118038619Y-46684749D01*
X118038620Y-46684753D01*
X118051953Y-46720500D01*
X118086204Y-46812331D01*
X118091518Y-46819430D01*
X118091519Y-46819431D01*
X118147367Y-46894035D01*
X118172454Y-46927546D01*
X118287669Y-47013796D01*
X118422517Y-47064091D01*
X118482127Y-47070500D01*
X120277872Y-47070499D01*
X120337483Y-47064091D01*
X120472331Y-47013796D01*
X120587546Y-46927546D01*
X120673796Y-46812331D01*
X120722810Y-46680916D01*
X120757789Y-46630537D01*
X120812634Y-46603084D01*
X120873927Y-46605273D01*
X120926673Y-46636569D01*
X121048599Y-46758495D01*
X121053031Y-46761598D01*
X121053033Y-46761600D01*
X121197260Y-46862589D01*
X121242170Y-46894035D01*
X121456337Y-46993903D01*
X121684592Y-47055063D01*
X121920000Y-47075659D01*
X122155408Y-47055063D01*
X122383663Y-46993903D01*
X122597830Y-46894035D01*
X122791401Y-46758495D01*
X122935318Y-46614578D01*
X128189500Y-46614578D01*
X128189501Y-46617872D01*
X128189853Y-46621150D01*
X128189854Y-46621161D01*
X128195079Y-46669768D01*
X128195080Y-46669773D01*
X128195909Y-46677483D01*
X128198619Y-46684749D01*
X128198620Y-46684753D01*
X128211953Y-46720500D01*
X128246204Y-46812331D01*
X128251518Y-46819430D01*
X128251519Y-46819431D01*
X128307367Y-46894035D01*
X128332454Y-46927546D01*
X128447669Y-47013796D01*
X128582517Y-47064091D01*
X128642127Y-47070500D01*
X130437872Y-47070499D01*
X130497483Y-47064091D01*
X130632331Y-47013796D01*
X130747546Y-46927546D01*
X130833796Y-46812331D01*
X130882810Y-46680916D01*
X130917789Y-46630537D01*
X130972634Y-46603084D01*
X131033927Y-46605273D01*
X131086673Y-46636569D01*
X131208599Y-46758495D01*
X131213031Y-46761598D01*
X131213033Y-46761600D01*
X131357260Y-46862589D01*
X131402170Y-46894035D01*
X131616337Y-46993903D01*
X131844592Y-47055063D01*
X132080000Y-47075659D01*
X132315408Y-47055063D01*
X132543663Y-46993903D01*
X132757830Y-46894035D01*
X132951401Y-46758495D01*
X133095318Y-46614578D01*
X135809500Y-46614578D01*
X135809501Y-46617872D01*
X135809853Y-46621150D01*
X135809854Y-46621161D01*
X135815079Y-46669768D01*
X135815080Y-46669773D01*
X135815909Y-46677483D01*
X135818619Y-46684749D01*
X135818620Y-46684753D01*
X135831953Y-46720500D01*
X135866204Y-46812331D01*
X135871518Y-46819430D01*
X135871519Y-46819431D01*
X135927367Y-46894035D01*
X135952454Y-46927546D01*
X136067669Y-47013796D01*
X136202517Y-47064091D01*
X136262127Y-47070500D01*
X138057872Y-47070499D01*
X138117483Y-47064091D01*
X138252331Y-47013796D01*
X138367546Y-46927546D01*
X138453796Y-46812331D01*
X138504091Y-46677483D01*
X138510500Y-46617873D01*
X138510500Y-46614578D01*
X140889500Y-46614578D01*
X140889501Y-46617872D01*
X140889853Y-46621150D01*
X140889854Y-46621161D01*
X140895079Y-46669768D01*
X140895080Y-46669773D01*
X140895909Y-46677483D01*
X140898619Y-46684749D01*
X140898620Y-46684753D01*
X140911953Y-46720500D01*
X140946204Y-46812331D01*
X140951518Y-46819430D01*
X140951519Y-46819431D01*
X141007367Y-46894035D01*
X141032454Y-46927546D01*
X141147669Y-47013796D01*
X141282517Y-47064091D01*
X141342127Y-47070500D01*
X143137872Y-47070499D01*
X143197483Y-47064091D01*
X143332331Y-47013796D01*
X143447546Y-46927546D01*
X143533796Y-46812331D01*
X143582810Y-46680916D01*
X143617789Y-46630537D01*
X143672634Y-46603084D01*
X143733927Y-46605273D01*
X143786673Y-46636569D01*
X143908599Y-46758495D01*
X143913031Y-46761598D01*
X143913033Y-46761600D01*
X144057260Y-46862589D01*
X144102170Y-46894035D01*
X144316337Y-46993903D01*
X144544592Y-47055063D01*
X144780000Y-47075659D01*
X145015408Y-47055063D01*
X145243663Y-46993903D01*
X145457830Y-46894035D01*
X145651401Y-46758495D01*
X145795378Y-46614518D01*
X148510000Y-46614518D01*
X148510353Y-46621114D01*
X148515573Y-46669667D01*
X148519111Y-46684641D01*
X148563547Y-46803777D01*
X148571962Y-46819189D01*
X148647498Y-46920092D01*
X148659907Y-46932501D01*
X148760810Y-47008037D01*
X148776222Y-47016452D01*
X148895358Y-47060888D01*
X148910332Y-47064426D01*
X148958885Y-47069646D01*
X148965482Y-47070000D01*
X149593674Y-47070000D01*
X149606549Y-47066549D01*
X149610000Y-47053674D01*
X150110000Y-47053674D01*
X150113450Y-47066549D01*
X150126326Y-47070000D01*
X150754518Y-47070000D01*
X150761114Y-47069646D01*
X150809667Y-47064426D01*
X150824641Y-47060888D01*
X150943777Y-47016452D01*
X150959189Y-47008037D01*
X151060092Y-46932501D01*
X151072501Y-46920092D01*
X151148037Y-46819189D01*
X151156452Y-46803777D01*
X151202422Y-46680529D01*
X151237401Y-46630149D01*
X151292246Y-46602696D01*
X151353539Y-46604885D01*
X151406285Y-46636180D01*
X151528599Y-46758495D01*
X151533031Y-46761598D01*
X151533033Y-46761600D01*
X151677260Y-46862589D01*
X151722170Y-46894035D01*
X151936337Y-46993903D01*
X152164592Y-47055063D01*
X152400000Y-47075659D01*
X152635408Y-47055063D01*
X152863663Y-46993903D01*
X153077830Y-46894035D01*
X153271401Y-46758495D01*
X153438495Y-46591401D01*
X153574035Y-46397830D01*
X153673903Y-46183663D01*
X153735063Y-45955408D01*
X153755659Y-45720000D01*
X153735063Y-45484592D01*
X153673903Y-45256337D01*
X153574035Y-45042171D01*
X153438495Y-44848599D01*
X153271401Y-44681505D01*
X153266970Y-44678402D01*
X153266966Y-44678399D01*
X153082259Y-44549066D01*
X153082257Y-44549064D01*
X153077830Y-44545965D01*
X153072933Y-44543681D01*
X153072927Y-44543678D01*
X152868572Y-44448386D01*
X152868570Y-44448385D01*
X152863663Y-44446097D01*
X152858438Y-44444697D01*
X152858430Y-44444694D01*
X152640634Y-44386337D01*
X152640630Y-44386336D01*
X152635408Y-44384937D01*
X152630020Y-44384465D01*
X152630017Y-44384465D01*
X152405395Y-44364813D01*
X152400000Y-44364341D01*
X152394605Y-44364813D01*
X152169982Y-44384465D01*
X152169977Y-44384465D01*
X152164592Y-44384937D01*
X152159371Y-44386335D01*
X152159365Y-44386337D01*
X151941569Y-44444694D01*
X151941557Y-44444698D01*
X151936337Y-44446097D01*
X151931432Y-44448383D01*
X151931427Y-44448386D01*
X151727081Y-44543675D01*
X151727077Y-44543677D01*
X151722171Y-44545965D01*
X151717738Y-44549068D01*
X151717731Y-44549073D01*
X151533034Y-44678399D01*
X151533029Y-44678402D01*
X151528599Y-44681505D01*
X151524775Y-44685328D01*
X151524775Y-44685329D01*
X151406285Y-44803819D01*
X151353538Y-44835114D01*
X151292246Y-44837303D01*
X151237401Y-44809850D01*
X151202422Y-44759471D01*
X151156451Y-44636220D01*
X151148037Y-44620810D01*
X151072501Y-44519907D01*
X151060092Y-44507498D01*
X150959189Y-44431962D01*
X150943777Y-44423547D01*
X150824641Y-44379111D01*
X150809667Y-44375573D01*
X150761114Y-44370353D01*
X150754518Y-44370000D01*
X150126326Y-44370000D01*
X150113450Y-44373450D01*
X150110000Y-44386326D01*
X150110000Y-47053674D01*
X149610000Y-47053674D01*
X149610000Y-45986326D01*
X149606549Y-45973450D01*
X149593674Y-45970000D01*
X148526326Y-45970000D01*
X148513450Y-45973450D01*
X148510000Y-45986326D01*
X148510000Y-46614518D01*
X145795378Y-46614518D01*
X145818495Y-46591401D01*
X145954035Y-46397830D01*
X146053903Y-46183663D01*
X146115063Y-45955408D01*
X146135659Y-45720000D01*
X146115063Y-45484592D01*
X146106779Y-45453674D01*
X148510000Y-45453674D01*
X148513450Y-45466549D01*
X148526326Y-45470000D01*
X149593674Y-45470000D01*
X149606549Y-45466549D01*
X149610000Y-45453674D01*
X149610000Y-44386326D01*
X149606549Y-44373450D01*
X149593674Y-44370000D01*
X148965482Y-44370000D01*
X148958885Y-44370353D01*
X148910332Y-44375573D01*
X148895358Y-44379111D01*
X148776222Y-44423547D01*
X148760810Y-44431962D01*
X148659907Y-44507498D01*
X148647498Y-44519907D01*
X148571962Y-44620810D01*
X148563547Y-44636222D01*
X148519111Y-44755358D01*
X148515573Y-44770332D01*
X148510353Y-44818885D01*
X148510000Y-44825482D01*
X148510000Y-45453674D01*
X146106779Y-45453674D01*
X146053903Y-45256337D01*
X145954035Y-45042171D01*
X145818495Y-44848599D01*
X145651401Y-44681505D01*
X145646970Y-44678402D01*
X145646966Y-44678399D01*
X145462259Y-44549066D01*
X145462257Y-44549064D01*
X145457830Y-44545965D01*
X145452933Y-44543681D01*
X145452927Y-44543678D01*
X145248572Y-44448386D01*
X145248570Y-44448385D01*
X145243663Y-44446097D01*
X145238438Y-44444697D01*
X145238430Y-44444694D01*
X145020634Y-44386337D01*
X145020630Y-44386336D01*
X145015408Y-44384937D01*
X145010020Y-44384465D01*
X145010017Y-44384465D01*
X144785395Y-44364813D01*
X144780000Y-44364341D01*
X144774605Y-44364813D01*
X144549982Y-44384465D01*
X144549977Y-44384465D01*
X144544592Y-44384937D01*
X144539371Y-44386335D01*
X144539365Y-44386337D01*
X144321569Y-44444694D01*
X144321557Y-44444698D01*
X144316337Y-44446097D01*
X144311432Y-44448383D01*
X144311427Y-44448386D01*
X144107081Y-44543675D01*
X144107077Y-44543677D01*
X144102171Y-44545965D01*
X144097738Y-44549068D01*
X144097731Y-44549073D01*
X143913034Y-44678399D01*
X143913029Y-44678402D01*
X143908599Y-44681505D01*
X143904775Y-44685328D01*
X143904775Y-44685329D01*
X143786673Y-44803431D01*
X143733926Y-44834726D01*
X143672633Y-44836915D01*
X143617789Y-44809462D01*
X143582810Y-44759082D01*
X143555304Y-44685336D01*
X143533796Y-44627669D01*
X143447546Y-44512454D01*
X143357030Y-44444694D01*
X143339431Y-44431519D01*
X143339430Y-44431518D01*
X143332331Y-44426204D01*
X143225442Y-44386337D01*
X143204752Y-44378620D01*
X143204750Y-44378619D01*
X143197483Y-44375909D01*
X143189770Y-44375079D01*
X143189767Y-44375079D01*
X143141180Y-44369855D01*
X143141169Y-44369854D01*
X143137873Y-44369500D01*
X143134550Y-44369500D01*
X141345439Y-44369500D01*
X141345420Y-44369500D01*
X141342128Y-44369501D01*
X141338850Y-44369853D01*
X141338838Y-44369854D01*
X141290231Y-44375079D01*
X141290225Y-44375080D01*
X141282517Y-44375909D01*
X141275252Y-44378618D01*
X141275246Y-44378620D01*
X141155980Y-44423104D01*
X141155978Y-44423104D01*
X141147669Y-44426204D01*
X141140572Y-44431516D01*
X141140568Y-44431519D01*
X141039550Y-44507141D01*
X141039546Y-44507144D01*
X141032454Y-44512454D01*
X141027144Y-44519546D01*
X141027141Y-44519550D01*
X140951519Y-44620568D01*
X140951516Y-44620572D01*
X140946204Y-44627669D01*
X140943104Y-44635978D01*
X140943104Y-44635980D01*
X140898620Y-44755247D01*
X140898619Y-44755250D01*
X140895909Y-44762517D01*
X140895079Y-44770227D01*
X140895079Y-44770232D01*
X140889855Y-44818819D01*
X140889854Y-44818831D01*
X140889500Y-44822127D01*
X140889500Y-44825448D01*
X140889500Y-44825449D01*
X140889500Y-46614560D01*
X140889500Y-46614578D01*
X138510500Y-46614578D01*
X138510499Y-44822128D01*
X138504091Y-44762517D01*
X138453796Y-44627669D01*
X138367546Y-44512454D01*
X138277030Y-44444694D01*
X138259431Y-44431519D01*
X138259430Y-44431518D01*
X138252331Y-44426204D01*
X138145442Y-44386337D01*
X138124752Y-44378620D01*
X138124750Y-44378619D01*
X138117483Y-44375909D01*
X138109770Y-44375079D01*
X138109767Y-44375079D01*
X138061180Y-44369855D01*
X138061169Y-44369854D01*
X138057873Y-44369500D01*
X138054550Y-44369500D01*
X136265439Y-44369500D01*
X136265420Y-44369500D01*
X136262128Y-44369501D01*
X136258850Y-44369853D01*
X136258838Y-44369854D01*
X136210231Y-44375079D01*
X136210225Y-44375080D01*
X136202517Y-44375909D01*
X136195252Y-44378618D01*
X136195246Y-44378620D01*
X136075980Y-44423104D01*
X136075978Y-44423104D01*
X136067669Y-44426204D01*
X136060572Y-44431516D01*
X136060568Y-44431519D01*
X135959550Y-44507141D01*
X135959546Y-44507144D01*
X135952454Y-44512454D01*
X135947144Y-44519546D01*
X135947141Y-44519550D01*
X135871519Y-44620568D01*
X135871516Y-44620572D01*
X135866204Y-44627669D01*
X135863104Y-44635978D01*
X135863104Y-44635980D01*
X135818620Y-44755247D01*
X135818619Y-44755250D01*
X135815909Y-44762517D01*
X135815079Y-44770227D01*
X135815079Y-44770232D01*
X135809855Y-44818819D01*
X135809854Y-44818831D01*
X135809500Y-44822127D01*
X135809500Y-44825448D01*
X135809500Y-44825449D01*
X135809500Y-46614560D01*
X135809500Y-46614578D01*
X133095318Y-46614578D01*
X133118495Y-46591401D01*
X133254035Y-46397830D01*
X133353903Y-46183663D01*
X133415063Y-45955408D01*
X133435659Y-45720000D01*
X133415063Y-45484592D01*
X133353903Y-45256337D01*
X133254035Y-45042171D01*
X133118495Y-44848599D01*
X132951401Y-44681505D01*
X132946970Y-44678402D01*
X132946966Y-44678399D01*
X132762259Y-44549066D01*
X132762257Y-44549064D01*
X132757830Y-44545965D01*
X132752933Y-44543681D01*
X132752927Y-44543678D01*
X132548572Y-44448386D01*
X132548570Y-44448385D01*
X132543663Y-44446097D01*
X132538438Y-44444697D01*
X132538430Y-44444694D01*
X132320634Y-44386337D01*
X132320630Y-44386336D01*
X132315408Y-44384937D01*
X132310020Y-44384465D01*
X132310017Y-44384465D01*
X132085395Y-44364813D01*
X132080000Y-44364341D01*
X132074605Y-44364813D01*
X131849982Y-44384465D01*
X131849977Y-44384465D01*
X131844592Y-44384937D01*
X131839371Y-44386335D01*
X131839365Y-44386337D01*
X131621569Y-44444694D01*
X131621557Y-44444698D01*
X131616337Y-44446097D01*
X131611432Y-44448383D01*
X131611427Y-44448386D01*
X131407081Y-44543675D01*
X131407077Y-44543677D01*
X131402171Y-44545965D01*
X131397738Y-44549068D01*
X131397731Y-44549073D01*
X131213034Y-44678399D01*
X131213029Y-44678402D01*
X131208599Y-44681505D01*
X131204775Y-44685328D01*
X131204775Y-44685329D01*
X131086673Y-44803431D01*
X131033926Y-44834726D01*
X130972633Y-44836915D01*
X130917789Y-44809462D01*
X130882810Y-44759082D01*
X130855304Y-44685336D01*
X130833796Y-44627669D01*
X130747546Y-44512454D01*
X130657030Y-44444694D01*
X130639431Y-44431519D01*
X130639430Y-44431518D01*
X130632331Y-44426204D01*
X130525442Y-44386337D01*
X130504752Y-44378620D01*
X130504750Y-44378619D01*
X130497483Y-44375909D01*
X130489770Y-44375079D01*
X130489767Y-44375079D01*
X130441180Y-44369855D01*
X130441169Y-44369854D01*
X130437873Y-44369500D01*
X130434550Y-44369500D01*
X128645439Y-44369500D01*
X128645420Y-44369500D01*
X128642128Y-44369501D01*
X128638850Y-44369853D01*
X128638838Y-44369854D01*
X128590231Y-44375079D01*
X128590225Y-44375080D01*
X128582517Y-44375909D01*
X128575252Y-44378618D01*
X128575246Y-44378620D01*
X128455980Y-44423104D01*
X128455978Y-44423104D01*
X128447669Y-44426204D01*
X128440572Y-44431516D01*
X128440568Y-44431519D01*
X128339550Y-44507141D01*
X128339546Y-44507144D01*
X128332454Y-44512454D01*
X128327144Y-44519546D01*
X128327141Y-44519550D01*
X128251519Y-44620568D01*
X128251516Y-44620572D01*
X128246204Y-44627669D01*
X128243104Y-44635978D01*
X128243104Y-44635980D01*
X128198620Y-44755247D01*
X128198619Y-44755250D01*
X128195909Y-44762517D01*
X128195079Y-44770227D01*
X128195079Y-44770232D01*
X128189855Y-44818819D01*
X128189854Y-44818831D01*
X128189500Y-44822127D01*
X128189500Y-44825448D01*
X128189500Y-44825449D01*
X128189500Y-46614560D01*
X128189500Y-46614578D01*
X122935318Y-46614578D01*
X122958495Y-46591401D01*
X123094035Y-46397830D01*
X123193903Y-46183663D01*
X123255063Y-45955408D01*
X123275659Y-45720000D01*
X123255063Y-45484592D01*
X123193903Y-45256337D01*
X123094035Y-45042171D01*
X122958495Y-44848599D01*
X122791401Y-44681505D01*
X122786970Y-44678402D01*
X122786966Y-44678399D01*
X122602259Y-44549066D01*
X122602257Y-44549064D01*
X122597830Y-44545965D01*
X122592933Y-44543681D01*
X122592927Y-44543678D01*
X122388572Y-44448386D01*
X122388570Y-44448385D01*
X122383663Y-44446097D01*
X122378438Y-44444697D01*
X122378430Y-44444694D01*
X122160634Y-44386337D01*
X122160630Y-44386336D01*
X122155408Y-44384937D01*
X122150020Y-44384465D01*
X122150017Y-44384465D01*
X121925395Y-44364813D01*
X121920000Y-44364341D01*
X121914605Y-44364813D01*
X121689982Y-44384465D01*
X121689977Y-44384465D01*
X121684592Y-44384937D01*
X121679371Y-44386335D01*
X121679365Y-44386337D01*
X121461569Y-44444694D01*
X121461557Y-44444698D01*
X121456337Y-44446097D01*
X121451432Y-44448383D01*
X121451427Y-44448386D01*
X121247081Y-44543675D01*
X121247077Y-44543677D01*
X121242171Y-44545965D01*
X121237738Y-44549068D01*
X121237731Y-44549073D01*
X121053034Y-44678399D01*
X121053029Y-44678402D01*
X121048599Y-44681505D01*
X121044775Y-44685328D01*
X121044775Y-44685329D01*
X120926673Y-44803431D01*
X120873926Y-44834726D01*
X120812633Y-44836915D01*
X120757789Y-44809462D01*
X120722810Y-44759082D01*
X120695304Y-44685336D01*
X120673796Y-44627669D01*
X120587546Y-44512454D01*
X120497030Y-44444694D01*
X120479431Y-44431519D01*
X120479430Y-44431518D01*
X120472331Y-44426204D01*
X120365442Y-44386337D01*
X120344752Y-44378620D01*
X120344750Y-44378619D01*
X120337483Y-44375909D01*
X120329770Y-44375079D01*
X120329767Y-44375079D01*
X120281180Y-44369855D01*
X120281169Y-44369854D01*
X120277873Y-44369500D01*
X120274550Y-44369500D01*
X118485439Y-44369500D01*
X118485420Y-44369500D01*
X118482128Y-44369501D01*
X118478850Y-44369853D01*
X118478838Y-44369854D01*
X118430231Y-44375079D01*
X118430225Y-44375080D01*
X118422517Y-44375909D01*
X118415252Y-44378618D01*
X118415246Y-44378620D01*
X118295980Y-44423104D01*
X118295978Y-44423104D01*
X118287669Y-44426204D01*
X118280572Y-44431516D01*
X118280568Y-44431519D01*
X118179550Y-44507141D01*
X118179546Y-44507144D01*
X118172454Y-44512454D01*
X118167144Y-44519546D01*
X118167141Y-44519550D01*
X118091519Y-44620568D01*
X118091516Y-44620572D01*
X118086204Y-44627669D01*
X118083104Y-44635978D01*
X118083104Y-44635980D01*
X118038620Y-44755247D01*
X118038619Y-44755250D01*
X118035909Y-44762517D01*
X118035079Y-44770227D01*
X118035079Y-44770232D01*
X118029855Y-44818819D01*
X118029854Y-44818831D01*
X118029500Y-44822127D01*
X118029500Y-44825448D01*
X118029500Y-44825449D01*
X118029500Y-46614560D01*
X118029500Y-46614578D01*
X113110500Y-46614578D01*
X113110499Y-44822128D01*
X113104091Y-44762517D01*
X113053796Y-44627669D01*
X112967546Y-44512454D01*
X112877030Y-44444694D01*
X112859431Y-44431519D01*
X112859430Y-44431518D01*
X112852331Y-44426204D01*
X112745442Y-44386337D01*
X112724752Y-44378620D01*
X112724750Y-44378619D01*
X112717483Y-44375909D01*
X112709770Y-44375079D01*
X112709767Y-44375079D01*
X112661180Y-44369855D01*
X112661169Y-44369854D01*
X112657873Y-44369500D01*
X112654550Y-44369500D01*
X110865439Y-44369500D01*
X110865420Y-44369500D01*
X110862128Y-44369501D01*
X110858850Y-44369853D01*
X110858838Y-44369854D01*
X110810231Y-44375079D01*
X110810225Y-44375080D01*
X110802517Y-44375909D01*
X110795252Y-44378618D01*
X110795246Y-44378620D01*
X110675980Y-44423104D01*
X110675978Y-44423104D01*
X110667669Y-44426204D01*
X110660572Y-44431516D01*
X110660568Y-44431519D01*
X110559550Y-44507141D01*
X110559546Y-44507144D01*
X110552454Y-44512454D01*
X110547144Y-44519546D01*
X110547141Y-44519550D01*
X110471519Y-44620568D01*
X110471516Y-44620572D01*
X110466204Y-44627669D01*
X110463104Y-44635978D01*
X110463104Y-44635980D01*
X110418620Y-44755247D01*
X110418619Y-44755250D01*
X110415909Y-44762517D01*
X110415079Y-44770227D01*
X110415079Y-44770232D01*
X110409855Y-44818819D01*
X110409854Y-44818831D01*
X110409500Y-44822127D01*
X110409500Y-44825448D01*
X110409500Y-44825449D01*
X110409500Y-46614560D01*
X110409500Y-46614578D01*
X101092000Y-46614578D01*
X101092000Y-40774500D01*
X101108613Y-40712500D01*
X101154000Y-40667113D01*
X101216000Y-40650500D01*
X164965500Y-40650500D01*
X165027500Y-40667113D01*
G37*
%TD.AperFunction*%
%TD*%
%TA.AperFunction,Conductor*%
%TO.N,VCC*%
G36*
X80202000Y-49292613D02*
G01*
X80247387Y-49338000D01*
X80264000Y-49400000D01*
X80264000Y-66548000D01*
X80613082Y-66548000D01*
X80670706Y-66562202D01*
X80801851Y-66631032D01*
X80949808Y-66667500D01*
X81094692Y-66667500D01*
X81102192Y-66667500D01*
X81250149Y-66631032D01*
X81349374Y-66578954D01*
X81407000Y-66564751D01*
X81464625Y-66578954D01*
X81563851Y-66631032D01*
X81711808Y-66667500D01*
X81719308Y-66667500D01*
X81826217Y-66667500D01*
X81873670Y-66676939D01*
X81913898Y-66703819D01*
X81927300Y-66717221D01*
X81933705Y-66724131D01*
X81972134Y-66768895D01*
X81996198Y-66787522D01*
X82007968Y-66797889D01*
X82513681Y-67303602D01*
X82540561Y-67343830D01*
X82550000Y-67391283D01*
X82550000Y-67832742D01*
X82534064Y-67893555D01*
X82490352Y-67938736D01*
X82430100Y-67956674D01*
X82368794Y-67942758D01*
X82322191Y-67900563D01*
X82216971Y-67739512D01*
X82214164Y-67735215D01*
X82045744Y-67552262D01*
X81849509Y-67399526D01*
X81844997Y-67397084D01*
X81635316Y-67283610D01*
X81635310Y-67283607D01*
X81630810Y-67281172D01*
X81625969Y-67279510D01*
X81625962Y-67279507D01*
X81400465Y-67202094D01*
X81400461Y-67202093D01*
X81395614Y-67200429D01*
X81386768Y-67198952D01*
X81155398Y-67160344D01*
X81155387Y-67160343D01*
X81150335Y-67159500D01*
X80901665Y-67159500D01*
X80896613Y-67160343D01*
X80896601Y-67160344D01*
X80661443Y-67199585D01*
X80661441Y-67199585D01*
X80656386Y-67200429D01*
X80651541Y-67202092D01*
X80651534Y-67202094D01*
X80426037Y-67279507D01*
X80426026Y-67279511D01*
X80421190Y-67281172D01*
X80416693Y-67283605D01*
X80416683Y-67283610D01*
X80207002Y-67397084D01*
X80206995Y-67397088D01*
X80202491Y-67399526D01*
X80198448Y-67402672D01*
X80198440Y-67402678D01*
X80010304Y-67549111D01*
X80006256Y-67552262D01*
X80002793Y-67556023D01*
X80002784Y-67556032D01*
X79841311Y-67731439D01*
X79841305Y-67731446D01*
X79837836Y-67735215D01*
X79835031Y-67739506D01*
X79835028Y-67739512D01*
X79704631Y-67939099D01*
X79704624Y-67939111D01*
X79701827Y-67943393D01*
X79699772Y-67948077D01*
X79699766Y-67948089D01*
X79604754Y-68164697D01*
X79601937Y-68171119D01*
X79600679Y-68176084D01*
X79600678Y-68176089D01*
X79542151Y-68407204D01*
X79542149Y-68407213D01*
X79540892Y-68412179D01*
X79540468Y-68417288D01*
X79540467Y-68417298D01*
X79525743Y-68595000D01*
X79520357Y-68660000D01*
X79520781Y-68665117D01*
X79540467Y-68902701D01*
X79540468Y-68902709D01*
X79540892Y-68907821D01*
X79542149Y-68912788D01*
X79542151Y-68912795D01*
X79570784Y-69025861D01*
X79601937Y-69148881D01*
X79603997Y-69153577D01*
X79699766Y-69371910D01*
X79699769Y-69371916D01*
X79701827Y-69376607D01*
X79704627Y-69380893D01*
X79704631Y-69380900D01*
X79832675Y-69576885D01*
X79837836Y-69584785D01*
X79841310Y-69588559D01*
X79841311Y-69588560D01*
X80002784Y-69763967D01*
X80002787Y-69763970D01*
X80006256Y-69767738D01*
X80202491Y-69920474D01*
X80421190Y-70038828D01*
X80656386Y-70119571D01*
X80901665Y-70160500D01*
X81145201Y-70160500D01*
X81150335Y-70160500D01*
X81395614Y-70119571D01*
X81630810Y-70038828D01*
X81849509Y-69920474D01*
X82045744Y-69767738D01*
X82214164Y-69584785D01*
X82322190Y-69419437D01*
X82368794Y-69377242D01*
X82430100Y-69363326D01*
X82490352Y-69381264D01*
X82534064Y-69426445D01*
X82550000Y-69487258D01*
X82550000Y-71120000D01*
X84275410Y-71120000D01*
X84335526Y-71135547D01*
X84380568Y-71178290D01*
X84399240Y-71237510D01*
X84386861Y-71298358D01*
X84346534Y-71345575D01*
X84265618Y-71402232D01*
X84257352Y-71409169D01*
X84104169Y-71562352D01*
X84097232Y-71570618D01*
X83972967Y-71748087D01*
X83967579Y-71757419D01*
X83876022Y-71953765D01*
X83872330Y-71963907D01*
X83824820Y-72141219D01*
X83824452Y-72152448D01*
X83835395Y-72155000D01*
X86364605Y-72155000D01*
X86375547Y-72152448D01*
X86375179Y-72141219D01*
X86327669Y-71963907D01*
X86323977Y-71953765D01*
X86232420Y-71757419D01*
X86227032Y-71748087D01*
X86102767Y-71570618D01*
X86095830Y-71562352D01*
X85942647Y-71409169D01*
X85934381Y-71402232D01*
X85853466Y-71345575D01*
X85813139Y-71298358D01*
X85800760Y-71237510D01*
X85819432Y-71178290D01*
X85864474Y-71135547D01*
X85924590Y-71120000D01*
X86744000Y-71120000D01*
X86806000Y-71136613D01*
X86851387Y-71182000D01*
X86868000Y-71244000D01*
X86868000Y-75314000D01*
X86851387Y-75376000D01*
X86806000Y-75421387D01*
X86744000Y-75438000D01*
X78864000Y-75438000D01*
X78802000Y-75421387D01*
X78756613Y-75376000D01*
X78740000Y-75314000D01*
X78740000Y-74883248D01*
X80161749Y-74883248D01*
X80169855Y-74894439D01*
X80198717Y-74916903D01*
X80207279Y-74922496D01*
X80416885Y-75035929D01*
X80426239Y-75040032D01*
X80651656Y-75117417D01*
X80661568Y-75119928D01*
X80896643Y-75159155D01*
X80906839Y-75160000D01*
X81145161Y-75160000D01*
X81155356Y-75159155D01*
X81390431Y-75119928D01*
X81400343Y-75117417D01*
X81625760Y-75040032D01*
X81635114Y-75035929D01*
X81844723Y-74922495D01*
X81853281Y-74916903D01*
X81882146Y-74894437D01*
X81890250Y-74883250D01*
X81883589Y-74871142D01*
X81037542Y-74025095D01*
X81025999Y-74018431D01*
X81014457Y-74025095D01*
X80168408Y-74871143D01*
X80161749Y-74883248D01*
X78740000Y-74883248D01*
X78740000Y-73665117D01*
X79521283Y-73665117D01*
X79540962Y-73902618D01*
X79542646Y-73912712D01*
X79601153Y-74143747D01*
X79604472Y-74153414D01*
X79700208Y-74371673D01*
X79705070Y-74380656D01*
X79794999Y-74518304D01*
X79802963Y-74526024D01*
X79812345Y-74520100D01*
X80660904Y-73671542D01*
X80667568Y-73660000D01*
X81384431Y-73660000D01*
X81391095Y-73671542D01*
X82239653Y-74520100D01*
X82249034Y-74526024D01*
X82257002Y-74518299D01*
X82346924Y-74380664D01*
X82351792Y-74371669D01*
X82447527Y-74153414D01*
X82450846Y-74143747D01*
X82509353Y-73912712D01*
X82511037Y-73902618D01*
X82530717Y-73665117D01*
X82530717Y-73654883D01*
X82511037Y-73417381D01*
X82509353Y-73407287D01*
X82450846Y-73176252D01*
X82447527Y-73166585D01*
X82351792Y-72948330D01*
X82346924Y-72939335D01*
X82257002Y-72801699D01*
X82249034Y-72793974D01*
X82239653Y-72799898D01*
X81391095Y-73648457D01*
X81384431Y-73660000D01*
X80667568Y-73660000D01*
X80660904Y-73648457D01*
X79812345Y-72799898D01*
X79802964Y-72793974D01*
X79794997Y-72801699D01*
X79705072Y-72939338D01*
X79700207Y-72948328D01*
X79604472Y-73166585D01*
X79601153Y-73176252D01*
X79542646Y-73407287D01*
X79540962Y-73417381D01*
X79521283Y-73654883D01*
X79521283Y-73665117D01*
X78740000Y-73665117D01*
X78740000Y-72436749D01*
X80161748Y-72436749D01*
X80168408Y-72448855D01*
X81014457Y-73294904D01*
X81026000Y-73301568D01*
X81037542Y-73294904D01*
X81674894Y-72657551D01*
X83824452Y-72657551D01*
X83824820Y-72668780D01*
X83872330Y-72846092D01*
X83876022Y-72856234D01*
X83967579Y-73052580D01*
X83972967Y-73061912D01*
X84097232Y-73239381D01*
X84104169Y-73247647D01*
X84257352Y-73400830D01*
X84265618Y-73407767D01*
X84443087Y-73532032D01*
X84452419Y-73537420D01*
X84648765Y-73628977D01*
X84658907Y-73632669D01*
X84836219Y-73680179D01*
X84847448Y-73680547D01*
X84850000Y-73669605D01*
X85350000Y-73669605D01*
X85352551Y-73680547D01*
X85363780Y-73680179D01*
X85541092Y-73632669D01*
X85551234Y-73628977D01*
X85747580Y-73537420D01*
X85756912Y-73532032D01*
X85934381Y-73407767D01*
X85942647Y-73400830D01*
X86095830Y-73247647D01*
X86102767Y-73239381D01*
X86227032Y-73061912D01*
X86232420Y-73052580D01*
X86323977Y-72856234D01*
X86327669Y-72846092D01*
X86375179Y-72668780D01*
X86375547Y-72657551D01*
X86364605Y-72655000D01*
X85366326Y-72655000D01*
X85353450Y-72658450D01*
X85350000Y-72671326D01*
X85350000Y-73669605D01*
X84850000Y-73669605D01*
X84850000Y-72671326D01*
X84846549Y-72658450D01*
X84833674Y-72655000D01*
X83835395Y-72655000D01*
X83824452Y-72657551D01*
X81674894Y-72657551D01*
X81883590Y-72448855D01*
X81890250Y-72436749D01*
X81882143Y-72425559D01*
X81853286Y-72403099D01*
X81844719Y-72397503D01*
X81635114Y-72284070D01*
X81625760Y-72279967D01*
X81400343Y-72202582D01*
X81390431Y-72200071D01*
X81155356Y-72160844D01*
X81145161Y-72160000D01*
X80906839Y-72160000D01*
X80896643Y-72160844D01*
X80661568Y-72200071D01*
X80651656Y-72202582D01*
X80426239Y-72279967D01*
X80416885Y-72284070D01*
X80207276Y-72397504D01*
X80198717Y-72403096D01*
X80169854Y-72425560D01*
X80161748Y-72436749D01*
X78740000Y-72436749D01*
X78740000Y-57166326D01*
X78740000Y-57150000D01*
X78723674Y-57150000D01*
X74594056Y-57150000D01*
X74533940Y-57134453D01*
X74488898Y-57091710D01*
X74470226Y-57032489D01*
X74482606Y-56971642D01*
X74522933Y-56924425D01*
X74526961Y-56921604D01*
X74526961Y-56921603D01*
X74531401Y-56918495D01*
X74698495Y-56751401D01*
X74834035Y-56557830D01*
X74933903Y-56343663D01*
X74995063Y-56115408D01*
X75015659Y-55880000D01*
X74995063Y-55644592D01*
X74933903Y-55416337D01*
X74834035Y-55202171D01*
X74698495Y-55008599D01*
X74576181Y-54886285D01*
X74544885Y-54833539D01*
X74542696Y-54772246D01*
X74570149Y-54717401D01*
X74620529Y-54682422D01*
X74743777Y-54636452D01*
X74759189Y-54628037D01*
X74860092Y-54552501D01*
X74872501Y-54540092D01*
X74948037Y-54439189D01*
X74956452Y-54423777D01*
X75000888Y-54304641D01*
X75004426Y-54289667D01*
X75009646Y-54241114D01*
X75010000Y-54234518D01*
X75010000Y-53606326D01*
X75006549Y-53593450D01*
X74993674Y-53590000D01*
X72326326Y-53590000D01*
X72313450Y-53593450D01*
X72310000Y-53606326D01*
X72310000Y-54234518D01*
X72310353Y-54241114D01*
X72315573Y-54289667D01*
X72319111Y-54304641D01*
X72363547Y-54423777D01*
X72371962Y-54439189D01*
X72447498Y-54540092D01*
X72459907Y-54552501D01*
X72560810Y-54628037D01*
X72576220Y-54636451D01*
X72699471Y-54682422D01*
X72749850Y-54717401D01*
X72777303Y-54772246D01*
X72775114Y-54833538D01*
X72743818Y-54886285D01*
X72621505Y-55008599D01*
X72618402Y-55013029D01*
X72618399Y-55013034D01*
X72489073Y-55197731D01*
X72489068Y-55197738D01*
X72485965Y-55202171D01*
X72483677Y-55207077D01*
X72483675Y-55207081D01*
X72388386Y-55411427D01*
X72388383Y-55411432D01*
X72386097Y-55416337D01*
X72384698Y-55421557D01*
X72384694Y-55421569D01*
X72326337Y-55639365D01*
X72326335Y-55639371D01*
X72324937Y-55644592D01*
X72324465Y-55649977D01*
X72324465Y-55649982D01*
X72312867Y-55782546D01*
X72304341Y-55880000D01*
X72324937Y-56115408D01*
X72326336Y-56120630D01*
X72326337Y-56120634D01*
X72384694Y-56338430D01*
X72384697Y-56338438D01*
X72386097Y-56343663D01*
X72388385Y-56348570D01*
X72388386Y-56348572D01*
X72483678Y-56552927D01*
X72483681Y-56552933D01*
X72485965Y-56557830D01*
X72489064Y-56562257D01*
X72489066Y-56562259D01*
X72618399Y-56746966D01*
X72618402Y-56746970D01*
X72621505Y-56751401D01*
X72788599Y-56918495D01*
X72793032Y-56921599D01*
X72793038Y-56921604D01*
X72797067Y-56924425D01*
X72837394Y-56971642D01*
X72849774Y-57032489D01*
X72831102Y-57091710D01*
X72786060Y-57134453D01*
X72725944Y-57150000D01*
X68714500Y-57150000D01*
X68652500Y-57133387D01*
X68607113Y-57088000D01*
X68590500Y-57026000D01*
X68590500Y-53073674D01*
X72310000Y-53073674D01*
X72313450Y-53086549D01*
X72326326Y-53090000D01*
X73393674Y-53090000D01*
X73406549Y-53086549D01*
X73410000Y-53073674D01*
X73910000Y-53073674D01*
X73913450Y-53086549D01*
X73926326Y-53090000D01*
X74993674Y-53090000D01*
X75006549Y-53086549D01*
X75010000Y-53073674D01*
X75010000Y-52445482D01*
X75009646Y-52438885D01*
X75004426Y-52390332D01*
X75000888Y-52375358D01*
X74956452Y-52256222D01*
X74948037Y-52240810D01*
X74872501Y-52139907D01*
X74860092Y-52127498D01*
X74759189Y-52051962D01*
X74743777Y-52043547D01*
X74624641Y-51999111D01*
X74609667Y-51995573D01*
X74561114Y-51990353D01*
X74554518Y-51990000D01*
X73926326Y-51990000D01*
X73913450Y-51993450D01*
X73910000Y-52006326D01*
X73910000Y-53073674D01*
X73410000Y-53073674D01*
X73410000Y-52006326D01*
X73406549Y-51993450D01*
X73393674Y-51990000D01*
X72765482Y-51990000D01*
X72758885Y-51990353D01*
X72710332Y-51995573D01*
X72695358Y-51999111D01*
X72576222Y-52043547D01*
X72560810Y-52051962D01*
X72459907Y-52127498D01*
X72447498Y-52139907D01*
X72371962Y-52240810D01*
X72363547Y-52256222D01*
X72319111Y-52375358D01*
X72315573Y-52390332D01*
X72310353Y-52438885D01*
X72310000Y-52445482D01*
X72310000Y-53073674D01*
X68590500Y-53073674D01*
X68590500Y-49400000D01*
X68607113Y-49338000D01*
X68652500Y-49292613D01*
X68714500Y-49276000D01*
X80140000Y-49276000D01*
X80202000Y-49292613D01*
G37*
%TD.AperFunction*%
%TD*%
M02*
